<?xml version="1.0" standalone="no"?>
<!DOCTYPE svg PUBLIC "-//W3C//DTD SVG 1.1//EN" "http://www.w3.org/Graphics/SVG/1.1/DTD/svg11.dtd">
<svg width="159mm" height="173mm" viewBox="-69 -127 159 173" xmlns="http://www.w3.org/2000/svg" version="1.1">
<title>OpenSCAD Model</title>
<path d="
M 82.0791,45.7815 L 84.0674,45.1355 L 85.8779,44.0902 L 87.4314,42.6913 L 88.6602,41 L 89.5106,39.0902
 L 90,36 L 90,-116.26 L 89.7815,-118.339 L 89.1355,-120.327 L 88.0902,-122.138 L 86.6913,-123.691
 L 85,-124.92 L 83.0902,-125.771 L 80,-126.26 L 0,-126.26 L -0.521194,-126.205 L -1.04529,-126.205
 L -1.55789,-126.096 L -2.07912,-126.041 L -2.57761,-125.88 L -3.09016,-125.771 L -3.56888,-125.557 L -4.06737,-125.395
 L -4.52127,-125.133 L -5,-124.92 L -5.42397,-124.612 L -5.87785,-124.35 L -6.26733,-123.999 L -6.6913,-123.691
 L -7.04198,-123.302 L -7.43144,-122.951 L -7.73947,-122.527 L -8.09016,-122.138 L -8.43607,-121.569 L -8.66025,-121.26
 L -8.76088,-121.034 L -8.94427,-120.732 L -67.0743,-4.47214 L -67.3368,-3.77249 L -67.6405,-3.09016 L -67.6755,-2.86971
 L -67.8086,-2.51479 L -68.12,-0.44754 L -68.1032,-0.168884 L -68.13,-0 L -68.13,36 L -67.9115,38.0791
 L -67.2654,40.0674 L -66.2202,41.8779 L -64.8213,43.4314 L -63.13,44.6602 L -61.2202,45.5106 L -58.13,46
 L 80,46 z
M -11.5214,-88.6533 L -11.8843,-90.3504 L -10.7837,-91.6924 L -9.04834,-91.6686 L -7.98497,-90.297 L -8.39435,-88.6104
 L -9.96817,-87.8789 z
M -43.6476,-24.218 L -44.0105,-25.9152 L -42.91,-27.2571 L -41.1746,-27.2333 L -40.1112,-25.8617 L -40.5206,-24.1751
 L -42.0944,-23.4436 z
" stroke="black" fill="lightgray" stroke-width="0.5"/>
</svg>
