<svg xmlns="http://www.w3.org/2000/svg" viewBox="0 0 1416.59 784.72"><defs><style>.cls-1{fill:none;stroke:#010101;stroke-miterlimit:11.34;stroke-width:1.42px;}</style></defs><g id="Layer_3" data-name="Layer 3"><path class="cls-1" d="M12.52,789.58l.17,1.77.28,1.76.39,1.74.5,1.71.6,1.68.71,1.63.81,1.59.9,1.53,1,1.47L19,805.87l1.18,1.33,1.26,1.26,1.34,1.18,1.4,1.09,1.48,1,1.53.91,1.59.81,1.63.71,1.68.6,1.71.5,1.73.38,1.76.28,1.78.17,1.78.06H455.57l1.78-.06,1.77-.17,1.76-.28,1.74-.38,1.71-.5,1.67-.6,1.64-.71,1.58-.81,1.54-.91,1.47-1,1.41-1.09,1.33-1.18,1.26-1.26,1.18-1.33,1.09-1.41,1-1.47.91-1.53.81-1.59.7-1.63.61-1.68.49-1.71.39-1.74.28-1.76.17-1.77.05-1.78V561l-.05-1.78-.17-1.77-.28-1.76L483,554l-.49-1.71-.61-1.68-.7-1.63-.81-1.59-.91-1.53-1-1.47L477.41,543l-1.18-1.34L475,540.37l-1.33-1.18-1.41-1.09-1.47-1-1.54-.91-1-.52L138.69,370.9l-.31-.14-.3-.16-.51-.22-.5-.23-.31-.12-.31-.13-.52-.19-.52-.2-.32-.1-.32-.12-.53-.15-.53-.17-.32-.08-.33-.09-.54-.13-.53-.13-.34-.06-.33-.07-.54-.09-.55-.1-.33,0-.34-.05-.55-.05-.55-.07-.33,0-.34,0-.55,0-.55,0H40.82L39,368l-1.78.17-1.76.28-1.73.39-1.71.49-1.68.61-1.63.7-1.59.81-1.53.91-1.48,1-1.4,1.09-1.34,1.18-1.26,1.26L19,378.18l-1.09,1.41-1,1.47-.9,1.53-.81,1.59-.71,1.64-.6,1.67-.5,1.71L13,390.94l-.28,1.76-.17,1.77,0,1.78V787.8ZM373.73,532.24l0-.44.08-.44.1-.43.14-.42.16-.42.18-.4.21-.39.24-.38.26-.36.28-.35.3-.33.32-.3.34-.29.36-.27.38-.24.38-.22.4-.19.42-.17.42-.14.43-.11.44-.09.44-.06.44,0H381l.44,0,.44.05.44.08.43.11.43.13.41.16.41.19.39.21.38.23.36.26.35.28.32.31.31.32.29.34.26.36.24.37.22.39.19.4.17.41.14.42.12.43.09.44.05.44,0,.45V533l0,.45-.06.44-.07.44-.11.43-.14.42-.16.42-.18.4-.21.39-.24.38-.26.36-.28.35-.3.33-.32.3-.34.29-.36.27-.37.24-.39.22-.4.19-.42.17-.42.14-.43.11-.43.09-.45.06-.44,0h-.44l-.45,0-.44,0-.44-.08-.43-.11-.43-.13-.41-.16-.41-.19-.39-.21-.38-.23-.36-.26-.34-.28-.33-.31-.31-.32-.29-.34-.26-.36-.24-.37-.22-.39-.19-.4-.17-.41-.14-.42-.12-.43-.08-.44-.06-.44,0-.45v-.44ZM191.07,441.18l.06-.44.08-.44.1-.43.14-.43.16-.41.18-.41.21-.39.24-.38.26-.36.28-.35.3-.32.32-.31.34-.29.36-.26.37-.24.39-.22.4-.2.42-.16.42-.14.43-.12.44-.09.44-.06.44,0h.45l.44,0,.44.06.44.07.43.11.43.14.41.16.41.18.39.21.38.24.36.26.34.28.33.3.31.32.29.34.26.36.24.37.22.39.19.4.17.42.14.42.12.43.08.43.06.45,0,.44v.44l0,.45-.06.44-.08.44-.1.43-.14.43-.16.41-.18.41-.21.39-.24.38-.26.36-.28.34-.3.33-.32.31-.34.29-.36.26-.37.24-.39.22-.4.19-.42.17-.42.14-.43.12-.44.08-.44.06-.44,0H198l-.44,0-.44,0-.44-.08-.43-.1-.43-.14-.41-.16-.41-.18-.39-.22-.38-.23-.36-.26-.35-.28-.32-.3-.31-.32-.29-.34-.26-.36-.24-.38-.22-.38-.19-.41-.17-.41-.14-.42-.12-.43-.08-.44-.06-.44,0-.44v-.45Z" transform="translate(-11.76 -33.5)"/><path class="cls-1" d="M1082.09,371.36l-.31-.14-.3-.15-.51-.22-.5-.23-.32-.13-.31-.13-.52-.19-.51-.2-.33-.1-.31-.11-.53-.16-.53-.16-.33-.09-.32-.09-.54-.12-.54-.13-.33-.07-.33-.07-.55-.09-.54-.09-.34,0-.33-.06-.55,0-.55-.06-.34,0-.33,0-.55,0-.56,0h-.67l-85.25-.47-1.78.06-1.77.17-1.76.28-1.74.39-1.71.49-1.68.61-1.63.7-1.59.81-1.53.91-1.47,1-1.41,1.09-1.33,1.18-1.26,1.26-1.18,1.33-1.09,1.41-1,1.47-.91,1.53-.81,1.59-.71,1.64-.6,1.67-.5,1.71-.38,1.74L956,392.7l-.17,1.77-.06,1.78L956.3,566m-.49,221.84.06,1.78.17,1.77.28,1.76.38,1.74.5,1.71.6,1.68.71,1.63.81,1.59.91,1.53,1,1.47,1.09,1.41,1.18,1.33,1.26,1.26,1.33,1.18,1.41,1.09,1.47,1,1.53.91,1.59.81,1.63.71,1.68.6,1.71.5,1.74.38,1.76.28,1.77.17,1.78.06h414.75l1.78-.06,1.77-.17,1.76-.28,1.74-.38,1.71-.5,1.68-.6,1.63-.71,1.59-.81,1.53-.91,1.47-1,1.41-1.09,1.33-1.18,1.27-1.26,1.17-1.33,1.09-1.41,1-1.47.91-1.53.81-1.59.71-1.63.6-1.68.5-1.71.39-1.74.27-1.76.17-1.77.06-1.78V561l-.06-1.78-.17-1.77-.27-1.76-.39-1.74-.5-1.71-.6-1.68-.71-1.63-.81-1.59-.91-1.53-1-1.47-1.09-1.41-1.17-1.34-1.27-1.25-1.33-1.18-1.41-1.09-1.47-1-1.53-.91-1-.52-105.72-52.75m11.2,49.32,0-.44.08-.44.11-.43.13-.42.16-.42.19-.4.21-.39.23-.38.26-.36.28-.35.31-.33.32-.3.34-.29.36-.27.37-.24.39-.22.4-.19.41-.17.42-.14.43-.11.44-.09.44-.06.45,0h.44l.45,0,.44.05.44.08.43.11.42.13.42.16.4.19.39.21.38.23.36.26.35.28.33.31.3.32.29.34.27.36.24.37.22.39.19.4.17.41.14.42.11.43.09.44.06.44,0,.45V533l0,.45,0,.44-.08.44-.11.43-.13.42-.16.42-.19.4-.21.39-.23.38-.26.36-.28.35-.31.33-.32.3-.34.29-.36.27-.37.24-.39.22-.4.19-.41.17-.42.14-.43.11-.44.09-.44.06-.45,0H1324l-.45,0-.44,0-.44-.08-.43-.11-.42-.13-.42-.16-.4-.19-.39-.21-.38-.23-.36-.26-.35-.28-.33-.31-.3-.32-.29-.34-.27-.36-.24-.37-.22-.39-.19-.4-.17-.41-.14-.42-.11-.43-.09-.44-.06-.44,0-.45v-.44Zm-182.65-91.06,0-.44.08-.44.11-.43.13-.43.16-.41.19-.41.21-.39.23-.38.26-.36.28-.35.3-.32.33-.31.34-.29.35-.26.38-.24.39-.22.4-.2.41-.16.42-.14.43-.12.44-.09.44-.06.44,0h.45l.44,0,.45.06.43.07.44.11.42.14.42.16.4.18.39.21.38.24.36.26.35.28.33.3.3.32.29.34.27.36.24.37.21.39.2.4.17.42.14.42.11.43.09.43.06.45,0,.44v.44l0,.45,0,.44-.08.44-.11.43-.13.43-.16.41-.19.41-.21.39-.24.38-.25.36-.28.34-.31.33-.32.31-.34.29-.36.26-.37.24-.39.22-.4.19-.41.17-.42.14-.43.12-.44.08-.44.06-.45,0h-.44l-.45,0-.44,0-.44-.08-.43-.1-.42-.14-.42-.16-.4-.18-.39-.22-.38-.23-.37-.26-.34-.28-.33-.3-.31-.32-.28-.34-.27-.36-.24-.38-.22-.38-.19-.41-.17-.41-.14-.42-.11-.43-.09-.44-.06-.44,0-.44v-.45Z" transform="translate(-11.76 -33.5)"/></g><g id="Layer_7" data-name="Layer 7"><path class="cls-1" d="M484.8,789.16l.06,1.78.17,1.77.28,1.76.38,1.74.5,1.71.6,1.68.71,1.63.81,1.59.91,1.53,1,1.47,1.09,1.41,1.18,1.34,1.26,1.26,1.33,1.17,1.41,1.1,1.47,1,1.53.9,1.59.81,1.63.71,1.68.6,1.71.5,1.74.39,1.76.27,1.77.17,1.78.06H927.9l1.78-.06,1.77-.17,1.76-.27,1.74-.39,1.71-.5,1.68-.6,1.63-.71,1.59-.81,1.53-.9,1.47-1L946,811l1.34-1.17,1.26-1.26,1.17-1.34,1.09-1.41,1-1.47.91-1.53.81-1.59.71-1.63.6-1.68.5-1.71.39-1.74.27-1.76.17-1.77.06-1.78V562.39l-.06-1.78-.17-1.77-.27-1.76-.39-1.74-.5-1.71-.6-1.67-.71-1.64-.81-1.59-.91-1.53-1-1.47-1.09-1.41L948.57,543l-1.26-1.26L946,540.55l-1.41-1.09-1.47-1-1.53-.91-1-.51L611,372.26l-.3-.14-.3-.16-.51-.22-.5-.23-.32-.12-.31-.13-.52-.19-.51-.2-.33-.1-.31-.12-.53-.15-.53-.17-.33-.08-.32-.09-.54-.12-.54-.14-.33-.06-.33-.07-.55-.09-.54-.1-.34,0-.33-.05-.55-.05-.55-.07-.34,0-.33,0-.56,0-.55,0H513.15l-1.78.05-1.77.17-1.76.28-1.74.39-1.71.49-1.68.61-1.63.7-1.59.81-1.53.91-1.47,1-1.41,1.09L493.75,377l-1.26,1.26-1.18,1.33L490.22,381l-1,1.47-.91,1.54-.81,1.58-.71,1.64-.6,1.67-.5,1.71-.38,1.74-.28,1.76-.17,1.77-.06,1.78m-.25,60L484,563.74m362.1-30.13.05-.45.08-.43.11-.44.13-.42.16-.42.19-.4.21-.39.23-.38.26-.36.28-.35.31-.32.32-.31.34-.29.36-.26.37-.25.39-.21.4-.2.41-.16.42-.15.43-.11.44-.09.44-.06.45,0h.44l.45,0,.44.05.44.08.43.11.42.13.42.16.4.19.39.21.38.24.36.25.35.29.33.3.3.32.29.34.27.36.24.37.22.39.19.4.17.41.14.43.11.43.09.43.06.44,0,.45v.44l0,.45,0,.44-.08.44-.11.43-.13.42-.16.42-.19.4-.21.4-.23.37-.26.37-.28.34-.31.33-.32.31-.34.28-.36.27-.37.24-.39.22-.4.19-.41.17-.42.14-.43.11-.44.09-.44.06-.45,0H853l-.45,0-.44,0-.44-.08-.43-.11-.42-.13-.42-.16-.4-.19-.39-.21-.38-.23-.36-.26-.35-.28-.33-.3-.3-.33-.29-.34-.27-.35-.24-.38-.22-.39-.19-.4-.17-.41-.14-.42-.11-.43-.09-.44-.06-.44,0-.44v-.45ZM663.41,442.54l.05-.44.08-.44.11-.43.13-.43.16-.41.19-.41.21-.39.23-.38.26-.36.28-.34.3-.33.33-.31.34-.29.35-.26.38-.24.39-.22.4-.19.41-.17.42-.14.43-.12.44-.08.44-.06.44,0h.45l.44,0,.45.06.43.08.44.1.42.14.42.16.4.18.39.21.38.24.36.26.35.28.33.3.3.32.29.34.27.36.24.38.21.38.2.4.17.42.14.42.11.43.09.44.06.44,0,.44v.45l0,.44,0,.44-.08.44-.11.43-.13.43-.16.41-.19.41-.21.39-.24.38-.25.36-.28.35-.31.32-.32.31-.34.29-.36.26-.37.24-.39.22-.4.19-.41.17-.42.14-.43.12-.44.08-.44.06-.45,0h-.44l-.45,0-.44-.06-.44-.08-.43-.1-.42-.14-.42-.16-.4-.18-.39-.21-.38-.24-.37-.26-.34-.28-.33-.3-.31-.32-.28-.34-.27-.36-.24-.37-.22-.39L664,446l-.17-.42-.14-.42-.11-.43-.09-.43-.06-.45,0-.44V443Z" transform="translate(-11.76 -33.5)"/></g><g id="Layer_6" data-name="Layer 6"><path class="cls-1" d="M956.2,291l0,1.78.17,1.77.28,1.76.39,1.74.49,1.71.61,1.68.71,1.63.8,1.59.91,1.53,1,1.47,1.09,1.41,1.18,1.34,1.26,1.25,1.34,1.18,1.4,1.09,1.48,1,1.53.91,1,.51,329.55,164.78.31.14.3.16.51.22.5.23.32.12.3.13.52.19.52.2.32.1.32.12.53.15.53.17.33.08.32.09.54.13.54.13.33.06.33.07.54.09.55.1.33,0,.34.05.55.05.55.07.33,0,.34,0,.55,0,.55,0h.34l.34,0h85.2l1.78-.06,1.77-.17,1.76-.28,1.74-.39,1.71-.49,1.67-.61,1.64-.7,1.58-.81,1.53-.91,1.48-1,1.4-1.09,1.34-1.18,1.26-1.26,1.18-1.33,1.09-1.41,1-1.47.91-1.54.8-1.58.71-1.64.61-1.67.49-1.71.39-1.74.28-1.76.17-1.77.05-1.78V64.26l-.05-1.78-.17-1.77-.28-1.76-.39-1.74-.49-1.71-.61-1.68-.71-1.63-.8-1.59-.91-1.53-1-1.47-1.09-1.41L1420,44.85l-1.26-1.25-1.34-1.18-1.4-1.09-1.48-1-1.53-.91-1.58-.81-1.64-.71-1.67-.6-1.71-.5-1.74-.39-1.76-.27-1.77-.17-1.78-.06H984.54l-1.78.06-1.77.17-1.76.27-1.74.39-1.71.5-1.67.6-1.64.71-1.58.81-1.53.91-1.48,1-1.4,1.09-1.34,1.18-1.26,1.25-1.18,1.34-1.09,1.41-1,1.47-.91,1.53-.8,1.59-.71,1.63-.61,1.68-.49,1.71L956.7,59l-.28,1.76-.17,1.77,0,1.78m111.5,255.55-.06.45-.07.43-.11.44-.14.42-.16.42-.18.4-.21.39-.24.38-.26.36-.28.35-.3.33-.32.3-.34.29-.36.27-.37.24-.39.22-.4.19-.42.17-.42.14-.43.11-.43.09-.45.06-.44,0h-.44l-.45,0-.44,0-.44-.08-.43-.11-.43-.13-.41-.16-.41-.19-.39-.21-.38-.24-.36-.25-.34-.28-.33-.31-.31-.32-.29-.34-.26-.36-.24-.37-.22-.39-.19-.4-.17-.41-.14-.42-.12-.43-.08-.44-.06-.44,0-.45v-.44l0-.45.06-.44.08-.44.1-.43.14-.42.16-.42.18-.4.21-.39.24-.38.26-.37.28-.34.3-.33.32-.31.34-.28.36-.27.38-.24.38-.22.4-.19.42-.17.42-.14.43-.11.44-.09.44-.06.44,0h.45l.44,0,.44.05.44.08.43.11.43.13.41.16.41.19.39.21.38.23.36.26.35.28.32.3.31.33.29.34.26.35.24.38.22.39.19.4.17.41.14.42.12.43.09.44.06.44,0,.44v.45Zm182.65,91.07,0,.44-.08.44-.11.43-.13.43-.17.41-.18.41-.21.39-.24.38-.26.36-.28.35-.3.32-.32.31-.34.29-.36.26-.37.24-.39.22-.4.19-.41.17-.43.14-.43.12-.43.09-.44.05-.45,0h-.44l-.45,0-.44-.06-.44-.08-.43-.1-.43-.14-.41-.16-.41-.18-.39-.21-.37-.24-.37-.26-.34-.28-.33-.3L1238,415l-.28-.34-.27-.36-.24-.37-.22-.39-.19-.4-.17-.42-.14-.42-.12-.43-.08-.43-.06-.45,0-.44v-.45l0-.44,0-.44.08-.44.1-.43.14-.43.16-.41.18-.41.22-.39.23-.38.26-.36.28-.34.3-.33.32-.31.34-.29.36-.26.38-.24.38-.22.41-.19.41-.17.42-.14.43-.12.44-.08.44-.06.44,0h.45l.44,0,.44.06.44.08.43.1.43.14.41.16.41.18.39.21.38.24.36.26.35.28.32.3.31.32.29.34.26.36.24.38.22.38.2.4.16.42.14.42.12.43.09.44.06.44,0,.44v.45Z" transform="translate(-11.76 -33.5)"/></g><g id="Layer_5" data-name="Layer 5"><path class="cls-1" d="M956,394.47V62.56l0-1.78L955.82,59l-.28-1.75-.39-1.74-.49-1.71-.61-1.68-.71-1.63-.8-1.59-.91-1.53-1-1.47-1.09-1.41-1.18-1.34-1.26-1.26-1.34-1.17-1.4-1.1-1.48-1-1.53-.9-1.58-.81-1.64-.71-1.67-.6-1.71-.5L933,34.71l-1.76-.28-1.77-.16-1.78-.06H512.94l-1.78.06-1.77.16-1.76.28-1.74.39-1.71.5-1.67.6-1.64.71-1.58.81-1.53.9-1.48,1-1.4,1.1-1.34,1.17-1.26,1.26-1.18,1.34L490,45.9l-1,1.47-.91,1.53-.8,1.59-.71,1.63L486,53.8l-.49,1.71-.39,1.74L484.82,59l-.17,1.78,0,1.78M826.89,480l.31.14.3.15.51.22.5.24.32.12.31.13.52.19.51.2.32.1.32.11.53.16.53.17.33.08.32.09.54.12.54.14.33.06.33.07.54.09.55.1.33,0,.34,0,.55.05.55.07h.33l.34,0h.55l.56,0h.67l88.13-.54,1.78-.05,1.77-.17L933,482l1.74-.39,1.71-.49,1.67-.61,1.64-.7,1.58-.81,1.53-.91,1.48-1,1.4-1.09,1.34-1.18,1.26-1.26,1.18-1.33,1.09-1.41,1-1.47.91-1.54.8-1.58.71-1.64.61-1.67.49-1.71.39-1.74.28-1.76.17-1.77,0-1.78M484.6,289.33l0,1.78.17,1.77.28,1.76.39,1.74.49,1.71.61,1.67.71,1.64.8,1.58.91,1.54,1,1.47,1.09,1.41,1.18,1.33,1.26,1.26,1.34,1.18,1.4,1.09,1.48,1,1.53.91,1,.51L611,372.26m-16.23-54.15-.06.44-.08.44-.1.43-.14.43-.16.41-.18.41-.21.39-.24.38-.26.36-.28.35-.3.32-.32.31-.34.29-.36.26-.37.25-.39.21-.4.2-.42.16-.42.14-.43.12-.43.09-.45.06-.44,0h-.45l-.44,0-.44-.05-.44-.08-.43-.11-.43-.13L585,324l-.41-.19-.39-.21-.38-.24-.36-.26-.34-.28-.33-.3-.31-.32-.29-.34-.26-.36-.24-.37-.22-.39-.19-.4-.17-.41-.14-.43-.12-.43-.08-.43-.06-.44,0-.45v-.44l0-.45.06-.44.08-.44.1-.43.14-.43.16-.41.18-.41.21-.39.24-.37.26-.37.28-.34.3-.33.32-.31.34-.28.36-.27.38-.24.38-.22.4-.19.42-.17.42-.14.43-.12.44-.08.44-.06.44,0h.45l.44,0,.44.05.44.08.43.1.43.14.41.16.41.18.39.22.38.23.36.26.35.28.32.3.31.32.29.34.26.36.24.38.22.38.19.41.17.41.14.42.12.43.08.44.06.44,0,.44v.45Zm182.65,91.07-.05.44-.08.44-.11.43-.13.43-.17.41-.18.41-.21.39-.24.38-.26.36-.28.34-.3.33-.32.31-.34.28-.36.27-.37.24-.39.22-.4.19-.41.17-.43.14-.43.12-.43.08-.44.06-.45,0h-.44l-.45,0-.44-.05-.44-.08-.43-.1-.43-.14-.41-.16-.41-.18-.39-.22-.38-.23-.36-.26-.34-.28-.33-.3-.31-.32-.28-.34-.27-.36-.24-.38-.22-.38-.19-.41-.17-.41-.14-.42-.12-.43-.08-.44-.06-.44,0-.44v-.45l0-.44,0-.44.08-.44.1-.43.14-.43.16-.41.18-.41.22-.39.23-.38.26-.36.28-.35.3-.32.32-.31L766,403l.36-.26.38-.24.38-.22.41-.2.41-.16.42-.14.43-.12.44-.09.44-.06.44,0h.45l.44,0,.44.05.44.08.43.11.43.14.41.16.41.18.39.21.38.24.36.26.35.28.32.3.31.32.29.34.26.36.24.37.22.39.2.4.16.41.14.43.12.43.09.43.06.45,0,.44v.44Z" transform="translate(-11.76 -33.5)"/></g><g id="Layer_4" data-name="Layer 4"><path class="cls-1" d="M358.39,481.16l.31.14.3.16.5.22.51.23.31.12.31.13.52.19.52.2.32.1.32.12.53.15.52.17.33.08.33.09.54.13.53.13.33.06.33.07.55.09.54.1.34,0,.33.05.55.05.55.07.34,0,.34,0,.55,0,.55,0h.34l.34,0h85.19l1.78-.06,1.77-.17,1.76-.28,1.74-.39,1.71-.49,1.68-.61,1.63-.7,1.59-.81,1.53-.91,1.47-1,1.41-1.09,1.34-1.18,1.26-1.26,1.17-1.33,1.09-1.41,1-1.47.9-1.54.81-1.58.71-1.64.6-1.67.5-1.71.39-1.74.27-1.76.17-1.77.06-1.78V64.26l-.06-1.78-.17-1.77L484.11,59l-.39-1.74-.5-1.71-.6-1.68-.71-1.63-.81-1.59-.9-1.53-1-1.47-1.09-1.41-1.17-1.34-1.26-1.25-1.34-1.18-1.41-1.09-1.47-1-1.53-.91-1.59-.81-1.63-.71L465,37.3l-1.71-.5-1.74-.39-1.76-.27L458,36l-1.78-.06H41.51L39.73,36,38,36.14l-1.76.27-1.74.39-1.71.5-1.67.6-1.64.71-1.59.81-1.53.91-1.47,1-1.41,1.09L22.11,43.6l-1.26,1.25-1.18,1.34L18.58,47.6l-1,1.47-.91,1.53-.81,1.59-.71,1.63-.6,1.68-.5,1.71L13.67,59l-.28,1.76-.17,1.77-.06,1.78V291l.06,1.78.17,1.77.28,1.76.38,1.74.5,1.71.6,1.68.71,1.63.81,1.59.91,1.53,1,1.47,1.09,1.41,1.18,1.34,1.26,1.25,1.33,1.18L24.85,314l1.47,1,1.53.91,1,.51,103.69,52.29m-9.17-48.86,0,.45-.08.43-.11.44-.13.42-.16.42-.19.4-.21.39-.23.38-.26.36-.28.35-.3.33-.33.3-.34.29-.35.27-.38.24-.39.22-.4.19-.41.17-.42.14-.43.11-.44.09-.44.06-.44,0h-.45l-.44,0-.45,0-.43-.08-.44-.11-.42-.13-.42-.16-.4-.19-.39-.21-.38-.24-.36-.25-.35-.28-.33-.31-.3-.32-.29-.34-.26-.36-.25-.37-.21-.39-.2-.4-.16-.41-.15-.42-.11-.43-.09-.44-.06-.44,0-.45v-.44l0-.45,0-.44.08-.44.11-.43.13-.42.16-.42.19-.4.21-.39.24-.38.25-.37.29-.34.3-.33.32-.31.34-.28.36-.27.37-.24.39-.22.4-.19.41-.17.43-.14.43-.11.43-.09.44-.06.45,0h.44l.45,0,.44.05.44.08.43.11.42.13.42.16.4.19.4.21.37.23.37.26.34.28.33.3.31.33.28.34.27.35.24.38.22.39.19.4.17.41.14.42.11.43.09.44.06.44,0,.44v.45ZM306,410.88l-.05.44-.08.44-.11.43-.13.43-.16.41-.19.41-.21.39-.23.38-.26.36-.28.35-.3.32-.32.31-.35.29-.35.26-.38.24-.38.22-.41.19-.41.17-.42.14-.43.12-.44.09-.44.05-.44,0h-.45l-.44,0-.44-.06-.44-.08-.43-.1-.43-.14-.41-.16-.41-.18-.39-.21-.38-.24-.36-.26-.35-.28-.32-.3-.31-.32-.29-.34-.26-.36-.25-.37-.21-.39-.2-.4-.16-.42-.15-.42-.11-.43-.09-.43-.06-.45,0-.44v-.45l0-.44.05-.44.08-.44.11-.43.13-.43.16-.41.19-.41.21-.39.24-.38.26-.36.28-.34.3-.33.32-.31.34-.29.36-.26.37-.24.39-.22.4-.19.41-.17.43-.14.43-.12.43-.08.44-.06.45,0h.44l.45,0,.44.06.44.08.43.1.43.14.41.16.4.18.4.21.37.24.37.26.34.28.33.3.31.32.28.34.27.36.24.38.22.38.19.4.17.42.14.42.11.43.09.44.06.44,0,.44v.45Z" transform="translate(-11.76 -33.5)"/></g></svg>