<?xml version="1.0" standalone="no"?>
<!DOCTYPE svg PUBLIC "-//W3C//DTD SVG 1.1//EN" "http://www.w3.org/Graphics/SVG/1.1/DTD/svg11.dtd">
<svg width="159mm" height="173mm" viewBox="-69 -127 159 173" xmlns="http://www.w3.org/2000/svg" version="1.1">
<title>OpenSCAD Model</title>
<path d="
M 80.6279,45.9803 L 81.2533,45.9211 L 81.8738,45.8229 L 82.4869,45.6858 L 83.0902,45.5106 L 83.6812,45.2978
 L 84.2578,45.0483 L 84.8175,44.7631 L 85.3583,44.4433 L 85.8779,44.0902 L 86.3742,43.7051 L 86.8455,43.2897
 L 87.2897,42.8455 L 87.7051,42.3742 L 88.0902,41.8779 L 88.4433,41.3583 L 88.7631,40.8175 L 89.0483,40.2578
 L 89.2978,39.6812 L 89.5106,39.0902 L 89.6858,38.4869 L 89.8229,37.8738 L 89.9211,37.2533 L 89.9803,36.6279
 L 90,36 L 90,-116.26 L 89.9803,-116.888 L 89.9211,-117.513 L 89.8229,-118.134 L 89.6858,-118.747
 L 89.5106,-119.35 L 89.2978,-119.941 L 89.0483,-120.518 L 88.7631,-121.078 L 88.4433,-121.618 L 88.0902,-122.138
 L 87.7051,-122.634 L 87.2897,-123.105 L 86.8455,-123.55 L 86.3742,-123.965 L 85.8779,-124.35 L 85.3583,-124.703
 L 84.8175,-125.023 L 84.2578,-125.308 L 83.6812,-125.558 L 83.0902,-125.771 L 82.4869,-125.946 L 81.8738,-126.083
 L 81.2533,-126.181 L 80.6279,-126.24 L 80,-126.26 L 0,-126.26 L -0.627899,-126.24 L -1.25333,-126.181
 L -1.87381,-126.083 L -2.48689,-125.946 L -3.09016,-125.771 L -3.68124,-125.558 L -4.2578,-125.308 L -4.81754,-125.023
 L -5.35826,-124.703 L -5.87785,-124.35 L -6.37424,-123.965 L -6.84547,-123.55 L -7.28969,-123.105 L -7.70514,-122.634
 L -8.09016,-122.138 L -8.44328,-121.618 L -8.76306,-121.078 L -8.94427,-120.732 L -67.0743,-4.47214 L -67.1243,-4.36378
 L -67.1783,-4.2578 L -67.2556,-4.07904 L -67.3374,-3.9017 L -67.3805,-3.79047 L -67.4277,-3.68124 L -67.4937,-3.49794
 L -67.5642,-3.31586 L -67.6003,-3.2021 L -67.6405,-3.09016 L -67.6949,-2.90308 L -67.7538,-2.71693 L -67.7826,-2.60129
 L -67.8158,-2.48689 L -67.8584,-2.29659 L -67.9054,-2.10728 L -67.9269,-1.99005 L -67.9529,-1.87381 L -67.9834,-1.6812
 L -68.0185,-1.48932 L -68.0325,-1.37093 L -68.0511,-1.25333 L -68.0695,-1.05931 L -68.0925,-0.865479 L -68.099,-0.746506
 L -68.1103,-0.627899 L -68.1164,-0.432892 L -68.1272,-0.23822 L -68.1263,-0.119141 L -68.13,-0 L -68.13,36
 L -68.1103,36.6279 L -68.0511,37.2533 L -67.9529,37.8738 L -67.8158,38.4869 L -67.6405,39.0902 L -67.4277,39.6812
 L -67.1783,40.2578 L -66.8931,40.8175 L -66.5733,41.3583 L -66.2202,41.8779 L -65.8351,42.3742 L -65.4197,42.8455
 L -64.9755,43.2897 L -64.5042,43.7051 L -64.0078,44.0902 L -63.4883,44.4433 L -62.9475,44.7631 L -62.3878,45.0483
 L -61.8112,45.2978 L -61.2202,45.5106 L -60.6169,45.6858 L -60.0038,45.8229 L -59.3833,45.9211 L -58.7579,45.9803
 L -58.13,46 L 80,46 z
M -10.1543,-87.3878 L -10.3103,-87.4061 L -10.4648,-87.4342 L -10.6172,-87.472 L -10.767,-87.5192 L -10.9136,-87.5757
 L -11.0562,-87.6414 L -11.1945,-87.7158 L -11.3279,-87.7988 L -11.4557,-87.89 L -11.5776,-87.9891 L -11.693,-88.0956
 L -11.8015,-88.2091 L -11.9027,-88.3292 L -11.9961,-88.4555 L -12.0814,-88.5874 L -12.1583,-88.7243 L -12.2264,-88.8658
 L -12.2855,-89.0114 L -12.3353,-89.1603 L -12.3757,-89.3121 L -12.4064,-89.4661 L -12.4275,-89.6217 L -12.4387,-89.7784
 L -12.4401,-89.9354 L -12.4316,-90.0922 L -12.4133,-90.2482 L -12.3852,-90.4027 L -12.3475,-90.5552 L -12.3002,-90.705
 L -12.2437,-90.8515 L -12.1781,-90.9942 L -12.1036,-91.1325 L -12.0206,-91.2658 L -11.9294,-91.3936 L -11.8304,-91.5155
 L -11.7239,-91.631 L -11.6103,-91.7395 L -11.4902,-91.8406 L -11.3639,-91.9341 L -11.2321,-92.0193 L -11.0951,-92.0962
 L -10.9536,-92.1643 L -10.8081,-92.2234 L -10.6591,-92.2733 L -10.5074,-92.3136 L -10.3533,-92.3444 L -10.1977,-92.3654
 L -10.0411,-92.3767 L -9.88402,-92.378 L -9.7272,-92.3696 L -9.57121,-92.3512 L -9.4167,-92.3232 L -9.26424,-92.2854
 L -9.11446,-92.2382 L -8.96793,-92.1816 L -8.82524,-92.116 L -8.68698,-92.0416 L -8.55363,-91.9586 L -8.42578,-91.8674
 L -8.30389,-91.7683 L -8.18848,-91.6618 L -8.07997,-91.5483 L -7.97882,-91.4281 L -7.88539,-91.3019 L -7.80009,-91.17
 L -7.72322,-91.0331 L -7.65512,-90.8915 L -7.59602,-90.746 L -7.54619,-90.5971 L -7.50581,-90.4453 L -7.47504,-90.2913
 L -7.45399,-90.1357 L -7.44276,-89.979 L -7.44141,-89.822 L -7.44989,-89.6651 L -7.4682,-89.5092 L -7.49629,-89.3546
 L -7.53403,-89.2022 L -7.58124,-89.0524 L -7.63779,-88.9059 L -7.7034,-88.7632 L -7.77788,-88.6249 L -7.86086,-88.4916
 L -7.95207,-88.3637 L -8.05112,-88.2418 L -8.15762,-88.1264 L -8.27118,-88.0179 L -8.39131,-87.9168 L -8.51755,-87.8233
 L -8.64941,-87.738 L -8.78638,-87.6612 L -8.9279,-87.5931 L -9.07341,-87.534 L -9.22235,-87.4841 L -9.37411,-87.4438
 L -9.52814,-87.413 L -9.68378,-87.3919 L -9.84042,-87.3807 L -9.99747,-87.3793 z
M -42.2805,-22.9526 L -42.4365,-22.9709 L -42.591,-22.999 L -42.7435,-23.0367 L -42.8933,-23.0839 L -43.0398,-23.1405
 L -43.1825,-23.2061 L -43.3208,-23.2805 L -43.4541,-23.3635 L -43.5819,-23.4547 L -43.7038,-23.5538 L -43.8193,-23.6603
 L -43.9277,-23.7738 L -44.0289,-23.894 L -44.1223,-24.0202 L -44.2076,-24.1521 L -44.2845,-24.289 L -44.3526,-24.4306
 L -44.4117,-24.5761 L -44.4615,-24.725 L -44.5019,-24.8768 L -44.5327,-25.0308 L -44.5537,-25.1864 L -44.565,-25.3431
 L -44.5663,-25.5001 L -44.5578,-25.657 L -44.5395,-25.813 L -44.5114,-25.9675 L -44.4737,-26.1199 L -44.4265,-26.2697
 L -44.3699,-26.4162 L -44.3043,-26.5589 L -44.2299,-26.6972 L -44.1469,-26.8305 L -44.0556,-26.9584 L -43.9566,-27.0803
 L -43.8501,-27.1957 L -43.7366,-27.3042 L -43.6164,-27.4054 L -43.4902,-27.4988 L -43.3583,-27.5841 L -43.2213,-27.6609
 L -43.0798,-27.7291 L -42.9343,-27.7881 L -42.7854,-27.838 L -42.6336,-27.8784 L -42.4796,-27.9091 L -42.324,-27.9302
 L -42.1673,-27.9414 L -42.0103,-27.9428 L -41.8534,-27.9343 L -41.6974,-27.916 L -41.5429,-27.8879 L -41.3905,-27.8501
 L -41.2407,-27.8029 L -41.0942,-27.7464 L -40.9515,-27.6808 L -40.8132,-27.6063 L -40.6799,-27.5233 L -40.552,-27.4321
 L -40.4301,-27.3331 L -40.3147,-27.2266 L -40.2062,-27.113 L -40.1051,-26.9929 L -40.0116,-26.8666 L -39.9263,-26.7348
 L -39.8495,-26.5978 L -39.7814,-26.4563 L -39.7223,-26.3108 L -39.6724,-26.1618 L -39.632,-26.0101 L -39.6013,-25.856
 L -39.5802,-25.7004 L -39.569,-25.5438 L -39.5676,-25.3867 L -39.5761,-25.2299 L -39.5944,-25.0739 L -39.6225,-24.9194
 L -39.6603,-24.7669 L -39.7075,-24.6171 L -39.764,-24.4706 L -39.8297,-24.3279 L -39.9041,-24.1897 L -39.9871,-24.0563
 L -40.0783,-23.9285 L -40.1774,-23.8066 L -40.2839,-23.6912 L -40.3974,-23.5827 L -40.5175,-23.4815 L -40.6438,-23.3881
 L -40.7757,-23.3028 L -40.9126,-23.2259 L -41.0541,-23.1578 L -41.1996,-23.0987 L -41.3486,-23.0489 L -41.5004,-23.0085
 L -41.6544,-22.9777 L -41.81,-22.9567 L -41.9667,-22.9454 L -42.1237,-22.9441 z
" stroke="black" fill="lightgray" stroke-width="0.5"/>
</svg>
