<?xml version="1.0" standalone="no"?>
<!DOCTYPE svg PUBLIC "-//W3C//DTD SVG 1.1//EN"
  "http://www.w3.org/Graphics/SVG/1.1/DTD/svg11.dtd">
<svg width="29.5mm" height="132mm" viewBox="-66.5 -83 29.5 132" xmlns="http://www.w3.org/2000/svg" version="1.1">
	<title>svgOutput</title>
	<desc>made with tinkercad</desc>
<path d="M -65.5 48 L -65.5 -82 L -61.77799987792969 -82 L -60.952999114990234 -82 L -57.74700164794922 -82 L -57.551998138427734 -82 L -52.448001861572266 -82 L -45.553001403808594 -82 L -42.347999572753906 -82 L -38 -82 L -38 -52.99700164794922 L -38 -6.998000144958496 L -38 30.003000259399414 L -38 46.50299835205078 L -38 48 L -56.25299835205078 48 L -57.551998138427734 48 L -60.952999114990234 48 L -61.77799987792969 48 L -65.5 48 M -57.428001403808594 43.55400085449219 L -57.551998138427734 44.25 L -57.428001403808594 44.94599914550781 L -57.34400177001953 45.09132385253906 L -57.064998626708984 45.57400131225586 L -56.5 46.071998596191406 L -56.25299835205078 46.18316650390625 L -55.78900146484375 46.391998291015625 L -55 46.50299835205078 L -54.21099853515625 46.391998291015625 L -53.5 46.071998596191406 L -53.24800109863281 45.849884033203125 L -52.935001373291016 45.57400131225586 L -52.571998596191406 44.94599914550781 L -52.448001861572266 44.25 L -52.571998596191406 43.55400085449219 L -52.935001373291016 42.92599868774414 L -53.24800109863281 42.650115966796875 L -53.5 42.428001403808594 L -54.21099853515625 42.108001708984375 L -55 41.99800109863281 L -55.78900146484375 42.108001708984375 L -56.25299835205078 42.31683349609375 L -56.5 42.428001403808594 L -57.064998626708984 42.92599868774414 L -57.34400177001953 43.40867614746094 L -57.428001403808594 43.55400085449219 M -53.5 -76.4280014038086 L -53.24800109863281 -76.65011596679688 L -52.935001373291016 -76.9260025024414 L -52.571998596191406 -77.55400085449219 L -52.448001861572266 -78.25 L -52.571998596191406 -78.94599914550781 L -52.935001373291016 -79.5739974975586 L -53.24800109863281 -79.84988403320312 L -53.5 -80.0719985961914 L -54.21099853515625 -80.39199829101562 L -55 -80.50299835205078 L -55.78900146484375 -80.39199829101562 L -56.5 -80.0719985961914 L -57.064998626708984 -79.5739974975586 L -57.34400177001953 -79.09132385253906 L -57.428001403808594 -78.94599914550781 L -57.551998138427734 -78.25 L -57.428001403808594 -77.55400085449219 L -57.34400177001953 -77.40867614746094 L -57.064998626708984 -76.9260025024414 L -56.5 -76.4280014038086 L -55.78900146484375 -76.10800170898438 L -55 -75.99800109863281 L -54.21099853515625 -76.10800170898438 L -53.5 -76.4280014038086 M -60.874000549316406 -9.095000267028809 L -60.952999114990234 -8.600000381469727 L -60.874000549316406 -8.104999542236328 L -60.645999908447266 -7.6579999923706055 L -60.29199981689453 -7.303999900817871 L -59.845001220703125 -7.076000213623047 L -59.391998291015625 -7.004618167877197 L -59.349998474121094 -6.998000144958496 L -58.85499954223633 -7.076000213623047 L -58.40800094604492 -7.303999900817871 L -58.05400085449219 -7.6579999923706055 L -57.82600021362305 -8.104999542236328 L -57.74700164794922 -8.600000381469727 L -57.82600021362305 -9.095000267028809 L -58.05400085449219 -9.541999816894531 L -58.40800094604492 -9.895999908447266 L -58.85499954223633 -10.12399959564209 L -59.349998474121094 -10.20300006866455 L -59.391998291015625 -10.196296691894531 L -59.845001220703125 -10.12399959564209 L -60.29199981689453 -9.895999908447266 L -60.645999908447266 -9.541999816894531 L -60.874000549316406 -9.095000267028809 M -42.42599868774414 -54.10499954223633 L -42.347999572753906 -54.599998474121094 L -42.42599868774414 -55.095001220703125 L -42.65399932861328 -55.54199981689453 L -43.007999420166016 -55.895999908447266 L -43.45500183105469 -56.124000549316406 L -43.95000076293945 -56.202999114990234 L -44.44499969482422 -56.124000549316406 L -44.891998291015625 -55.895999908447266 L -45.055999755859375 -55.731998443603516 L -45.24599838256836 -55.54199981689453 L -45.4739990234375 -55.095001220703125 L -45.553001403808594 -54.599998474121094 L -45.4739990234375 -54.10499954223633 L -45.24599838256836 -53.65800094604492 L -45.055999755859375 -53.46799850463867 L -44.891998291015625 -53.30400085449219 L -44.78221130371094 -53.24800109863281 L -44.44499969482422 -53.07600021362305 L -43.95000076293945 -52.99700164794922 L -43.45500183105469 -53.07600021362305 L -43.11779022216797 -53.24800109863281 L -43.007999420166016 -53.30400085449219 L -42.65399932861328 -53.65800094604492 L -42.42599868774414 -54.10499954223633 M -42.42599868774414 -8.104999542236328 L -42.41229248046875 -8.192000389099121 L -42.347999572753906 -8.600000381469727 L -42.42599868774414 -9.095000267028809 L -42.65399932861328 -9.541999816894531 L -43.007999420166016 -9.895999908447266 L -43.45500183105469 -10.12399959564209 L -43.95000076293945 -10.20300006866455 L -44.44499969482422 -10.12399959564209 L -44.891998291015625 -9.895999908447266 L -45.24599838256836 -9.541999816894531 L -45.4739990234375 -9.095000267028809 L -45.553001403808594 -8.600000381469727 L -45.487884521484375 -8.192000389099121 L -45.4739990234375 -8.104999542236328 L -45.24599838256836 -7.6579999923706055 L -44.891998291015625 -7.303999900817871 L -44.44499969482422 -7.076000213623047 L -43.95000076293945 -6.998000144958496 L -43.45500183105469 -7.076000213623047 L -43.007999420166016 -7.303999900817871 L -42.65399932861328 -7.6579999923706055 L -42.42599868774414 -8.104999542236328 M -53.48699951171875 29.80699920654297 L -52.25 30.003000259399414 L -51.01300048828125 29.80699920654297 L -49.89699935913086 29.238000869750977 L -49.012001037597656 28.35300064086914 L -48.44300079345703 27.23699951171875 L -48.24800109863281 26 L -48.44300079345703 24.76300048828125 L -48.5383415222168 24.576000213623047 L -49.012001037597656 23.64699935913086 L -49.89699935913086 22.761999130249023 L -51.01300048828125 22.19300079345703 L -52.25 21.99799919128418 L -53.48699951171875 22.19300079345703 L -54.60300064086914 22.761999130249023 L -55.487998962402344 23.64699935913086 L -55.9616584777832 24.576000213623047 L -56.05699920654297 24.76300048828125 L -56.25299835205078 26 L -56.05699920654297 27.23699951171875 L -55.487998962402344 28.35300064086914 L -54.60300064086914 29.238000869750977 L -53.48699951171875 29.80699920654297 M -60.29199981689453 -53.30400085449219 L -60.18220901489258 -53.24800109863281 L -59.845001220703125 -53.07600021362305 L -59.349998474121094 -52.99700164794922 L -58.85499954223633 -53.07600021362305 L -58.51778793334961 -53.24800109863281 L -58.40800094604492 -53.30400085449219 L -58.05400085449219 -53.65800094604492 L -57.82600021362305 -54.10499954223633 L -57.74700164794922 -54.599998474121094 L -57.82600021362305 -55.095001220703125 L -58.05400085449219 -55.54199981689453 L -58.40800094604492 -55.895999908447266 L -58.85499954223633 -56.124000549316406 L -59.349998474121094 -56.202999114990234 L -59.391998291015625 -56.19629669189453 L -59.845001220703125 -56.124000549316406 L -60.29199981689453 -55.895999908447266 L -60.645999908447266 -55.54199981689453 L -60.874000549316406 -55.095001220703125 L -60.952999114990234 -54.599998474121094 L -60.874000549316406 -54.10499954223633 L -60.645999908447266 -53.65800094604492 L -60.29199981689453 -53.30400085449219 M -61.77799987792969 14.003000259399414 L -60.952999114990234 14.003000259399414 L -57.551998138427734 14.003000259399414 L -56.25299835205078 14.003000259399414 L -48.24800109863281 14.003000259399414 L -42.722999572753906 14.003000259399414 L -42.722999572753906 0.9980000257492067 L -48.24800109863281 0.9980000257492067 L -56.25299835205078 0.9980000257492067 L -60.952999114990234 0.9980000257492067 L -61.77799987792969 0.9980000257492067 L -61.77799987792969 14.003000259399414 z" fill="none" stroke="rgb(255,0,0)" stroke-width="0.001mm" />
</svg>