<?xml version="1.0" standalone="no"?>
<!DOCTYPE svg PUBLIC "-//W3C//DTD SVG 20010904//EN"
 "http://www.w3.org/TR/2001/REC-SVG-20010904/DTD/svg10.dtd">
<svg version="1.0" xmlns="http://www.w3.org/2000/svg"
 width="300.000000pt" height="1805.000000pt" viewBox="0 0 300.000000 1805.000000"
 preserveAspectRatio="xMidYMid meet">
<metadata>
Created by potrace 1.10, written by Peter Selinger 2001-2011
</metadata>
<g transform="translate(0.000000,1805.000000) scale(0.100000,-0.100000)"
fill="#000000" stroke="none">
<path d="M45 18038 c-3 -9 -45 -16501 -45 -17868 0 -97 3 -151 10 -144 10 10
15 925 25 4549 9 3311 20 5202 28 5179 19 -47 101 -69 145 -38 21 14 25 14 47
0 22 -14 23 -20 18 -93 -7 -117 17 -162 105 -196 57 -23 88 -21 149 7 43 21
55 32 74 74 l23 51 51 -6 c79 -8 75 -1 75 -121 0 -150 -13 -142 234 -143 267
-2 281 -6 209 -56 -37 -26 -43 -28 -43 -10 0 7 -9 21 -21 30 -20 17 -21 17
-40 -8 -25 -31 -38 -32 -65 0 l-21 24 -21 -20 c-18 -16 -22 -32 -23 -92 -1
-90 1 -121 11 -127 4 -3 7 -13 7 -22 0 -17 -23 -18 -331 -19 -182 0 -366 -1
-410 -1 -60 0 -82 -4 -96 -18 -15 -15 -17 -57 -22 -436 -3 -230 -5 -678 -4
-995 1 -547 2 -578 20 -597 10 -12 34 -22 55 -24 34 -3 36 -5 32 -33 -3 -16
-5 -69 -5 -117 -1 -77 2 -90 21 -109 21 -21 23 -21 47 -5 20 13 31 14 46 6 23
-12 19 -24 -22 -59 -65 -54 -80 -157 -34 -235 23 -40 36 -49 99 -75 22 -8 26
-15 22 -33 -3 -13 -7 -34 -8 -48 -5 -56 -15 -60 -128 -63 -95 -2 -106 -4 -122
-24 -17 -22 -18 -61 -20 -653 l-2 -629 22 -22 c19 -20 32 -22 116 -21 118 1
128 -6 134 -80 4 -55 4 -55 -26 -61 -34 -7 -91 -56 -91 -79 0 -8 -5 -19 -11
-25 -14 -14 -13 -94 1 -138 25 -75 126 -120 214 -95 64 18 101 55 120 120 9
30 22 57 29 62 8 5 5 8 -9 8 -15 0 -23 8 -26 25 -4 16 -1 25 8 25 7 0 -2 16
-19 35 -34 37 -79 65 -103 65 -10 0 -14 16 -14 60 0 70 -5 67 137 73 148 5
133 -71 133 677 0 604 -1 638 -18 653 -15 13 -39 17 -114 17 -116 0 -132 10
-141 88 -6 51 -5 53 21 64 59 23 70 31 95 71 30 45 37 120 16 174 -13 36 -68
93 -89 93 -9 0 -21 5 -27 11 -7 7 -13 7 -17 1 -3 -6 -15 -8 -25 -5 -15 4 -19
14 -19 54 l-1 49 30 -30 c17 -16 35 -30 40 -30 5 0 18 -9 30 -21 25 -25 38
-21 67 21 30 45 28 78 -9 133 -16 25 -31 58 -32 74 l-2 28 183 0 c100 0 182 3
182 6 0 11 42 3 50 -10 5 -9 10 -10 14 -2 10 16 398 15 414 -1 8 -8 12 -8 12
-1 0 11 47 24 52 14 2 -3 171 -5 376 -3 l372 3 15 23 c13 19 15 149 15 1003 0
683 -3 989 -11 1005 -6 13 -21 31 -35 41 -21 15 -24 16 -24 2 0 -9 -9 -15 -25
-15 -16 0 -25 6 -25 16 0 13 -3 14 -14 5 -11 -10 -285 -14 -696 -11 -42 0 -46
2 -48 28 -1 15 -11 33 -22 41 -17 11 -20 25 -20 78 0 64 -9 94 -38 123 -14 13
-7 16 69 22 46 3 227 6 402 7 239 1 317 -2 317 -11 0 -7 11 3 25 22 23 32 25
42 25 149 0 64 4 111 8 105 5 -9 24 -9 66 -3 40 7 63 6 70 -1 5 -5 7 -10 3
-10 -4 0 4 -19 17 -42 39 -69 120 -98 209 -76 55 14 104 61 114 109 3 16 9 29
14 29 5 0 9 16 9 36 0 21 -4 33 -10 29 -6 -3 -11 6 -12 22 0 15 -2 33 -2 40
-2 17 -38 53 -47 47 -5 -3 -9 -1 -9 5 0 15 -100 32 -147 25 -45 -7 -100 -38
-114 -64 -4 -8 -13 -29 -19 -47 -12 -31 -13 -32 -59 -26 -25 3 -54 13 -64 21
-15 14 -17 13 -19 -4 -1 -10 -4 33 -7 96 -5 95 -10 120 -26 140 l-20 25 -206
-3 -207 -2 -31 35 c-28 33 -31 42 -31 104 0 53 -4 72 -18 84 -26 23 -45 21
-72 -8 -28 -30 -44 -31 -62 -7 -32 45 -108 56 -151 22 -25 -20 -26 -27 -29
-123 l-3 -102 -189 -3 c-115 -1 -193 1 -199 7 -7 7 11 20 51 39 64 31 134 83
186 140 l31 33 36 -20 36 -20 37 30 c20 17 36 38 36 48 0 10 -16 36 -34 58
l-35 40 16 59 c25 88 22 271 -4 349 -40 116 -105 211 -196 283 -71 57 -127 84
-218 107 -35 9 -72 21 -82 26 -12 7 -17 5 -17 -5 0 -9 -8 -12 -25 -8 -17 3
-25 11 -25 25 0 21 0 21 -16 -1 -11 -16 -25 -22 -52 -22 -78 0 -215 -50 -288
-106 -129 -98 -207 -227 -225 -367 -5 -39 -12 -73 -15 -76 -3 -3 -3 356 0 799
3 443 7 2134 8 3758 l3 2952 360 -5 c198 -3 673 -8 1055 -12 382 -3 869 -8
1083 -10 l387 -4 0 -1273 c0 -700 3 -2598 6 -4217 7 -2920 7 -2944 -13 -2927
-18 17 -20 17 -36 1 -15 -15 -21 -16 -50 -4 -58 25 -109 25 -140 1 -15 -12
-27 -28 -27 -36 0 -8 -4 -14 -10 -14 -5 0 -10 -19 -9 -42 0 -24 3 -37 6 -30 3
9 11 3 24 -17 18 -30 18 -31 -2 -66 -17 -28 -20 -45 -15 -80 12 -75 21 -79
195 -76 41 0 58 5 65 18 11 18 20 -1896 31 -6975 4 -1530 8 -2242 15 -2242 11
0 6 7867 -9 14970 l-6 3035 -495 6 c-272 4 -930 9 -1463 13 -784 5 -968 4
-972 -6z m683 -6989 c17 1 32 -3 32 -9 0 -6 4 -9 9 -6 13 8 111 -26 167 -59
70 -40 178 -154 212 -222 53 -107 66 -159 65 -273 -1 -149 -17 -193 -128 -357
-17 -25 -66 -73 -75 -73 -4 0 -13 -7 -21 -16 -21 -25 -138 -80 -210 -98 -36
-9 -96 -16 -135 -16 -253 1 -458 152 -540 400 -25 76 -23 252 3 330 46 134
138 253 248 319 76 46 190 83 238 78 21 -3 37 -1 37 5 0 6 13 7 33 2 17 -4 47
-6 65 -5z m-659 -690 c2 -66 78 -222 139 -286 12 -12 37 -34 57 -48 42 -32 43
-44 10 -75 l-24 -23 -30 32 c-42 45 -88 43 -136 -4 l-35 -36 1 263 c1 147 5
252 9 238 4 -14 8 -41 9 -61z m1139 -153 c-4 -20 0 -25 24 -30 37 -7 36 -26
-1 -26 -25 0 -28 -3 -23 -25 3 -18 0 -25 -12 -25 -10 0 -16 9 -16 25 0 20 -5
25 -26 25 -31 0 -28 23 4 28 16 2 22 10 22 28 0 15 6 24 16 24 12 0 15 -7 12
-24z m192 -108 c28 -31 26 -79 -5 -102 l-25 -19 26 -34 c20 -26 23 -38 15 -46
-8 -8 -14 -9 -19 -1 -25 38 -66 84 -73 84 -5 0 -9 -21 -9 -46 0 -32 -4 -44
-12 -42 -13 5 -24 187 -14 215 9 23 92 17 116 -9z m148 -81 c3 -94 3 -96 28
-99 51 -6 22 -23 -41 -23 -64 0 -96 17 -42 23 26 3 27 5 27 68 0 35 -2 64 -4
64 -3 0 -12 -7 -21 -16 -12 -12 -19 -14 -27 -6 -8 8 -2 22 23 51 19 21 39 38
44 37 6 -2 11 -45 13 -99z m-76 -63 c-10 -21 -15 -24 -27 -14 -18 15 -19 42
-3 58 10 10 15 9 27 -3 12 -12 12 -19 3 -41z m-1261 -16 c4 -6 5 -16 3 -20 -7
-11 -34 -10 -34 2 0 6 -11 10 -25 10 -17 0 -29 -9 -40 -30 -19 -36 -19 -61 -1
-105 16 -36 50 -47 73 -24 14 14 34 3 27 -16 -9 -23 -70 -30 -99 -11 -52 34
-57 145 -9 193 21 21 32 24 61 20 20 -4 40 -12 44 -19z m134 -81 l0 -97 26 0
c14 0 29 -3 33 -7 4 -4 21 -8 38 -9 96 -5 150 -61 150 -155 0 -131 -142 -200
-245 -119 -30 24 -59 78 -51 92 4 6 0 14 -7 19 -11 6 -11 11 -2 20 6 6 9 17 6
24 -7 21 23 69 53 85 27 15 27 15 -29 20 -61 5 -81 23 -32 28 30 3 30 3 30 67
0 58 -1 62 -18 53 -10 -5 -26 -7 -35 -3 -13 5 -11 11 16 31 18 14 32 32 32 40
0 9 7 14 18 12 15 -3 17 -16 17 -101z m140 53 c39 -11 83 -20 98 -20 16 0 37
-5 48 -10 15 -8 19 -7 19 5 0 9 9 15 25 15 17 0 25 -6 25 -17 0 -13 3 -14 12
-5 14 14 58 16 58 3 0 -6 -4 -13 -10 -16 -6 -3 -10 -51 -10 -109 0 -71 -4
-107 -12 -114 -7 -5 -37 -12 -66 -14 l-52 -5 -7 39 c-3 24 -10 37 -18 35 -13
-6 -38 29 -30 42 2 5 -26 14 -63 21 -107 20 -132 38 -126 90 1 14 3 37 3 53 1
33 11 33 106 7z m-230 -56 c29 -35 30 -47 9 -69 -15 -15 -18 -15 -35 1 -10 9
-31 16 -46 16 -47 0 -55 16 -38 75 2 6 21 10 45 9 32 -2 46 -9 65 -32z m1807
11 c10 -4 12 -34 10 -136 l-3 -130 72 2 c49 2 74 -2 77 -9 3 -9 -19 -12 -73
-12 l-76 0 2 -132 1 -133 -646 -3 -646 -2 0 135 0 135 -76 0 c-53 0 -75 3 -72
12 3 7 28 11 76 9 l72 -2 0 129 c0 71 3 132 7 135 7 8 1255 10 1275 2z m446
-147 c18 -11 40 -34 48 -51 32 -61 11 -178 -34 -194 -9 -4 -20 -11 -23 -15
-10 -16 -78 -26 -114 -18 -77 17 -117 69 -117 150 0 129 126 196 240 128z
m370 -206 l27 -36 5 47 c8 72 25 61 28 -17 4 -99 -6 -102 -82 -27 -65 64 -88
73 -110 39 -8 -13 -6 -25 7 -47 15 -26 16 -29 1 -35 -35 -14 -59 69 -31 107 6
10 25 21 42 25 38 11 77 -8 113 -56z m-40 -56 c28 -30 41 -56 27 -56 -16 0
-75 36 -75 46 0 7 -3 19 -6 28 -11 28 20 18 54 -18z m-15 -71 c9 -8 17 -20 19
-27 3 -8 17 -2 42 17 27 21 40 25 48 17 15 -15 -11 -44 -58 -67 -50 -23 -44
-43 14 -47 32 -2 47 -7 47 -17 0 -11 -21 -14 -102 -13 -57 0 -107 4 -113 7
-13 8 -13 105 0 105 6 0 10 6 10 14 0 27 69 36 93 11z m137 -67 c0 -40 -1 -41
-17 -26 -14 14 -15 22 -5 43 16 36 22 31 22 -17z m-1942 -168 c3 -88 12 -110
43 -110 23 0 28 21 31 120 2 59 6 75 18 75 12 0 16 -18 18 -90 2 -81 0 -93
-19 -113 -16 -18 -30 -22 -62 -20 -28 2 -41 7 -39 16 1 7 -3 15 -10 17 -9 4
-13 30 -11 93 2 110 1 104 16 100 8 -3 13 -32 15 -88z m238 79 c4 -6 6 -51 5
-100 -2 -87 -2 -89 21 -89 13 0 30 -4 37 -9 21 -14 -22 -23 -87 -19 -56 3 -75
21 -29 26 26 3 27 5 27 67 0 53 -3 63 -15 59 -8 -4 -22 -3 -31 0 -13 5 -10 12
18 40 37 38 44 41 54 25z m-67 -107 c14 -26 2 -62 -19 -62 -14 0 -17 7 -15 38
4 45 3 42 15 42 5 0 14 -8 19 -18z m999 -1172 l2 -1005 -1020 0 -1020 0 0
1008 0 1007 1018 -2 1017 -3 3 -1005z m-1734 -1049 c-1 -6 -2 -20 -2 -31 -3
-33 -39 -25 -47 10 -4 16 -4 34 0 39 7 13 50 -3 49 -18z m58 -32 c-1 -13 -6
-26 -11 -29 -6 -4 -31 -65 -31 -76 0 -2 11 -4 24 -4 19 0 25 6 28 28 2 16 9
27 18 27 10 0 14 -8 12 -27 -2 -20 2 -28 20 -34 l23 -7 -23 -10 c-18 -8 -22
-17 -20 -41 2 -22 -1 -31 -12 -31 -10 0 -16 12 -18 33 -3 30 -6 32 -42 32 -21
0 -41 4 -44 9 -6 9 23 102 44 141 14 27 36 20 32 -11z m-132 -1 c11 -12 20
-32 20 -45 0 -23 -32 -63 -50 -63 -6 0 3 -18 21 -39 30 -38 32 -61 6 -61 -12
0 -61 67 -62 85 0 5 -8 11 -17 13 -14 3 -17 -6 -20 -45 -2 -33 -7 -48 -17 -48
-11 0 -14 22 -15 107 -1 64 3 110 9 112 6 3 31 5 57 5 36 1 52 -4 68 -21z
m133 -275 c15 -7 27 -20 27 -27 0 -8 5 -16 11 -18 15 -5 29 -76 22 -112 -12
-65 -83 -140 -114 -121 -5 4 -16 2 -24 -5 -9 -8 -15 -8 -20 0 -4 6 -15 8 -24
5 -37 -11 -126 78 -113 113 2 7 -1 19 -7 26 -9 10 -9 16 -1 21 6 4 10 14 9 23
-3 28 19 70 46 88 53 34 128 38 188 7z m-75 -403 l-3 -70 130 -2 130 -3 3
-647 2 -648 -132 0 -133 0 0 -70 c0 -95 -19 -95 -23 0 l-3 75 -129 -3 -130 -3
2 648 3 648 128 3 127 3 0 69 c0 57 3 70 16 70 13 0 15 -11 12 -70z m70 -1572
c42 -26 64 -70 64 -128 0 -92 -60 -152 -152 -152 -39 0 -57 6 -87 28 -21 16
-39 36 -41 44 -2 8 -8 17 -13 21 -5 3 -7 14 -3 23 4 11 1 22 -7 27 -12 8 -12
10 0 18 8 5 11 16 6 30 -4 13 -2 21 5 21 6 0 8 5 5 10 -3 6 -1 10 6 10 7 0 10
3 7 6 -14 13 52 58 97 67 32 6 77 -4 113 -25z"/>
<path d="M580 11020 c-63 -7 -170 -40 -170 -52 0 -4 -5 -8 -11 -8 -26 0 -189
-134 -189 -157 0 -7 -4 -13 -8 -13 -12 0 -56 -85 -78 -150 -27 -82 -24 -244 5
-330 13 -36 26 -67 31 -70 4 -3 15 -21 25 -40 27 -53 142 -161 211 -197 301
-160 672 -2 770 326 23 77 23 228 0 306 -75 253 -320 414 -586 385z m120 -27
c0 -5 20 -9 44 -9 53 -2 156 -49 226 -105 26 -21 70 -68 95 -104 143 -200 128
-441 -37 -631 -83 -94 -204 -163 -286 -160 -28 1 -42 -3 -42 -11 0 -7 -11 -13
-25 -13 -16 0 -25 6 -25 16 0 14 -1 14 -16 0 -19 -19 -15 -19 -89 -1 -83 19
-176 69 -240 127 -58 53 -130 156 -141 203 -4 17 -12 36 -18 44 -16 21 -15
263 2 268 6 3 12 13 12 24 0 25 43 111 64 128 9 8 16 18 16 24 0 17 89 95 150
131 76 46 151 69 210 64 28 -1 50 0 50 5 0 4 11 7 25 7 14 0 25 -3 25 -7z"/>
<path d="M337 10646 c-52 -19 -81 -48 -97 -95 -17 -53 -9 -145 16 -178 65 -87
233 -89 294 -2 54 75 36 201 -35 251 -49 35 -123 45 -178 24z m145 -32 c67
-34 92 -147 48 -219 -55 -89 -196 -91 -250 -2 -11 18 -20 42 -20 54 0 12 -6
24 -12 26 -10 4 -10 8 1 15 8 6 12 19 8 30 -2 12 -1 22 3 24 5 2 10 10 12 18
4 21 67 67 98 72 33 6 79 -2 112 -18z"/>
<path d="M370 10547 c-14 -7 -26 -19 -28 -27 -2 -8 -7 -17 -12 -20 -4 -3 -1
-22 7 -42 17 -42 53 -60 94 -46 62 21 59 116 -3 137 -17 6 -31 11 -32 10 -1 0
-12 -6 -26 -12z m58 -39 c30 -30 -4 -77 -41 -57 -20 11 -23 55 -4 62 21 9 32
8 45 -5z"/>
<path d="M727 10635 c-8 -8 -17 -11 -21 -8 -3 4 -6 -63 -6 -147 0 -84 3 -150
7 -147 3 4 15 0 24 -9 16 -14 41 -16 161 -15 84 1 147 6 155 13 16 13 18 279
3 309 -10 17 -23 19 -160 19 -117 0 -152 -3 -163 -15z m313 -155 l0 -150 -150
0 -150 0 0 150 0 150 150 0 150 0 0 -150z"/>
<path d="M859 10549 c-15 -6 -32 -23 -39 -39 -26 -64 33 -122 99 -99 64 22 63
116 -1 138 -17 6 -31 11 -32 10 -1 0 -13 -5 -27 -10z m55 -45 c21 -21 20 -30
-6 -48 -39 -27 -80 18 -46 52 16 16 33 15 52 -4z"/>
<path d="M1310 10050 c0 -40 1 -41 31 -38 18 2 37 11 43 21 16 25 -4 51 -43
55 -30 3 -31 2 -31 -38z"/>
<path d="M409 9659 c-14 -5 -32 -22 -38 -36 -25 -56 40 -121 100 -101 62 21
59 116 -3 137 -17 6 -31 11 -32 10 -1 0 -13 -5 -27 -10z m61 -44 c20 -25 8
-50 -25 -50 -24 0 -31 5 -33 24 -6 37 34 55 58 26z"/>
<path d="M800 9595 l0 -255 625 0 625 0 0 255 0 255 -625 0 -625 0 0 -255z
m1214 207 c14 -17 16 -40 10 -217 -4 -133 -10 -203 -18 -211 -9 -9 -156 -12
-584 -12 -549 -1 -572 0 -582 18 -11 20 -14 397 -4 424 6 14 66 16 584 16 548
0 578 -1 594 -18z"/>
<path d="M2389 9659 c-15 -6 -32 -23 -39 -39 -38 -91 99 -149 139 -59 18 41 0
84 -41 98 -17 6 -31 11 -32 10 -1 0 -13 -5 -27 -10z m55 -45 c29 -28 12 -57
-30 -52 -32 3 -43 30 -24 53 16 19 35 19 54 -1z"/>
<path d="M2769 9357 c-17 -9 -25 -22 -27 -45 -3 -31 -2 -32 32 -32 35 0 36 1
36 39 0 47 -8 54 -41 38z"/>
<path d="M170 8710 l0 -230 1000 -2 1000 -3 0 233 0 232 -1000 0 -1000 0 0
-230z m1971 200 c6 0 8 -81 7 -202 -3 -200 -3 -201 -25 -204 -16 -3 -23 1 -23
13 0 15 -1 15 -18 0 -19 -17 -102 -24 -102 -9 0 5 9 17 20 28 11 10 31 30 45
44 40 39 59 99 46 147 -14 51 -72 119 -116 133 -89 29 -190 -2 -225 -71 -37
-71 -22 -194 26 -219 17 -9 22 -19 18 -32 -4 -12 0 -18 11 -18 9 0 13 -5 10
-10 -5 -8 -11 -7 -21 1 -11 9 -18 9 -26 1 -7 -7 -27 -12 -45 -12 -26 0 -31 3
-26 16 6 15 4 15 -19 0 -20 -13 -45 -16 -112 -14 l-86 3 49 52 c38 41 50 62
55 98 4 25 5 53 2 63 -3 9 -7 31 -10 47 -18 103 -208 143 -291 60 -72 -72 -67
-201 10 -274 19 -18 35 -37 35 -42 0 -5 -74 -9 -171 -9 l-170 0 21 30 c12 17
25 30 30 30 22 0 53 74 53 129 1 79 -21 123 -77 156 -82 48 -188 30 -242 -40
-24 -32 -27 -45 -27 -108 -1 -57 4 -80 22 -109 12 -20 28 -39 36 -42 7 -2 19
-14 25 -25 11 -21 9 -21 -159 -21 l-171 0 12 25 c6 14 15 25 19 25 21 0 59 58
65 97 19 131 -48 224 -164 225 -114 0 -182 -65 -182 -175 0 -70 9 -92 54 -140
20 -21 36 -42 36 -47 0 -17 -104 -8 -125 11 -19 17 -20 30 -20 194 0 145 3
177 15 185 9 6 368 9 953 7 515 -1 937 2 937 7 0 4 7 5 16 2 9 -3 20 -6 25 -6z
m-1625 -91 c18 -11 38 -33 45 -51 17 -42 15 -117 -5 -155 -18 -36 -77 -76 -99
-67 -8 3 -18 0 -22 -6 -5 -8 -10 -8 -20 0 -8 6 -19 10 -27 9 -40 -9 -116 69
-110 113 2 9 -2 19 -8 23 -8 5 -8 10 0 20 6 8 10 19 9 27 -4 23 20 67 46 84
56 37 133 38 191 3z m492 -1 c60 -37 83 -128 49 -195 -18 -34 -83 -79 -109
-75 -9 2 -19 -2 -23 -8 -5 -8 -11 -8 -21 1 -7 6 -21 9 -29 5 -8 -3 -15 -1 -15
5 0 6 -4 7 -10 4 -5 -3 -10 -1 -10 4 0 6 -5 10 -11 9 -17 -4 -49 44 -59 88
-32 140 112 237 238 162z m490 0 c42 -26 64 -70 64 -129 0 -51 -30 -116 -51
-111 -6 1 -14 -5 -17 -13 -3 -8 -10 -12 -15 -9 -5 3 -9 0 -9 -6 0 -7 -8 -9
-21 -5 -14 5 -25 2 -30 -6 -7 -12 -10 -12 -18 -1 -4 8 -14 12 -22 10 -24 -5
-87 39 -105 74 -33 64 -13 158 41 194 55 36 124 37 183 2z m498 1 c79 -48 77
-202 -3 -254 -15 -11 -38 -18 -50 -17 -12 1 -25 -3 -28 -9 -5 -7 -11 -6 -20 1
-8 6 -19 10 -27 9 -40 -9 -116 69 -110 113 2 9 -2 19 -8 23 -8 5 -8 10 0 20 6
8 10 19 9 27 -5 21 29 76 54 89 58 32 129 31 183 -2z"/>
<path d="M389 8759 c-24 -9 -37 -28 -43 -64 -5 -30 76 -97 90 -74 3 5 13 9 23
9 19 0 41 38 41 69 0 47 -60 79 -111 60z m61 -44 c20 -25 8 -50 -25 -50 -31 0
-43 20 -31 51 7 18 40 18 56 -1z"/>
<path d="M889 8759 c-58 -21 -60 -129 -3 -129 13 0 24 -4 24 -9 0 -17 69 23
80 47 16 36 -3 78 -42 91 -17 6 -31 11 -32 10 -1 0 -13 -5 -27 -10z m60 -46
c13 -25 -5 -53 -34 -53 -18 0 -26 7 -31 26 -10 41 44 63 65 27z"/>
<path d="M1379 8759 c-35 -13 -53 -54 -39 -89 11 -26 80 -67 80 -48 0 6 7 8
15 4 8 -3 15 -1 15 5 0 6 4 8 8 5 4 -2 14 9 21 25 18 41 0 84 -41 98 -17 6
-31 11 -32 10 -1 0 -13 -5 -27 -10z m59 -41 c33 -33 -17 -78 -53 -48 -26 22
-10 60 25 60 9 0 21 -5 28 -12z"/>
<path d="M1870 8757 c-32 -16 -47 -58 -32 -91 12 -26 69 -60 78 -45 3 5 13 9
23 9 19 0 41 38 41 69 0 48 -65 82 -110 58z m65 -62 c0 -24 -5 -31 -24 -33
-32 -5 -54 23 -40 50 7 13 19 18 37 16 23 -2 27 -8 27 -33z"/>
<path d="M180 8306 l0 -153 41 -7 c124 -20 195 -184 126 -293 -27 -43 -92 -97
-106 -88 -5 3 -12 1 -15 -4 -3 -5 -15 -7 -26 -4 -19 5 -20 0 -20 -151 l0 -156
985 0 985 0 0 505 0 505 -985 0 -985 0 0 -154z m1507 127 c-3 -5 83 -6 191 -4
179 3 197 2 209 -15 12 -16 13 -16 13 -1 0 9 5 17 10 17 6 0 10 -10 10 -22 3
-362 -3 -914 -10 -927 -8 -14 -9 -14 -10 2 0 11 -4 15 -11 11 -17 -10 -1289
-13 -1316 -3 -14 5 -25 3 -33 -6 -6 -7 -27 -13 -46 -13 -31 0 -33 2 -22 16 11
13 11 14 0 8 -15 -9 -437 -10 -452 -1 -6 3 -10 51 -10 109 0 90 2 105 20 121
11 10 20 15 20 11 0 -8 47 21 78 48 70 62 88 204 38 291 -25 43 -87 95 -113
95 -32 0 -43 31 -43 126 0 151 -86 134 688 134 392 0 673 -4 682 -10 8 -5 19
-5 25 0 5 4 24 10 40 13 17 2 34 5 38 6 5 0 6 -2 4 -6z"/>
<path d="M170 7955 l0 -183 42 9 c43 10 98 44 98 60 0 6 7 17 15 25 25 26 23
131 -4 179 -15 28 -59 75 -71 75 -3 0 -22 4 -42 9 l-38 9 0 -183z m140 49 c21
-63 -2 -133 -58 -172 -49 -36 -57 -19 -58 120 0 99 3 125 15 135 22 16 86 -36
101 -83z"/>
<path d="M170 7200 l0 -230 1000 0 1000 0 0 230 0 230 -1000 0 -1000 0 0 -230z
m94 197 c16 -12 16 -14 2 -26 -13 -11 -16 -38 -16 -154 0 -166 5 -177 81 -177
26 0 51 -5 55 -11 4 -8 9 -7 14 2 12 18 48 19 55 1 4 -12 8 -13 17 -4 7 7 31
12 54 12 66 0 74 19 74 170 0 98 -3 130 -16 148 -12 18 -13 26 -4 37 15 18 85
21 74 4 -5 -8 0 -10 17 -6 36 9 158 11 166 4 3 -4 1 -7 -6 -7 -7 0 -9 -4 -6
-10 3 -5 -5 -15 -18 -21 -61 -28 -83 -180 -36 -251 13 -21 35 -42 49 -49 14
-6 37 -17 53 -24 15 -8 27 -10 27 -5 0 6 11 10 25 10 14 0 25 -5 25 -12 0 -7
6 -6 18 3 9 8 30 21 45 29 62 31 99 129 77 203 -15 52 -44 94 -70 102 -11 4
-20 13 -20 21 0 12 28 14 165 14 175 0 191 -5 132 -43 -54 -33 -80 -140 -52
-209 22 -56 41 -77 93 -99 46 -20 49 -24 28 -44 -19 -19 -371 -22 -394 -3 -12
10 -16 10 -19 1 -5 -14 -53 -18 -53 -5 0 9 -430 7 -454 -3 -11 -5 -27 -3 -39
5 -15 9 -22 10 -25 1 -2 -6 -11 -11 -20 -11 -15 0 -15 2 -2 10 11 7 4 10 -27
10 -24 0 -43 -4 -43 -9 0 -14 -68 -10 -81 5 -7 9 -11 72 -11 190 1 152 3 179
18 195 20 23 25 23 48 6z m1862 -2 c-3 -8 -1 -15 4 -15 6 0 10 -71 10 -183 0
-163 -2 -183 -17 -193 -27 -16 -627 -17 -655 -1 -16 9 -22 9 -25 0 -3 -7 -16
-13 -29 -13 -19 0 -24 5 -24 25 0 20 5 25 25 25 14 0 25 -5 25 -12 0 -7 6 -5
18 4 9 9 27 19 39 22 39 12 80 69 87 123 9 67 -15 146 -54 175 -59 43 -51 46
126 48 128 0 164 -2 164 -12 0 -7 -13 -20 -28 -29 -39 -22 -62 -76 -62 -144 0
-100 44 -157 133 -174 101 -19 206 47 221 138 9 58 -10 138 -35 144 -11 3 -23
15 -26 26 -3 12 -11 21 -17 21 -7 0 -13 7 -13 15 0 12 8 14 33 9 18 -3 34 -1
38 5 4 6 21 11 38 11 23 0 29 -4 24 -15z m-1554 -182 l-3 -148 -146 1 -146 0
-1 147 -1 146 145 3 c80 2 147 2 150 1 3 0 4 -68 2 -150z m436 125 c60 -37 83
-128 49 -194 -17 -32 -82 -80 -107 -79 -8 0 -18 -4 -22 -9 -4 -6 -12 -5 -21 2
-8 7 -21 10 -29 7 -9 -4 -23 1 -32 10 -9 9 -16 13 -16 9 0 -3 -7 -1 -16 7 -45
38 -61 137 -30 197 39 76 142 99 224 50z m490 0 c42 -26 64 -70 64 -129 0 -48
-28 -114 -46 -110 -5 2 -13 -4 -18 -13 -5 -9 -13 -14 -19 -11 -5 4 -9 2 -9 -4
0 -5 -8 -9 -17 -9 -10 0 -26 -3 -35 -7 -12 -4 -18 -3 -18 5 0 8 -9 10 -24 6
-13 -3 -26 -2 -28 3 -2 5 -10 11 -17 13 -24 5 -58 50 -69 90 -38 139 108 242
236 166z m498 1 c18 -11 38 -33 45 -51 17 -42 15 -117 -5 -155 -17 -34 -80
-78 -96 -68 -6 4 -17 2 -25 -5 -10 -8 -15 -8 -20 0 -4 6 -14 9 -22 6 -36 -14
-124 72 -115 112 2 8 -2 19 -8 27 -8 10 -8 15 0 20 6 4 9 14 6 21 -3 8 5 32
18 53 44 69 144 87 222 40z"/>
<path d="M389 7279 c-24 -9 -40 -34 -42 -64 -1 -22 27 -65 44 -65 10 0 21 -5
24 -10 4 -7 11 -8 18 -1 12 9 18 11 35 11 11 0 32 46 32 69 0 47 -60 79 -111
60z m61 -44 c20 -25 8 -50 -25 -50 -24 0 -31 5 -33 24 -6 37 34 55 58 26z"/>
<path d="M889 7279 c-37 -14 -55 -60 -39 -99 7 -16 16 -31 21 -31 5 -1 13 -2
18 -3 5 0 12 -4 15 -7 12 -12 74 24 86 49 16 36 -3 78 -42 91 -17 6 -31 11
-32 10 -1 0 -13 -5 -27 -10z m60 -48 c16 -28 -9 -56 -42 -47 -20 5 -27 13 -27
30 0 37 52 50 69 17z"/>
<path d="M1379 7279 c-55 -20 -58 -108 -5 -125 11 -4 24 -12 29 -18 5 -8 10
-7 16 3 5 7 14 10 20 7 6 -4 11 -2 11 4 0 6 4 9 9 6 5 -3 14 8 21 24 17 42 -1
85 -42 99 -17 6 -31 11 -32 10 -1 0 -13 -5 -27 -10z m59 -41 c33 -33 -17 -78
-53 -48 -26 22 -10 60 25 60 9 0 21 -5 28 -12z"/>
<path d="M1874 7281 c-11 -5 -27 -20 -36 -33 -14 -21 -14 -28 -1 -61 13 -32
24 -43 36 -34 2 1 11 -4 19 -10 8 -7 18 -9 22 -5 4 4 12 8 17 8 5 1 13 2 17 3
12 1 32 47 32 70 0 44 -61 80 -106 62z m54 -40 c8 -4 12 -19 10 -32 -2 -19 -9
-24 -33 -24 -24 0 -31 5 -33 24 -4 23 11 41 33 41 6 0 16 -4 23 -9z"/>
<path d="M280 6825 c0 -32 2 -35 31 -35 17 0 37 6 44 14 21 21 -8 56 -46 56
-27 0 -29 -3 -29 -35z"/>
<path d="M390 6529 c-14 -5 -31 -22 -38 -38 -11 -26 -11 -34 5 -58 20 -32 34
-44 44 -37 4 2 11 0 14 -6 4 -7 11 -8 18 -1 12 9 18 11 35 11 11 0 32 46 32
69 0 46 -60 79 -110 60z m66 -55 c8 -31 -6 -47 -37 -42 -43 6 -38 68 5 68 19
0 27 -7 32 -26z"/>
<path d="M170 5475 l0 -625 255 0 255 0 0 625 0 625 -255 0 -255 0 0 -625z
m471 232 c1 -199 4 -461 8 -582 4 -158 3 -223 -5 -232 -17 -18 -414 -24 -432
-6 -11 10 -14 127 -17 580 -3 539 -2 569 15 588 18 19 30 20 224 17 l206 -3 1
-362z"/>
<path d="M390 4557 c-14 -7 -26 -19 -28 -27 -2 -8 -7 -17 -10 -20 -9 -6 -9
-34 0 -40 3 -3 8 -12 10 -20 5 -24 54 -40 87 -29 64 22 63 116 -1 138 -17 6
-31 11 -32 10 -1 0 -12 -6 -26 -12z m58 -39 c29 -29 1 -71 -39 -61 -13 4 -19
14 -19 33 0 37 33 53 58 28z"/>
<path d="M2144 17948 c-12 -5 -24 -22 -27 -37 -2 -14 -4 -335 -3 -713 1 -549
4 -690 14 -700 10 -10 69 -14 236 -15 215 -3 224 -2 242 18 17 19 19 43 22
282 2 144 6 264 8 266 3 3 18 -12 35 -32 46 -56 133 -68 206 -29 54 29 71 108
33 152 -11 13 -20 24 -20 25 0 1 9 12 20 25 29 33 26 96 -5 135 -24 29 -29 30
-109 33 -83 2 -84 2 -126 -33 -23 -19 -43 -35 -43 -35 -1 0 -3 143 -5 318 -3
304 -4 318 -24 335 -18 15 -44 17 -227 16 -120 0 -215 -5 -227 -11z m454 -730
l2 -708 -230 0 -230 0 0 703 c0 387 3 707 7 711 4 3 106 5 227 4 l221 -3 3
-707z m165 97 c13 -13 16 -13 21 0 9 24 72 19 96 -7 23 -25 26 -74 6 -100 -16
-22 -106 -26 -107 -5 0 10 -2 10 -6 0 -7 -20 -74 -16 -89 5 -45 59 28 158 79
107z m-104 -119 c23 -25 23 -25 5 -57 -31 -52 -41 -46 -40 21 0 33 3 60 7 60
3 0 16 -11 28 -24z m169 -74 c4 -40 -12 -62 -44 -62 -27 0 -38 15 -40 55 -3
42 3 47 44 43 34 -3 37 -6 40 -36z m-113 -12 c-21 -23 -19 -33 10 -60 14 -13
25 -20 25 -16 0 5 7 3 15 -4 19 -16 68 -5 91 21 15 17 16 25 7 49 -9 23 -8 32
2 40 11 9 16 3 26 -30 11 -35 10 -46 -3 -68 -35 -58 -146 -67 -194 -15 -28 30
-30 52 -8 94 12 25 18 28 30 18 13 -10 13 -14 -1 -29z"/>
<path d="M2160 17220 l0 -690 205 0 205 0 0 690 0 690 -205 0 -205 0 0 -690z
m110 652 c0 -4 -15 -23 -34 -41 l-34 -33 -4 31 c-2 17 0 35 6 41 12 12 66 14
66 2z m271 -30 c9 -45 -5 -49 -40 -10 -39 42 -38 50 1 46 27 -3 33 -8 39 -36z
m-89 -8 c66 -33 90 -140 48 -209 -23 -37 -65 -65 -99 -65 -10 0 -22 -6 -24
-12 -4 -10 -8 -10 -15 1 -6 8 -19 12 -31 8 -12 -3 -21 -1 -21 5 0 5 -4 6 -10
3 -5 -3 -10 -1 -10 6 0 7 -3 10 -6 6 -8 -8 -38 21 -54 52 -18 35 -16 111 3
148 38 73 136 98 219 57z m-217 -254 c68 -71 209 -71 270 2 14 17 29 27 33 22
4 -5 6 -184 4 -397 l-2 -388 -26 31 c-38 44 -79 62 -143 62 -68 0 -96 -11
-139 -51 -18 -17 -35 -31 -38 -31 -2 0 -4 176 -4 390 0 215 4 390 8 390 5 0
21 -13 37 -30z m218 -707 c15 -8 31 -22 34 -31 4 -9 13 -23 20 -30 25 -25 20
-113 -9 -160 -55 -90 -207 -86 -261 6 -24 41 -25 117 -3 160 37 72 136 97 219
55z m-191 -288 c4 -5 8 -13 8 -17 0 -13 -55 -9 -68 4 -13 13 -16 50 -5 61 6 7
48 -24 65 -48z m284 24 c2 -33 -13 -49 -46 -49 -41 0 -43 11 -8 45 38 37 52
38 54 4z"/>
<path d="M2339 17769 c-38 -14 -56 -60 -38 -97 8 -15 23 -29 34 -30 11 -2 21
-7 23 -12 5 -14 70 24 82 48 16 36 -3 78 -42 91 -17 6 -31 11 -32 10 -1 0 -13
-5 -27 -10z m62 -50 c9 -17 8 -25 -4 -36 -23 -23 -67 -9 -67 21 0 29 7 36 36
36 13 0 28 -9 35 -21z"/>
<path d="M2339 16809 c-15 -6 -32 -23 -39 -39 -26 -64 33 -122 99 -99 64 22
63 116 -1 138 -17 6 -31 11 -32 10 -1 0 -13 -5 -27 -10z m65 -58 c18 -28 -33
-63 -59 -41 -20 17 -19 40 2 55 18 13 45 6 57 -14z"/>
<path d="M2710 17286 c-6 -8 -10 -25 -8 -38 2 -17 10 -23 28 -23 18 0 26 6 28
23 3 22 -13 52 -28 52 -4 0 -13 -7 -20 -14z"/>
<path d="M2800 17286 c-6 -8 -10 -25 -8 -38 2 -19 9 -23 38 -23 29 0 36 4 38
23 4 28 -14 52 -38 52 -10 0 -23 -7 -30 -14z"/>
<path d="M666 17449 c-25 -20 -26 -25 -26 -118 0 -89 2 -99 23 -119 29 -27 69
-28 123 -2 l42 21 34 -21 c42 -25 78 -25 111 0 30 24 34 24 53 5 25 -24 37
-19 73 33 12 17 28 32 35 32 7 0 23 11 36 25 32 34 39 31 30 -8 -4 -18 -3 -42
1 -54 19 -52 110 -72 150 -32 20 20 21 20 47 3 43 -28 99 -30 127 -4 22 21 25
21 47 6 53 -37 100 -4 79 56 -6 17 -11 52 -12 77 -2 92 -30 132 -68 97 -12
-11 -21 -28 -21 -38 0 -16 -5 -19 -28 -13 -20 4 -33 1 -42 -9 -11 -14 -15 -14
-41 1 -26 16 -29 16 -47 0 -24 -22 -35 -21 -57 3 -22 25 -81 27 -106 4 -17
-16 -19 -15 -28 7 -14 38 -44 58 -92 64 -56 7 -90 -10 -103 -53 -10 -36 -18
-39 -36 -17 -15 18 -59 19 -96 3 -24 -11 -28 -10 -47 16 -22 31 -72 56 -110
56 -14 0 -36 -9 -51 -21z m128 -38 c17 -17 21 -34 21 -81 0 -78 -23 -103 -92
-104 l-48 -1 -3 94 c-1 52 0 101 3 109 8 22 92 10 119 -17z m366 9 c42 -42 9
-110 -55 -110 -33 0 -34 -1 -37 -42 -2 -30 -8 -43 -18 -43 -12 0 -15 18 -17
95 -1 52 0 101 2 108 8 21 102 15 125 -8z m450 -74 c0 -62 4 -87 15 -96 15
-12 12 -30 -5 -30 -5 0 -16 7 -24 16 -12 12 -16 37 -16 103 0 48 3 91 6 94 17
16 24 -11 24 -87z m-640 10 c18 -35 8 -52 -37 -63 -47 -11 -53 -38 -8 -38 29
0 35 -4 35 -25 0 -16 -67 -12 -84 6 -22 21 -21 102 1 126 24 27 77 24 93 -6z
m354 5 c13 -14 16 -33 14 -77 l-3 -59 -47 -3 c-43 -3 -49 0 -60 23 -18 39 5
75 50 75 22 0 32 4 29 13 -2 6 -17 12 -33 12 -28 0 -34 4 -34 25 0 18 66 11
84 -9z m108 -51 c3 -51 5 -55 28 -55 23 0 25 4 30 58 7 82 25 71 25 -15 l0
-72 -41 -4 c-58 -5 -74 14 -74 87 0 94 27 95 32 1z"/>
<path d="M700 17330 c0 -77 1 -80 23 -80 44 0 62 24 62 80 0 56 -18 80 -62 80
-22 0 -23 -3 -23 -80z"/>
<path d="M1070 17374 c0 -32 2 -35 26 -32 56 6 53 68 -2 68 -21 0 -24 -5 -24
-36z"/>
<path d="M897 17344 c-4 -4 -7 -13 -7 -20 0 -15 48 -5 52 11 3 12 -35 19 -45
9z"/>
<path d="M1255 17280 c-10 -16 4 -30 31 -30 17 0 24 5 24 20 0 15 -7 20 -24
20 -14 0 -28 -4 -31 -10z"/>
<path d="M361 17124 c-18 -22 -21 -41 -21 -111 0 -96 17 -142 53 -145 68 -4
80 -2 103 19 30 28 29 28 54 1 20 -22 22 -22 48 -7 24 14 31 14 49 2 41 -27
81 -27 107 1 23 26 46 34 46 17 0 -5 16 -16 35 -25 39 -19 68 -14 101 15 20
19 21 19 48 -2 19 -15 35 -19 54 -15 15 4 43 8 62 9 25 1 38 8 45 25 12 27 26
28 42 2 18 -28 70 -52 96 -45 12 4 36 14 53 22 30 15 33 15 49 0 12 -13 21
-14 35 -7 11 6 31 8 46 4 14 -4 36 -1 49 6 19 10 27 9 48 -4 23 -16 26 -16 42
0 15 16 19 15 59 -5 51 -25 62 -26 100 -6 26 14 34 14 67 1 40 -16 74 -12 102
12 15 13 17 28 15 83 -4 71 -16 95 -56 110 -19 7 -33 5 -59 -11 l-35 -20 -28
20 c-35 25 -56 25 -103 0 -20 -11 -39 -20 -41 -20 -3 0 -2 15 1 34 4 29 1 37
-21 51 -25 17 -27 17 -47 -1 -17 -15 -20 -26 -15 -56 7 -43 -9 -51 -38 -19
-28 30 -73 34 -117 9 -35 -19 -40 -20 -56 -6 -28 24 -70 30 -101 14 -20 -10
-33 -11 -52 -3 -28 11 -66 10 -91 -4 -13 -7 -23 1 -43 32 -34 51 -63 50 -88
-3 -18 -37 -18 -37 -46 -21 -33 19 -67 13 -99 -17 -27 -25 -25 -25 -57 5 -30
28 -59 31 -96 10 -32 -18 -40 -18 -40 -1 0 8 -11 27 -24 43 -22 25 -26 26 -49
14 -22 -12 -28 -11 -48 3 -14 9 -43 16 -70 16 -39 0 -51 -5 -68 -26z m219 -90
c0 -47 5 -95 11 -106 16 -30 -6 -49 -26 -22 -15 19 -22 175 -9 208 14 35 24 0
24 -80z m440 44 c0 -18 5 -28 14 -28 24 0 30 -21 7 -27 -17 -4 -21 -13 -21
-48 0 -35 4 -44 21 -48 26 -7 20 -31 -9 -35 -28 -4 -46 32 -43 84 2 30 -2 43
-13 47 -21 8 -21 27 0 27 13 0 15 7 11 29 -7 32 11 60 25 38 4 -6 8 -24 8 -39z
m578 35 c11 -22 5 -43 -13 -43 -16 0 -26 25 -19 45 8 20 21 19 32 -2z m-1108
-8 c0 -5 -19 -12 -42 -15 -40 -5 -43 -7 -43 -35 1 -23 5 -30 20 -30 26 0 47
-14 40 -26 -4 -5 -18 -9 -33 -9 -24 0 -27 -4 -26 -32 1 -31 3 -33 35 -30 19 1
41 -2 49 -8 13 -9 13 -11 0 -20 -21 -14 -94 -12 -108 2 -13 13 -17 199 -5 212
11 10 113 3 113 -9z m30 -100 l0 -76 -30 16 c-29 15 -30 16 -14 41 16 23 15
26 -1 44 -18 20 -18 21 1 35 37 28 44 19 44 -60z m220 38 c0 -7 5 -13 11 -13
6 0 9 -10 7 -22 -2 -17 -14 -25 -43 -34 -51 -14 -54 -39 -5 -39 33 0 36 -3 32
-35 -3 -16 -64 -11 -84 7 -24 21 -24 96 -1 127 19 25 83 32 83 9z m178 0 c19
-18 5 -34 -24 -27 -32 8 -54 -11 -54 -47 0 -30 25 -45 59 -34 24 7 37 -11 21
-30 -18 -22 -66 -18 -90 7 -27 29 -28 100 -1 127 21 21 69 23 89 4z m262 2
c13 -15 13 -15 -34 -29 -10 -4 -16 -23 -18 -63 -2 -44 -7 -58 -18 -58 -12 0
-15 15 -15 75 0 64 3 75 17 75 9 0 20 4 24 8 12 11 31 8 44 -8z m141 -6 c15
-24 11 -116 -7 -133 -25 -26 -94 -18 -94 10 0 8 -4 14 -10 14 -5 0 -10 18 -10
40 0 31 6 47 25 64 27 26 81 28 96 5z m122 12 c40 11 37 12 37 -6 0 -8 5 -15
10 -15 7 0 10 -25 8 -67 -4 -83 -21 -86 -28 -6 -4 50 -8 58 -25 58 -17 0 -21
-8 -25 -58 -7 -81 -24 -76 -28 7 -3 66 5 115 15 89 3 -8 14 -9 36 -2z m155
-82 c-2 -41 -7 -74 -13 -74 -11 0 -20 129 -10 153 13 35 26 -9 23 -79z m166
74 c28 -16 10 -32 -27 -26 -40 6 -60 -13 -55 -54 3 -26 6 -28 45 -28 48 0 61
-9 43 -30 -19 -23 -76 -19 -100 7 -28 30 -28 100 1 126 21 21 62 23 93 5z
m148 -1 c25 -21 13 -32 -29 -25 -28 5 -35 3 -31 -8 3 -8 14 -14 25 -14 28 -1
53 -23 53 -48 0 -49 -62 -74 -104 -42 -29 22 -9 37 32 26 28 -8 32 -7 32 10 0
11 -7 19 -17 19 -19 1 -63 33 -63 46 0 4 9 18 21 30 24 25 56 28 81 6z m-962
-72 c0 -31 -16 -41 -26 -16 -3 8 -12 12 -20 9 -23 -9 -16 11 9 23 34 18 37 16
37 -16z m848 -6 c3 -20 1 -21 -32 -10 -45 14 -47 35 -3 33 24 -2 33 -7 35 -23z"/>
<path d="M1242 17008 c-29 -29 -7 -78 36 -78 21 0 23 4 20 43 -2 33 -7 43 -23
45 -11 1 -26 -3 -33 -10z"/>
<path d="M759 16763 c-22 -26 -25 -187 -5 -218 19 -29 33 -31 58 -8 17 15 19
15 36 0 22 -20 45 -22 71 -5 15 9 24 8 45 -5 14 -9 38 -17 54 -17 36 0 73 37
66 67 -9 32 11 36 27 5 34 -70 66 -79 101 -32 24 33 38 38 38 15 0 -8 11 -22
24 -30 20 -13 29 -14 47 -5 17 9 27 9 45 0 18 -10 27 -10 38 -1 10 9 20 9 41
-1 25 -11 29 -10 46 11 13 16 19 39 19 76 0 72 -34 115 -90 115 -21 0 -43 -6
-50 -15 -18 -21 -33 -19 -27 4 8 31 -20 63 -51 59 -21 -2 -29 -11 -37 -36 -6
-20 -14 -31 -22 -28 -7 3 -24 0 -38 -6 -18 -8 -28 -8 -38 1 -11 8 -22 9 -42 1
-22 -8 -33 -7 -51 5 -13 8 -36 15 -51 15 -37 0 -83 -46 -83 -82 0 -31 -11 -36
-31 -12 -10 12 -10 20 -1 35 7 10 17 28 24 38 10 16 9 25 -2 45 -15 28 -35 32
-75 14 -19 -9 -28 -9 -37 0 -17 17 -33 15 -49 -5z m41 -51 l0 -36 45 44 c33
32 48 41 56 33 8 -8 1 -22 -26 -52 l-37 -41 36 -50 c33 -45 39 -70 18 -70 -4
0 -22 23 -41 50 -19 28 -38 47 -42 43 -4 -5 -9 -26 -11 -48 -2 -22 -7 -40 -13
-40 -11 0 -20 178 -10 202 9 25 25 3 25 -35z m516 39 c-4 -5 0 -11 6 -14 9 -3
7 -7 -4 -12 -10 -4 -25 -5 -33 -1 -20 7 -7 36 17 36 10 0 17 -4 14 -9z m-252
-70 c27 -30 16 -54 -29 -67 -48 -13 -54 -38 -10 -40 46 -2 48 -3 35 -19 -17
-20 -57 -19 -83 3 -18 14 -21 26 -19 62 2 25 11 53 19 62 21 24 66 23 87 -1z
m86 -1 c6 -10 10 -23 9 -27 -7 -44 15 -58 24 -15 8 39 33 70 46 56 13 -12 -5
-74 -21 -74 -6 0 -8 -7 -4 -15 3 -8 1 -15 -5 -15 -6 0 -8 -4 -5 -9 8 -13 -20
-45 -32 -37 -14 9 -54 135 -46 147 9 15 23 10 34 -11z m161 -65 c2 -55 -1 -70
-12 -70 -10 0 -15 17 -17 64 -2 35 0 71 3 79 11 30 24 -4 26 -73z m158 62 c14
-26 11 -133 -4 -130 -5 2 -12 29 -15 60 -4 50 -8 58 -25 58 -17 0 -21 -8 -25
-58 -3 -31 -9 -58 -15 -60 -10 -2 -20 116 -12 137 3 7 22 13 44 14 32 2 42 -2
52 -21z"/>
<path d="M997 16664 c-4 -4 -7 -13 -7 -20 0 -15 48 -5 52 11 3 12 -35 19 -45
9z"/>
<path d="M506 16451 c-17 -19 -17 -21 0 -50 10 -17 22 -31 26 -31 4 0 8 -27 8
-59 0 -105 30 -143 76 -94 20 21 24 36 24 84 0 32 5 61 10 64 6 4 10 -17 10
-55 0 -89 23 -127 66 -108 17 8 27 8 38 -1 18 -15 50 -1 60 25 6 15 10 14 36
-11 36 -35 97 -40 130 -10 20 18 22 18 50 2 28 -17 29 -17 49 9 12 15 22 38
22 53 1 17 3 20 6 9 2 -10 9 -18 14 -18 5 0 9 -8 9 -19 0 -10 6 -23 13 -28 15
-13 117 -14 139 -2 10 6 19 5 23 -1 8 -13 48 -13 62 1 9 9 19 6 41 -10 38 -27
92 -27 126 0 23 18 28 19 47 5 16 -11 27 -12 44 -4 15 7 29 7 42 0 22 -12 35
-6 52 25 15 30 8 116 -13 148 -14 21 -24 25 -65 25 -34 0 -53 -5 -65 -19 -17
-19 -18 -19 -54 6 -43 28 -82 26 -119 -9 l-23 -21 -24 22 c-20 19 -37 23 -93
25 -37 1 -83 -4 -101 -11 -23 -9 -40 -10 -52 -3 -30 16 -65 12 -85 -10 -17
-19 -19 -19 -47 -2 -21 12 -33 14 -45 6 -12 -8 -26 -8 -46 0 -24 9 -31 8 -41
-7 -17 -22 -32 -22 -49 3 -8 11 -16 17 -19 15 -3 -3 -18 9 -33 27 -20 24 -38
34 -64 36 -168 14 -166 14 -185 -7z m142 -23 c-3 -7 -14 -14 -26 -16 -20 -3
-21 -10 -24 -98 -4 -126 -22 -127 -26 -1 -3 95 -3 97 -27 97 -25 0 -39 12 -28
24 3 3 35 6 71 6 46 0 63 -3 60 -12z m72 -29 c0 -25 4 -29 29 -29 42 0 52 -19
49 -92 -4 -82 -22 -82 -26 0 -3 59 -5 63 -25 60 -19 -3 -23 -11 -27 -61 -3
-31 -9 -57 -15 -57 -11 0 -20 183 -10 207 8 23 25 4 25 -28z m180 -96 c0 -56
12 -72 36 -52 11 9 15 27 13 61 -3 54 16 88 26 47 3 -14 5 -51 3 -84 -3 -59
-3 -59 -36 -63 -53 -6 -72 19 -72 93 0 34 3 65 7 68 13 13 23 -18 23 -70z
m225 57 c3 -5 -5 -15 -19 -21 -22 -10 -25 -19 -28 -68 -2 -42 -7 -56 -18 -56
-11 0 -16 15 -18 64 -2 35 -1 70 2 77 6 16 72 19 81 4z m225 -5 c14 -16 9
-141 -5 -138 -5 2 -12 29 -15 60 -5 54 -7 58 -30 58 -24 0 -25 -3 -26 -58 -1
-32 -4 -60 -7 -63 -15 -16 -27 13 -27 67 0 57 -1 60 -22 57 -21 -3 -23 -8 -23
-63 0 -47 -3 -60 -15 -60 -11 0 -16 15 -18 64 -2 35 -1 70 2 77 7 18 171 17
186 -1z m175 -1 c12 -12 15 -32 13 -78 l-3 -61 -44 -3 c-30 -2 -49 2 -62 14
-40 36 -11 94 48 94 23 0 32 4 27 11 -4 7 -20 9 -39 6 -38 -6 -50 0 -34 20 16
18 74 16 94 -3z m175 -4 c13 -25 9 -130 -5 -130 -5 0 -12 26 -15 57 -4 50 -8
58 -25 58 -17 0 -21 -8 -25 -58 -7 -84 -24 -76 -28 14 l-3 76 45 1 c36 2 47
-2 56 -18z"/>
<path d="M1444 16275 c-9 -22 4 -35 37 -35 24 0 29 4 29 25 0 21 -5 25 -30 25
-18 0 -33 -6 -36 -15z"/>
<path d="M2133 16291 c-12 -6 -25 -20 -29 -33 -4 -13 -8 -315 -7 -673 0 -425
-3 -654 -9 -662 -7 -9 -7 -13 1 -13 6 0 11 -13 11 -29 0 -64 -10 -61 246 -61
229 0 233 0 248 22 14 19 16 69 16 347 l0 324 30 -41 c42 -58 71 -69 166 -64
75 4 123 97 89 171 -16 35 -16 41 -1 69 25 48 20 89 -13 123 -25 24 -38 29
-79 29 -37 0 -54 -5 -68 -21 -14 -15 -26 -19 -48 -15 -22 5 -35 1 -53 -16
l-23 -21 0 119 c-2 407 -1 394 -25 422 l-23 27 -204 2 c-111 2 -213 -1 -225
-6z m441 -37 c3 -9 6 -330 6 -715 l0 -699 -230 0 -230 0 0 708 c0 390 3 712 7
715 3 4 104 7 224 7 188 0 218 -2 223 -16z m286 -504 c26 -26 26 -70 0 -98
-16 -17 -32 -22 -71 -22 -84 0 -147 44 -137 95 4 25 27 31 34 8 20 -63 44 -82
44 -35 0 15 7 38 16 50 20 29 85 31 114 2z m-191 -125 c0 -5 -13 -26 -29 -45
l-29 -35 0 80 0 80 29 -35 c16 -19 29 -39 29 -45z m33 -59 c-18 -23 -20 -55
-3 -69 31 -26 87 -41 97 -25 3 4 9 6 13 3 18 -10 44 34 37 62 -11 48 -11 56 0
60 12 4 34 -39 34 -68 0 -40 -29 -78 -69 -90 -105 -31 -188 41 -147 128 14 29
19 33 31 23 9 -8 12 -17 7 -24z m106 -4 c4 -40 -12 -62 -44 -62 -29 0 -43 25
-37 68 5 31 8 33 42 30 33 -3 36 -6 39 -36z"/>
<path d="M2140 15550 l0 -690 205 0 205 0 0 690 0 690 -205 0 -205 0 0 -690z
m106 659 c3 -6 -10 -27 -29 -47 l-36 -35 -6 25 c-9 36 10 68 40 68 13 0 27 -5
31 -11z m268 -5 c16 -16 22 -74 8 -74 -8 0 -45 37 -71 73 -12 15 -10 17 17 17
17 0 38 -7 46 -16z m-154 -13 c0 -5 8 -7 19 -4 24 6 80 -23 88 -45 4 -9 13
-23 20 -30 25 -25 20 -113 -9 -160 -26 -42 -70 -64 -129 -64 -91 0 -151 60
-151 151 0 81 40 133 115 151 45 11 47 11 47 1z m-147 -278 c4 -7 26 -22 47
-33 71 -36 175 -20 226 35 13 14 28 25 34 25 7 0 10 -125 10 -390 0 -214 -2
-390 -4 -390 -2 0 -25 17 -51 39 -34 28 -60 40 -94 45 -60 8 -140 -15 -169
-49 -12 -14 -27 -25 -33 -25 -7 0 -10 115 -8 384 3 341 5 383 19 378 8 -3 19
-11 23 -19z m219 -709 c67 -34 92 -147 48 -219 -57 -93 -208 -91 -263 3 -24
41 -25 117 -3 160 37 72 135 97 218 56z m96 -264 c1 -32 -20 -50 -57 -50 -25
0 -19 23 17 62 30 32 39 30 40 -12z m-310 3 c26 -32 25 -46 -2 -50 -28 -5 -46
16 -44 48 3 36 17 37 46 2z"/>
<path d="M2319 16109 c-61 -22 -59 -117 2 -138 66 -23 128 38 98 97 -17 33
-30 43 -46 37 -7 -2 -13 0 -13 5 0 12 -6 12 -41 -1z m60 -53 c9 -11 10 -20 1
-35 -19 -36 -70 -21 -70 20 0 29 49 39 69 15z"/>
<path d="M2319 15139 c-15 -6 -32 -23 -39 -39 -26 -64 33 -122 99 -99 64 22
63 116 -1 138 -17 6 -31 11 -32 10 -1 0 -13 -5 -27 -10z m55 -45 c9 -8 16 -19
16 -24 0 -9 -28 -40 -36 -40 -3 0 -14 5 -25 10 -24 13 -25 46 -1 59 23 14 28
14 46 -5z"/>
<path d="M2772 15728 c-28 -28 -3 -72 39 -66 30 4 47 33 33 56 -14 21 -55 27
-72 10z"/>
<path d="M780 15888 c-62 -17 -98 -53 -116 -115 -45 -153 69 -277 223 -243 60
14 96 41 118 87 9 21 24 44 33 51 14 11 14 12 -1 12 -19 0 -25 46 -7 52 15 5
-40 107 -70 128 -28 20 -94 40 -125 39 -11 0 -36 -5 -55 -11z m141 -35 c109
-45 107 -239 -2 -288 -83 -38 -180 -12 -219 57 -46 83 -17 199 59 232 66 28
95 28 162 -1z"/>
<path d="M800 15792 c-42 -21 -62 -57 -55 -96 7 -38 22 -56 63 -73 30 -12 38
-12 70 4 68 33 79 113 22 154 -39 27 -63 30 -100 11z m88 -49 c24 -32 12 -66
-29 -81 -60 -23 -104 43 -58 89 24 24 65 20 87 -8z"/>
<path d="M1233 15893 c-62 -5 -83 -27 -83 -86 0 -21 -5 -47 -10 -58 -7 -13 -7
-19 0 -19 5 0 10 -11 10 -25 0 -14 -4 -25 -9 -25 -6 0 -5 -14 0 -35 6 -20 7
-44 4 -54 -4 -13 4 -28 23 -47 l29 -29 137 2 c199 2 195 -2 186 220 -4 93 -9
126 -21 138 -16 17 -164 27 -266 18z m255 -35 c8 -8 12 -51 12 -154 0 -131 -2
-144 -19 -154 -31 -16 -286 -13 -300 4 -16 19 -16 282 -1 301 19 23 280 25
308 3z"/>
<path d="M1290 15792 c-42 -21 -62 -57 -55 -96 7 -38 22 -56 63 -73 30 -12 38
-12 70 4 68 33 79 113 22 154 -39 27 -63 30 -100 11z m78 -38 c43 -30 19 -94
-35 -94 -50 0 -78 45 -50 81 23 30 54 35 85 13z"/>
<path d="M799 15400 c-113 -21 -170 -126 -134 -247 28 -94 109 -136 220 -113
47 9 67 19 92 46 59 65 64 165 12 250 -30 49 -116 78 -190 64z m122 -37 c109
-45 107 -239 -2 -288 -83 -38 -180 -12 -219 57 -46 83 -17 199 59 232 66 28
95 28 162 -1z"/>
<path d="M800 15302 c-42 -21 -62 -57 -55 -96 7 -38 22 -56 63 -73 30 -12 38
-12 70 4 68 33 79 113 22 154 -39 27 -63 30 -100 11z m85 -52 c25 -27 10 -71
-27 -84 -56 -20 -103 48 -62 88 22 22 67 20 89 -4z"/>
<path d="M1305 15403 c-11 -2 -30 -6 -43 -9 -28 -6 -102 -71 -102 -91 0 -8 -4
-11 -10 -8 -6 4 -10 -25 -10 -80 0 -47 3 -84 8 -81 4 2 16 -13 26 -35 11 -22
26 -39 36 -39 9 0 22 -5 28 -12 19 -19 150 -15 192 5 70 35 101 114 80 210
-15 73 -58 122 -116 132 -21 4 -46 8 -54 10 -8 1 -24 1 -35 -2z m106 -40 c109
-45 107 -239 -2 -288 -117 -53 -240 18 -241 140 -1 45 18 105 33 105 5 0 9 6
9 13 0 14 54 42 95 50 27 6 62 -1 106 -20z"/>
<path d="M1282 15293 c-70 -45 -65 -119 11 -156 36 -18 38 -18 75 0 68 33 79
113 22 154 -43 30 -63 31 -108 2z m92 -39 c33 -33 7 -94 -41 -94 -25 0 -63 32
-63 53 0 47 70 75 104 41z"/>
<path d="M1254 14909 c-82 -75 -92 -89 -103 -139 -28 -129 56 -236 181 -232
71 3 122 27 154 74 25 36 28 49 28 114 -1 62 -5 79 -27 111 -15 21 -36 44 -47
51 -11 7 -18 17 -15 22 8 14 -157 12 -171 -1z m157 -46 c77 -32 106 -148 59
-232 -13 -22 -27 -38 -32 -35 -4 3 -8 0 -8 -6 0 -6 -4 -8 -10 -5 -5 3 -10 1
-10 -5 0 -6 -4 -8 -10 -5 -5 3 -10 1 -10 -5 0 -7 -8 -9 -19 -5 -11 3 -22 1
-26 -5 -5 -8 -11 -8 -21 1 -7 6 -20 9 -27 6 -7 -3 -21 1 -32 9 -10 8 -26 14
-34 14 -23 0 -64 89 -63 138 1 58 36 116 81 136 66 28 95 28 162 -1z"/>
<path d="M1295 14806 c-17 -7 -37 -21 -45 -30 -18 -22 -18 -79 0 -101 16 -19
90 -57 90 -46 0 5 15 12 33 17 63 19 73 105 17 145 -37 26 -61 30 -95 15z m73
-42 c40 -28 16 -94 -35 -94 -26 0 -63 32 -63 55 0 21 36 55 58 55 10 0 28 -7
40 -16z"/>
<path d="M775 14901 c-84 -29 -120 -83 -119 -181 0 -51 5 -73 25 -102 48 -73
160 -101 250 -61 34 15 49 30 66 65 13 25 26 59 29 75 9 44 -20 134 -53 165
-43 40 -139 59 -198 39z m146 -38 c78 -32 103 -138 56 -228 -15 -27 -27 -46
-27 -42 0 4 -15 0 -32 -10 -18 -9 -39 -16 -47 -14 -8 1 -18 -3 -22 -11 -7 -11
-11 -11 -18 1 -5 8 -18 12 -30 8 -12 -3 -21 -1 -21 5 0 5 -4 6 -10 3 -5 -3
-10 -1 -10 5 0 6 -4 8 -10 5 -5 -3 -10 -1 -10 5 0 6 -4 8 -10 5 -5 -3 -10 1
-10 9 0 9 -4 16 -9 16 -15 0 -34 60 -33 105 0 60 35 119 81 139 66 28 95 28
162 -1z"/>
<path d="M800 14802 c-63 -31 -77 -114 -25 -142 14 -7 25 -17 25 -21 0 -5 7
-6 15 -3 8 4 15 1 15 -5 0 -19 85 34 98 62 35 72 -53 147 -128 109z m80 -42
c11 -11 20 -27 20 -35 0 -23 -37 -55 -64 -55 -53 0 -76 65 -34 94 30 21 54 20
78 -4z"/>
<path d="M2139 14623 c-6 -12 -17 -19 -23 -17 -8 3 -11 -181 -9 -697 0 -385 4
-710 7 -722 3 -15 13 -22 32 -24 15 0 30 -6 34 -13 5 -9 9 -9 14 -1 5 7 71 11
205 11 173 0 200 2 212 17 11 13 13 82 11 374 -2 355 -2 357 18 352 11 -3 20
-11 20 -17 0 -20 42 -53 80 -64 95 -25 176 20 187 107 4 30 0 43 -20 66 -24
28 -25 29 -51 12 -18 -12 -26 -26 -26 -45 0 -34 -16 -52 -47 -52 -24 0 -43 26
-36 48 3 7 -2 24 -11 37 -11 17 -14 31 -8 43 5 9 7 23 5 29 -9 24 28 26 71 4
48 -24 68 -26 97 -11 25 14 24 42 -3 66 -23 20 -180 94 -200 94 -5 0 -22 -9
-36 -21 l-27 -20 -7 28 c-5 15 -7 107 -6 203 1 96 -2 185 -6 197 -4 13 -17 25
-29 28 -12 2 -115 6 -229 7 -204 3 -207 3 -219 -19z m459 -725 l2 -718 -230 0
-230 0 0 713 c0 393 3 717 7 721 4 3 106 5 227 4 l221 -3 3 -717z m185 253
c45 -21 90 -41 100 -45 19 -6 23 -21 8 -31 -6 -3 -49 13 -97 35 -48 22 -88 40
-90 40 -2 0 -2 -26 -1 -57 2 -46 -1 -58 -13 -58 -11 0 -16 15 -18 64 -3 69 1
91 19 91 6 0 48 -17 92 -39z m-118 -130 c7 -24 -1 -44 -27 -60 -20 -12 -21
-12 -14 19 3 18 6 39 6 46 0 21 28 17 35 -5z m55 -31 c12 -8 12 -11 -3 -28
-22 -24 -21 -35 1 -55 29 -27 75 -31 117 -11 32 15 36 20 31 43 -11 46 -11 54
0 58 16 6 37 -52 30 -82 -4 -14 -15 -34 -26 -45 -21 -21 -81 -36 -107 -25 -10
3 -20 6 -23 7 -17 1 -42 23 -55 49 -13 25 -14 35 -3 64 13 38 16 39 38 25z"/>
<path d="M2160 13900 l0 -690 205 0 205 0 0 690 0 690 -205 0 -205 0 0 -690z
m85 650 c18 -20 18 -21 -1 -35 -26 -19 -29 -19 -48 10 -15 22 -15 25 2 34 24
14 26 14 47 -9z m293 3 c4 -10 7 -24 6 -30 -1 -7 -2 -21 -3 -30 -1 -13 -7 -11
-32 13 -17 16 -35 37 -40 47 -8 15 -5 17 25 17 24 0 38 -6 44 -17z m-86 -29
c67 -34 92 -147 48 -219 -57 -93 -208 -91 -263 3 -24 41 -25 117 -3 160 37 72
135 97 218 56z m90 -616 c2 -211 1 -388 0 -395 -3 -7 -16 0 -35 18 -18 17 -46
37 -64 45 -63 27 -155 13 -204 -32 -14 -13 -28 -24 -32 -24 -4 0 -6 148 -5
329 2 263 0 327 -9 319 -10 -8 -13 -2 -13 24 0 48 39 85 68 67 17 -11 19 -16
9 -28 -10 -12 -8 -13 11 -7 13 4 28 4 35 -1 38 -28 151 -6 193 38 15 16 31 29
36 29 4 0 9 -172 10 -382z m-90 -364 c67 -34 92 -147 48 -219 -57 -93 -208
-91 -263 3 -24 41 -25 117 -3 160 37 72 135 97 218 56z m84 -290 c-5 -20 -13
-24 -41 -24 -19 0 -35 2 -35 5 0 3 17 24 38 47 34 38 37 40 40 19 2 -13 1 -34
-2 -47z m-294 24 c35 -40 35 -48 -1 -48 -30 0 -41 14 -41 56 0 32 8 30 42 -8z"/>
<path d="M2339 14459 c-15 -6 -32 -23 -39 -39 -26 -64 33 -122 99 -99 64 22
63 116 -1 138 -17 6 -31 11 -32 10 -1 0 -13 -5 -27 -10z m65 -62 c9 -15 7 -21
-9 -33 -11 -8 -26 -13 -34 -12 -20 4 -35 32 -28 52 9 23 56 18 71 -7z"/>
<path d="M2339 13479 c-15 -6 -32 -23 -39 -39 -26 -64 33 -122 99 -99 64 22
63 116 -1 138 -17 6 -31 11 -32 10 -1 0 -13 -5 -27 -10z m55 -42 c37 -27 -7
-78 -48 -55 -19 11 -21 39 -4 56 16 16 30 15 52 -1z"/>
<path d="M754 14400 c-51 -22 -82 -61 -90 -111 -4 -21 -10 -37 -14 -34 -10 6
7 -85 22 -115 30 -59 104 -100 180 -100 43 0 110 34 135 67 33 46 48 126 32
180 -30 108 -156 162 -265 113z m167 -27 c109 -45 107 -239 -2 -288 -83 -38
-180 -12 -219 57 -46 83 -17 199 59 232 66 28 95 28 162 -1z"/>
<path d="M800 14312 c-42 -21 -62 -57 -55 -96 7 -38 22 -56 63 -73 30 -12 38
-12 70 4 68 33 79 113 22 154 -39 27 -63 30 -100 11z m88 -50 c23 -30 13 -60
-25 -81 -27 -14 -70 3 -78 31 -20 61 62 101 103 50z"/>
<path d="M1245 14401 c-65 -30 -115 -124 -101 -191 23 -115 81 -164 198 -165
59 0 70 3 105 31 49 39 75 109 68 178 -11 88 -49 136 -127 155 -63 15 -95 13
-143 -8z m166 -28 c109 -45 107 -239 -2 -288 -83 -38 -180 -12 -219 57 -46 83
-17 199 59 232 66 28 95 28 162 -1z"/>
<path d="M1290 14312 c-42 -21 -62 -57 -55 -96 7 -38 22 -56 63 -73 30 -12 38
-12 70 4 68 33 79 113 22 154 -39 27 -63 30 -100 11z m78 -38 c38 -26 24 -84
-24 -98 -26 -8 -74 27 -74 54 0 19 44 60 64 60 6 0 22 -7 34 -16z"/>
<path d="M792 13919 c-111 -21 -164 -129 -126 -257 10 -33 21 -59 26 -56 4 3
16 -1 27 -8 14 -8 17 -16 10 -24 -7 -9 6 -14 48 -19 101 -14 149 -1 200 52 59
63 64 159 12 247 -31 53 -115 80 -197 65z m129 -36 c109 -45 107 -239 -2 -288
-83 -38 -180 -12 -219 57 -46 83 -17 199 59 232 66 28 95 28 162 -1z"/>
<path d="M800 13823 c-42 -22 -62 -58 -55 -97 7 -38 22 -56 63 -73 27 -11 37
-11 65 0 44 19 62 43 62 87 0 28 -7 43 -29 63 -16 15 -32 27 -37 27 -4 0 -13
2 -21 5 -7 3 -29 -3 -48 -12z m86 -58 c35 -53 -27 -106 -81 -71 -47 31 -23 96
35 96 21 0 35 -8 46 -25z"/>
<path d="M1285 13921 c-69 -17 -112 -59 -130 -129 -25 -95 16 -195 92 -227 50
-21 129 -19 178 5 96 47 121 201 48 296 -33 45 -123 70 -188 55z m126 -38
c109 -45 107 -239 -2 -288 -117 -53 -240 18 -241 140 -1 45 18 105 33 105 5 0
9 6 9 14 0 8 15 20 33 27 75 30 102 30 168 2z"/>
<path d="M1295 13822 c-44 -27 -59 -50 -59 -87 0 -40 18 -63 62 -82 30 -12 38
-12 70 4 68 33 79 113 22 154 -39 28 -63 30 -95 11z m76 -42 c29 -16 25 -65
-6 -86 -54 -35 -116 18 -81 71 18 27 53 33 87 15z"/>
<path d="M700 13262 c0 -7 -6 -12 -14 -12 -17 0 -26 -21 -28 -68 -1 -33 -2
-32 -8 13 -5 36 -7 41 -8 18 -2 -39 -23 -36 -81 14 -32 27 -44 32 -59 24 -11
-6 -24 -6 -33 0 -21 13 -27 11 -51 -16 -29 -34 -77 -34 -107 1 -26 29 -40 28
-60 -8 -13 -23 -13 -35 5 -109 26 -112 40 -129 111 -129 47 0 58 4 75 25 l20
25 20 -25 c21 -26 47 -32 65 -14 8 8 17 8 31 0 31 -16 72 -10 72 11 0 14 4 13
25 -8 14 -14 25 -30 25 -37 0 -7 6 -1 13 13 15 30 42 37 63 16 18 -18 47 -21
74 -6 13 7 29 5 54 -5 32 -14 39 -14 66 0 17 9 31 21 31 28 4 44 9 77 14 108
6 32 3 39 -25 62 -36 31 -53 33 -94 12 -29 -15 -30 -15 -68 25 -43 44 -50 47
-68 25 -12 -14 -16 -13 -37 6 -12 13 -23 17 -23 11z m-387 -101 c12 -62 26
-81 28 -36 1 14 3 30 4 35 1 6 3 15 4 20 2 18 20 10 27 -12 8 -25 10 -33 12
-60 4 -36 19 -17 25 30 3 26 11 60 17 76 10 28 12 28 27 13 13 -13 14 -20 6
-28 -6 -6 -9 -17 -7 -24 3 -7 1 -16 -5 -19 -6 -4 -8 -13 -5 -20 3 -8 1 -17 -5
-20 -6 -4 -8 -13 -5 -20 3 -8 1 -17 -5 -20 -6 -4 -8 -12 -5 -19 2 -7 -2 -21
-10 -32 -17 -24 -37 -11 -41 27 -1 13 -3 29 -4 36 -2 25 -21 11 -19 -15 1 -16
-2 -39 -7 -52 l-8 -25 -18 23 c-10 12 -16 28 -13 35 3 8 1 17 -5 20 -6 4 -8
13 -5 20 3 8 0 17 -5 21 -6 3 -9 11 -5 16 3 5 0 17 -7 25 -6 8 -9 17 -6 21 4
3 2 12 -4 20 -9 10 -8 17 1 28 19 23 30 7 43 -64z m222 36 c0 -18 5 -21 26
-19 44 5 60 -25 57 -104 -4 -87 -21 -86 -28 1 -5 65 -9 70 -43 61 -16 -4 -18
-13 -16 -58 3 -60 -7 -90 -22 -67 -10 16 -12 213 -2 223 10 10 27 -12 28 -37z
m179 28 c3 -8 3 -22 0 -30 -4 -8 -7 -53 -8 -100 0 -49 -5 -85 -11 -85 -6 0
-11 36 -11 85 -1 47 -4 92 -8 100 -7 20 3 45 19 45 7 0 15 -7 19 -15z m86 -24
c0 -22 4 -27 23 -27 13 1 22 -5 22 -14 0 -9 -9 -15 -22 -14 -21 1 -23 -4 -23
-48 0 -43 3 -50 26 -58 28 -11 28 -33 0 -38 -31 -6 -56 32 -56 86 0 26 -5 53
-12 60 -9 9 -9 15 0 24 7 7 12 22 12 33 0 12 3 25 6 28 12 12 24 -4 24 -32z
m181 -40 c23 -22 23 -65 -1 -67 -8 -1 -19 -3 -25 -4 -5 -2 -17 -3 -25 -4 -8
-1 -15 -10 -15 -21 0 -16 7 -20 32 -20 40 0 54 -13 28 -28 -27 -15 -60 -14
-79 2 -22 19 -22 118 1 143 21 23 58 23 84 -1z"/>
<path d="M917 13144 c-16 -17 -6 -31 18 -26 14 2 24 10 22 16 -4 13 -30 20
-40 10z"/>
<path d="M1194 13239 c-15 -17 -19 -39 -21 -108 -3 -92 9 -133 40 -139 10 -2
27 4 38 14 18 16 20 16 37 1 22 -20 45 -22 71 -5 15 9 24 7 49 -10 38 -27 58
-27 101 -1 29 18 38 19 58 8 17 -9 29 -10 47 -1 18 8 28 7 43 -3 30 -21 89
-22 111 -2 23 21 31 21 51 2 45 -40 135 -9 130 45 -2 14 2 35 9 47 20 37 14
69 -19 97 -37 32 -77 33 -114 4 -24 -18 -30 -20 -48 -8 -39 24 -76 29 -105 14
-26 -13 -27 -12 -34 12 -9 32 -27 54 -45 54 -22 0 -43 -26 -43 -54 0 -30 -7
-32 -45 -12 -27 14 -82 12 -99 -5 -16 -15 -23 -11 -36 21 -20 48 -35 55 -66
31 -26 -21 -26 -21 -54 -1 -34 25 -33 25 -56 -1z m75 -82 l40 -71 3 74 c2 41
7 75 13 75 12 0 19 -215 7 -227 -5 -5 -29 28 -56 74 l-48 83 5 -72 c3 -51 1
-76 -8 -83 -20 -16 -25 10 -25 119 0 137 8 140 69 28z m345 68 c3 -8 3 -22 0
-30 -4 -8 -7 -53 -8 -100 0 -49 -5 -85 -11 -85 -6 0 -11 36 -11 85 -1 47 -4
92 -8 100 -7 20 3 45 19 45 7 0 15 -7 19 -15z m-104 -67 c13 -14 20 -35 20
-59 0 -38 -22 -93 -33 -82 -4 3 -7 2 -7 -3 0 -5 -13 -9 -30 -9 -16 0 -30 4
-30 9 0 5 -3 6 -7 3 -11 -11 -33 44 -33 82 0 47 30 81 70 81 17 0 38 -9 50
-22z m250 7 c19 -23 0 -38 -32 -26 -28 10 -38 6 -38 -16 0 -7 11 -13 27 -13
52 0 81 -51 46 -82 -24 -21 -81 -28 -94 -12 -16 19 -1 35 27 28 13 -3 31 -3
40 0 13 5 14 9 4 21 -7 9 -21 14 -30 13 -23 -4 -50 20 -50 45 0 48 71 77 100
42z m170 -10 c19 -21 22 -29 14 -43 -6 -9 -16 -18 -23 -18 -6 -1 -14 -3 -18
-4 -5 -2 -17 -3 -28 -4 -13 -1 -21 -9 -23 -25 -4 -23 -2 -24 37 -17 44 7 60
-4 35 -25 -22 -18 -70 -16 -94 6 -14 13 -20 31 -20 63 0 83 69 121 120 67z"/>
<path d="M1449 13137 c-30 -16 -34 -73 -6 -91 39 -25 75 41 45 83 -12 17 -17
18 -39 8z"/>
<path d="M1850 13135 c-7 -9 -11 -17 -9 -19 9 -8 70 7 66 17 -5 17 -44 18 -57
2z"/>
<path d="M2180 13029 c0 -18 -50 -43 -51 -26 0 7 -5 1 -10 -13 -7 -16 -10
-255 -9 -675 1 -357 0 -675 -2 -706 -3 -43 0 -55 9 -52 7 3 13 0 13 -6 0 -6 7
-11 16 -11 10 0 14 -6 11 -15 -5 -11 -1 -12 19 -5 14 6 115 10 224 10 195 0
199 0 215 23 14 20 15 93 11 717 -3 382 -8 703 -11 712 -4 9 -13 19 -21 22 -8
3 -99 8 -202 12 -105 3 -192 10 -199 16 -9 8 -13 7 -13 -3z m418 -761 l2 -718
-230 0 -230 0 0 713 c0 393 3 717 7 721 4 3 106 5 227 4 l221 -3 3 -717z"/>
<path d="M2160 12275 l0 -695 205 0 205 0 0 695 0 695 -205 0 -205 0 0 -695z
m130 647 c3 -3 -1 -7 -8 -10 -8 -2 -29 -18 -48 -34 l-34 -30 0 35 c0 41 21 59
60 50 14 -3 27 -8 30 -11z m250 -16 c0 -13 3 -31 6 -40 10 -27 -20 -18 -51 14
-16 17 -35 30 -42 30 -8 0 -11 5 -8 10 3 6 26 10 51 10 40 0 44 -2 44 -24z
m-88 -22 c67 -34 92 -147 48 -219 -57 -93 -208 -91 -263 3 -24 41 -25 117 -3
160 37 72 135 97 218 56z m89 -615 c-1 -211 -4 -385 -7 -388 -2 -2 -18 10 -36
28 -17 18 -44 35 -60 38 -16 3 -30 9 -33 13 -2 4 -28 3 -57 -1 -75 -12 -101
-19 -94 -26 3 -4 -1 -15 -11 -25 -16 -18 -17 -18 -40 4 -25 23 -36 101 -10 80
9 -8 11 56 9 319 -2 291 -1 329 13 329 8 0 15 -4 15 -9 0 -16 63 -48 105 -54
67 -10 123 7 163 47 20 19 38 34 40 31 2 -2 3 -176 3 -386z m-89 -355 c32 -17
65 -69 69 -109 4 -52 -1 -83 -14 -97 -7 -7 -16 -21 -20 -30 -8 -22 -64 -51
-88 -45 -10 3 -19 1 -21 -4 -4 -12 -79 7 -89 23 -5 7 -9 9 -9 4 0 -15 -31 16
-47 48 -20 39 -20 114 1 154 37 72 135 97 218 56z m92 -255 c-3 -43 -4 -47
-17 -52 -7 -3 -25 -3 -40 0 l-27 5 32 38 c37 42 54 45 52 9z m-298 -3 c8 -8
14 -19 14 -25 0 -11 -32 -31 -50 -31 -20 0 -23 30 -5 50 22 24 22 24 41 6z"/>
<path d="M2339 12819 c-15 -6 -32 -23 -39 -39 -26 -64 33 -122 99 -99 64 22
63 116 -1 138 -17 6 -31 11 -32 10 -1 0 -13 -5 -27 -10z m55 -45 c21 -21 20
-30 -6 -48 -15 -11 -26 -12 -40 -5 -23 12 -23 45 0 58 23 14 28 14 46 -5z"/>
<path d="M2339 11849 c-62 -23 -59 -117 4 -139 20 -7 33 -7 35 -1 2 5 9 8 15
6 16 -6 29 5 46 37 19 38 0 83 -41 97 -17 6 -31 11 -32 10 -1 0 -13 -5 -27
-10z m62 -45 c19 -23 -1 -49 -37 -49 -20 0 -30 6 -32 18 -8 40 43 63 69 31z"/>
<path d="M475 12940 c-54 -22 -90 -92 -79 -155 17 -105 103 -156 175 -104 l29
20 25 -25 c14 -14 25 -21 25 -16 0 15 50 12 50 -2 1 -7 14 2 29 20 l29 34 31
-23 c24 -18 33 -20 45 -10 11 9 20 10 36 1 17 -9 26 -8 46 5 23 15 26 15 51
-5 32 -25 69 -26 107 -1 26 17 31 18 51 5 12 -8 29 -12 37 -9 18 7 40 51 42
82 3 47 22 43 22 -4 1 -38 6 -51 28 -70 35 -30 93 -31 130 -2 25 20 28 20 45
5 20 -18 72 -21 88 -5 8 8 17 7 34 -5 31 -21 68 -20 103 3 26 17 32 18 50 5
27 -18 32 -18 56 6 12 12 20 33 20 52 0 21 9 41 25 58 29 30 26 52 -10 68 -29
13 -79 6 -96 -14 -8 -10 -16 -9 -42 7 -38 22 -76 24 -102 5 -21 -15 -55 -5
-55 15 0 5 -11 22 -24 36 -30 32 -52 26 -72 -22 -14 -34 -36 -45 -49 -25 -9
15 -68 12 -90 -4 -17 -12 -23 -12 -47 0 -35 18 -54 18 -86 -2 -25 -14 -30 -13
-66 4 -44 22 -80 16 -111 -18 -17 -19 -18 -19 -47 5 -36 30 -77 32 -111 4 -30
-23 -54 -16 -81 23 -13 19 -16 19 -16 5 0 -11 -8 -17 -25 -17 -14 0 -25 5 -25
10 0 6 -14 -6 -32 -25 -22 -26 -37 -35 -51 -31 -10 2 -30 1 -43 -4 -19 -7 -24
-6 -24 5 0 8 8 15 18 15 9 1 27 9 40 19 57 49 -8 113 -83 81z m80 -30 c-3 -5
-1 -10 5 -10 6 0 8 -5 5 -11 -4 -6 -19 -7 -35 -4 -31 7 -70 -20 -62 -43 2 -7
0 -12 -5 -12 -6 0 -10 -13 -10 -30 0 -16 5 -30 10 -30 6 0 8 -3 5 -6 -10 -10
32 -45 50 -42 24 5 27 37 5 53 -17 13 -17 14 0 20 30 12 47 -2 47 -39 0 -57
-36 -79 -93 -57 -27 11 -57 66 -57 106 0 38 29 95 54 105 30 12 89 12 81 0z
m905 -30 c0 -22 5 -29 23 -32 12 -2 22 -7 22 -13 0 -5 -10 -11 -22 -13 -20 -3
-23 -9 -23 -48 0 -39 3 -46 26 -54 26 -10 24 -30 -3 -30 -32 0 -53 31 -53 80
0 25 -5 51 -11 57 -8 8 -8 13 0 17 6 4 11 20 11 35 0 15 3 31 6 34 12 12 24
-4 24 -33z m-736 -49 c28 -31 17 -54 -32 -64 -33 -6 -42 -13 -40 -25 2 -11 14
-17 33 -18 46 -2 48 -3 35 -19 -17 -20 -59 -19 -82 2 -24 21 -25 99 -1 125 21
24 65 23 87 -1z m170 0 c13 -14 16 -33 14 -75 -4 -73 -22 -72 -28 1 -4 50 -8
58 -25 58 -17 0 -21 -8 -25 -58 -3 -31 -9 -58 -15 -60 -10 -2 -20 116 -12 137
8 20 72 18 91 -3z m180 0 c28 -31 17 -54 -32 -64 -33 -6 -42 -12 -40 -25 2
-11 12 -16 28 -15 41 3 54 -5 40 -22 -13 -15 -91 -22 -88 -7 0 4 -2 14 -5 22
-13 33 -12 100 1 105 7 3 10 9 7 15 -12 20 71 11 89 -9z m149 4 c-1 -5 -10
-12 -19 -14 -30 -6 -39 -24 -39 -76 0 -38 -4 -50 -15 -50 -11 0 -16 15 -18 64
-2 35 -1 70 2 76 6 15 92 15 89 0z m131 -4 c13 -14 16 -33 14 -77 l-3 -59 -43
-3 c-48 -4 -71 14 -72 54 0 29 19 44 58 44 23 0 32 4 29 13 -2 6 -17 12 -33
12 -28 0 -34 4 -34 25 0 18 66 11 84 -9z m296 -3 c44 -48 13 -138 -49 -138
-35 0 -61 35 -61 80 0 71 65 106 110 58z m151 8 c0 -5 -10 -14 -23 -20 -19 -9
-24 -22 -28 -66 -4 -39 -9 -55 -19 -55 -11 0 -14 16 -13 75 1 41 1 75 2 76 2
6 80 -3 81 -10z"/>
<path d="M655 12809 c-10 -16 0 -21 29 -13 14 3 23 10 20 15 -7 12 -41 11 -49
-2z"/>
<path d="M1005 12809 c-10 -16 0 -21 29 -13 14 3 23 10 20 15 -7 12 -41 11
-49 -2z"/>
<path d="M1282 12743 c2 -11 14 -19 31 -21 22 -3 27 1 27 17 0 17 -6 21 -31
21 -24 0 -30 -4 -27 -17z"/>
<path d="M1582 12808 c-17 -17 -15 -63 4 -79 22 -18 48 0 52 35 6 45 -29 71
-56 44z"/>
<path d="M502 12590 c-14 -25 -23 -30 -56 -30 -23 0 -47 -7 -58 -17 -17 -15
-21 -16 -46 -1 -71 42 -143 11 -157 -66 -18 -95 69 -165 147 -119 26 15 39 17
60 9 37 -13 68 14 68 60 0 18 5 36 10 39 6 4 10 -5 10 -19 0 -14 4 -26 9 -26
5 0 11 -10 13 -21 4 -31 33 -47 56 -32 26 16 45 2 37 -28 -5 -19 1 -31 25 -54
16 -16 30 -24 30 -18 0 14 48 23 52 11 2 -6 16 13 31 41 26 46 30 50 57 44 17
-3 36 0 45 7 11 9 19 9 36 -3 19 -14 24 -14 45 0 19 12 27 13 39 3 9 -7 27
-10 44 -7 18 4 42 0 61 -9 40 -20 99 -11 122 19 l17 22 26 -25 c24 -22 28 -23
61 -11 26 9 39 10 47 2 6 -6 24 -11 39 -11 20 0 28 -5 28 -17 1 -24 24 -53 43
-53 20 0 60 48 76 91 7 19 19 48 27 65 31 64 0 135 -46 106 -17 -10 -24 -10
-44 3 -16 11 -26 13 -31 6 -11 -18 -20 -13 -39 24 -20 37 -45 45 -66 20 -11
-13 -16 -13 -40 2 -43 25 -61 12 -84 -60 -6 -17 -8 -17 -37 7 -38 33 -70 33
-100 1 -27 -28 -44 -31 -56 -11 -20 34 -70 38 -135 11 -14 -6 -18 -2 -18 17 0
25 -27 58 -47 58 -18 0 -43 -36 -43 -63 0 -34 -13 -34 -39 -1 -14 17 -21 21
-21 12 0 -11 -7 -14 -25 -10 -14 2 -25 9 -25 15 0 6 -13 -1 -28 -16 -32 -30
-47 -35 -38 -11 8 22 -24 74 -47 74 -10 0 -26 -13 -35 -30z m56 -7 c7 -11 6
-21 -3 -30 -26 -25 -47 -8 -37 30 6 22 28 22 40 0z m264 0 c6 -24 -1 -43 -17
-43 -16 0 -26 25 -19 45 8 20 31 19 36 -2z m439 -87 c-2 -68 0 -84 13 -89 20
-8 21 -26 1 -33 -31 -12 -45 21 -45 109 0 95 6 125 23 108 7 -7 10 -45 8 -95z
m99 7 c0 -70 3 -88 18 -99 24 -18 0 -44 -26 -28 -13 9 -18 29 -20 95 -3 91 3
133 18 124 6 -3 10 -45 10 -92z m-1035 9 c28 -28 33 -71 13 -115 -11 -23 -19
-27 -53 -27 -47 0 -68 24 -68 80 0 79 58 112 108 62z m153 16 c10 -10 6 -16
-19 -28 -30 -14 -32 -18 -33 -70 -1 -42 -5 -55 -16 -55 -12 0 -15 15 -15 75 0
64 3 75 17 75 9 0 20 4 24 8 11 11 28 9 42 -5z m240 -87 c3 -109 -10 -141 -57
-141 -31 0 -57 22 -46 40 3 5 18 7 32 4 16 -4 28 -2 34 7 15 24 10 28 -26 22
-28 -4 -35 -2 -35 11 0 9 -4 16 -10 16 -15 0 -12 74 5 106 8 16 15 25 15 20 0
-6 6 -4 12 2 7 7 26 12 43 10 l30 -3 3 -94z m192 85 c0 20 53 13 72 -10 19
-23 26 -130 9 -141 -15 -9 -24 15 -25 69 -1 47 -3 51 -26 51 -23 0 -25 -4 -30
-58 -7 -81 -24 -76 -28 7 -3 79 3 110 18 86 6 -8 10 -10 10 -4z m244 -11 c19
-29 21 -116 4 -133 -31 -31 -118 -3 -118 38 0 23 36 54 63 55 33 0 26 20 -8
21 -48 2 -49 3 -31 22 24 28 71 26 90 -3z m310 -36 c11 -37 15 -41 21 -24 33
84 36 88 47 77 8 -8 2 -35 -23 -101 -40 -106 -62 -142 -79 -125 -9 9 -6 21 8
48 20 36 20 37 1 98 -11 34 -17 69 -14 77 8 21 23 3 39 -50z m-912 -20 c3 -66
-8 -100 -25 -82 -9 8 -9 138 0 146 16 17 22 2 25 -64z m263 -7 c0 -99 -19 -97
-23 1 -2 61 0 78 10 75 9 -3 13 -27 13 -76z"/>
<path d="M257 12493 c-4 -3 -7 -24 -7 -45 0 -38 1 -39 32 -36 28 3 32 7 32 34
0 16 -4 35 -8 42 -8 13 -38 16 -49 5z"/>
<path d="M641 12486 c-22 -26 -9 -69 22 -77 27 -7 27 -7 27 42 0 41 -3 49 -19
49 -10 0 -24 -6 -30 -14z"/>
<path d="M1080 12422 c0 -24 52 -23 56 1 2 13 -5 17 -27 17 -21 0 -29 -5 -29
-18z"/>
<path d="M1715 12597 c-11 -16 -15 -48 -15 -118 0 -94 1 -98 27 -119 20 -16
37 -20 63 -17 43 6 70 16 70 28 0 5 5 9 10 9 7 0 8 -13 4 -35 -7 -39 7 -65 35
-65 27 0 70 52 92 111 36 95 41 117 29 139 -11 21 -49 27 -66 10 -6 -6 -21 -6
-42 2 -23 9 -35 9 -43 1 -8 -8 -23 -4 -55 14 -24 14 -47 30 -51 37 -15 24 -42
26 -58 3z m45 -46 c0 -19 4 -23 25 -19 56 11 93 -69 63 -135 -11 -24 -19 -27
-60 -27 -26 0 -50 5 -53 10 -9 15 -8 196 0 211 10 15 25 -8 25 -40z m161 -43
c7 -18 14 -39 16 -46 4 -29 12 -22 34 27 17 42 24 49 35 40 9 -8 11 -16 5 -23
-5 -6 -10 -14 -11 -18 0 -4 -8 -25 -17 -45 -8 -21 -17 -45 -18 -53 -2 -8 -4
-16 -5 -17 -2 -2 -3 -6 -5 -10 -12 -45 -49 -73 -69 -53 -8 8 -6 15 10 28 35
27 37 55 10 116 -23 52 -25 86 -6 86 4 0 14 -15 21 -32z"/>
<path d="M1760 12454 c0 -45 0 -45 32 -42 28 3 32 7 32 34 0 40 -10 54 -40 54
-22 0 -24 -4 -24 -46z"/>
<path d="M2713 12455 c-17 -7 -37 -24 -44 -36 -17 -32 -15 -94 5 -124 15 -23
15 -28 1 -47 -17 -25 -20 -90 -5 -118 5 -10 26 -28 45 -40 30 -18 47 -22 96
-18 50 4 65 9 90 35 44 43 50 99 15 140 -26 30 -26 31 -6 44 12 8 23 30 27 52
5 33 2 42 -23 69 -53 56 -132 73 -201 43z m142 -30 c39 -19 58 -51 53 -91 -4
-36 -22 -34 -26 3 -4 28 -28 63 -44 63 -4 0 -8 -17 -8 -38 0 -80 -68 -111
-124 -56 -26 27 -38 94 -16 94 6 0 10 6 10 14 0 8 6 17 13 19 27 11 111 6 142
-8z m19 -140 c3 -8 -2 -19 -11 -24 -9 -5 -18 -24 -19 -42 -2 -30 -25 -59 -46
-59 -17 0 -49 42 -44 57 3 8 6 21 6 29 0 9 11 14 28 14 16 0 37 9 47 20 22 24
31 25 39 5z m-141 -41 c4 -4 -1 -20 -10 -35 -17 -28 -17 -30 5 -52 31 -31 103
-31 134 0 20 20 21 27 11 53 -12 32 2 54 18 29 49 -74 -25 -154 -125 -135 -41
8 -86 48 -86 77 0 44 33 83 53 63z"/>
<path d="M2756 12400 c-61 -11 -60 -72 2 -78 27 -3 32 1 38 23 10 40 -5 62
-40 55z"/>
<path d="M352 12303 c-26 -10 -42 -62 -42 -138 0 -73 10 -111 34 -127 16 -11
23 -10 41 9 16 15 19 15 49 -1 21 -11 42 -15 58 -11 15 4 35 2 46 -4 40 -22
83 44 50 77 -15 15 -51 15 -66 0 -17 -17 -28 19 -14 43 15 23 15 84 2 110 -21
38 -109 62 -158 42z m123 -50 c14 -15 25 -37 25 -48 -1 -23 -22 -55 -38 -55
-24 0 -20 -20 9 -49 29 -29 32 -51 6 -51 -7 0 -27 21 -46 45 -18 25 -38 45
-45 45 -6 0 -11 -17 -11 -42 0 -32 -4 -43 -15 -43 -12 0 -16 19 -18 99 -1 55
0 106 2 113 4 8 23 13 55 13 42 0 54 -5 76 -27z m100 -163 c-3 -5 0 -10 7 -11
10 0 10 -2 0 -6 -6 -2 -10 -9 -6 -14 3 -5 -4 -9 -15 -9 -10 0 -21 6 -24 13 -7
20 4 37 25 37 10 0 16 -4 13 -10z"/>
<path d="M378 12210 l-4 -41 35 3 c65 6 68 70 4 76 -29 3 -31 1 -35 -38z"/>
<path d="M800 12299 c-29 -11 -60 -56 -60 -89 0 -13 10 -38 21 -57 20 -31 20
-35 5 -52 -22 -24 -20 -33 9 -61 20 -19 32 -22 75 -18 28 3 59 13 70 23 19 17
21 17 39 1 28 -25 83 -31 120 -12 24 13 36 14 51 6 14 -8 26 -8 40 0 14 8 25
7 39 -2 16 -10 23 -9 39 5 23 21 31 21 54 0 15 -13 23 -14 44 -4 20 9 30 9 41
0 11 -10 20 -9 43 4 24 15 29 15 40 2 16 -19 29 -19 52 2 17 15 19 15 37 -1
19 -17 21 -17 49 0 28 16 31 16 47 1 20 -21 4 -18 115 -23 120 -6 142 5 122
60 -11 30 -11 40 3 66 33 64 -4 96 -101 85 -35 -4 -64 -3 -64 2 -1 4 -12 21
-25 37 -22 28 -26 29 -49 16 -22 -11 -30 -11 -52 0 -38 21 -59 3 -57 -49 2
-45 -9 -51 -39 -24 -14 13 -40 18 -98 19 -73 3 -82 1 -111 -24 -27 -22 -33
-24 -43 -11 -6 8 -33 35 -60 59 l-48 45 -24 -28 c-13 -16 -24 -35 -24 -44 0
-11 -5 -13 -17 -8 -54 23 -114 11 -134 -26 -11 -22 -30 -24 -47 -7 -9 9 -6 17
14 33 23 19 25 24 15 44 -20 37 -77 50 -131 30z m106 -33 c15 -12 17 -17 7
-27 -10 -10 -16 -10 -25 -1 -17 17 -63 15 -79 -4 -18 -22 -2 -44 46 -61 50
-17 65 -31 65 -57 0 -53 -76 -85 -131 -55 -30 16 -13 28 31 22 41 -6 70 8 70
32 0 7 -21 20 -46 29 -73 25 -94 70 -54 114 24 26 85 30 116 8z m259 -24 c0
-30 2 -32 33 -32 20 0 31 -4 27 -10 -3 -6 0 -12 7 -15 20 -8 18 -130 -2 -130
-11 0 -16 15 -18 55 -5 95 -44 94 -46 -2 -1 -40 -5 -53 -16 -53 -12 0 -16 19
-18 99 -1 55 0 106 3 114 9 24 30 6 30 -26z m439 23 c3 -8 -2 -22 -11 -31 -14
-14 -17 -14 -25 -1 -10 19 0 47 17 47 7 0 15 -7 19 -15z m86 -25 c0 -22 5 -29
23 -32 12 -2 22 -7 22 -13 0 -5 -10 -11 -22 -13 -20 -3 -23 -9 -23 -48 0 -39
3 -46 26 -54 26 -10 24 -30 -3 -30 -33 0 -53 31 -53 81 0 29 -5 49 -12 52 -10
4 -10 7 0 18 6 7 12 25 12 39 0 15 3 30 6 33 12 12 24 -4 24 -33z m-611 -44
c16 -19 -1 -29 -34 -20 -33 8 -55 -11 -55 -46 0 -35 22 -54 55 -46 33 9 50 -1
34 -20 -17 -21 -117 -15 -104 6 3 5 1 11 -5 15 -18 11 -11 80 10 103 24 25 81
30 99 8z m316 4 c9 -8 15 -8 20 0 10 17 61 11 79 -9 13 -14 16 -33 14 -75 -4
-73 -22 -72 -28 1 -5 54 -7 58 -30 58 -23 0 -25 -4 -30 -58 -3 -31 -9 -57 -15
-57 -5 0 -12 26 -15 57 -4 50 -8 58 -25 58 -18 0 -20 -8 -23 -63 -2 -44 -7
-62 -15 -59 -12 4 -23 118 -14 141 6 15 66 19 82 6z m203 -76 c-2 -38 -7 -69
-13 -69 -11 0 -19 119 -10 143 13 34 26 -8 23 -74z m287 76 c6 -10 -55 -95
-79 -112 -6 -4 9 -8 32 -10 62 -4 52 -22 -14 -26 -69 -4 -87 9 -53 37 13 11
21 20 17 21 -3 0 8 15 25 33 l32 32 -35 3 c-47 4 -62 10 -55 22 8 13 122 13
130 0z m-125 -49 c0 -17 -12 -41 -21 -41 -10 0 -12 33 -2 43 9 10 23 9 23 -2z
m-660 -22 c0 -16 -5 -20 -27 -17 -14 2 -29 9 -31 17 -3 10 0 12 11 8 9 -3 19
-2 22 3 11 17 25 11 25 -11z"/>
<path d="M1300 11704 c-64 -25 -101 -48 -121 -76 -13 -18 -29 -39 -36 -46 -15
-16 -18 -56 -3 -47 6 3 10 11 10 16 0 5 12 27 26 49 53 80 181 113 292 76 73
-25 127 -91 137 -171 17 -139 -39 -235 -159 -275 -51 -17 -141 -8 -194 19 -42
21 -102 91 -102 118 0 7 -4 13 -10 13 -39 0 41 -111 105 -146 43 -24 62 -28
130 -28 69 0 87 4 130 27 63 35 119 112 109 151 -3 15 -2 26 4 26 12 0 12 81
0 97 -6 7 -7 20 -4 29 11 28 -53 110 -108 140 -38 21 -66 28 -120 30 -39 2
-78 1 -86 -2z"/>
<path d="M1120 11460 c0 -27 5 -50 10 -50 6 0 10 23 10 50 0 28 -4 50 -10 50
-5 0 -10 -22 -10 -50z"/>
<path d="M2447 11376 c-87 -32 -123 -147 -77 -242 14 -28 33 -48 58 -61 50
-24 136 -23 180 2 99 58 99 240 0 291 -43 22 -117 27 -161 10z m154 -33 c15
-9 33 -27 41 -42 18 -32 31 -91 19 -91 -4 0 -6 -11 -4 -23 3 -14 -2 -31 -11
-40 -9 -8 -16 -20 -16 -26 0 -6 -7 -11 -15 -11 -8 0 -15 -4 -15 -10 0 -5 -18
-14 -40 -20 -42 -11 -100 -1 -131 23 -69 54 -69 180 0 234 43 34 120 37 172 6z"/>
<path d="M2489 11289 c-61 -22 -59 -117 2 -138 39 -13 89 4 89 30 0 10 5 19
10 19 6 0 10 9 10 20 0 11 -4 20 -10 20 -5 0 -9 3 -9 8 4 21 -4 31 -32 41 -18
6 -32 11 -33 10 -1 0 -13 -5 -27 -10z m49 -41 c30 -30 -4 -77 -41 -57 -29 17
-15 69 18 69 6 0 16 -5 23 -12z"/>
<path d="M2240 11185 c-53 -27 -130 -92 -130 -108 -1 -19 -50 -74 -51 -57 0 8
-7 -7 -15 -34 -9 -27 -22 -58 -29 -70 -7 -12 -16 -39 -20 -61 -11 -62 -13
-255 -4 -255 5 0 9 -12 9 -28 0 -15 6 -36 14 -47 8 -11 20 -39 27 -63 7 -25
15 -38 20 -31 4 8 9 5 13 -9 4 -11 13 -23 21 -26 8 -3 15 -13 15 -23 0 -18 72
-81 127 -112 15 -9 30 -19 34 -23 3 -4 19 -4 36 1 l31 9 4 -80 c3 -50 10 -84
19 -92 17 -16 139 -30 139 -16 0 10 35 9 45 -2 3 -3 29 -3 58 0 79 7 90 22 88
126 -1 85 5 100 29 71 7 -8 20 -15 29 -15 33 0 120 61 151 105 l31 45 -2 327
c0 180 -5 339 -11 353 -20 53 -119 130 -167 130 -24 0 -45 -25 -35 -42 4 -7
21 -24 38 -38 17 -14 45 -38 62 -55 l31 -30 1 -304 c0 -201 -3 -312 -10 -325
-12 -23 -68 -75 -81 -76 -4 0 -19 -12 -32 -26 l-24 -26 -5 24 c-3 12 -7 36 -8
53 -4 45 -31 53 -185 51 -151 -1 -163 -7 -163 -73 0 -35 -10 -41 -32 -20 -7 7
-29 22 -48 34 -47 29 -93 78 -124 133 -14 25 -26 38 -26 30 -1 -17 -27 47 -40
100 -18 66 -12 190 12 262 12 37 24 66 26 63 3 -3 15 10 26 29 30 48 73 95
131 141 78 62 76 60 59 84 -19 26 -28 26 -84 -4z m70 0 c0 -8 -27 -32 -59 -54
-66 -45 -138 -125 -170 -188 -12 -24 -19 -43 -16 -43 3 0 -2 -11 -11 -24 -8
-14 -14 -33 -13 -43 1 -10 -1 -26 -6 -35 -4 -10 -4 -25 -1 -34 4 -9 1 -23 -5
-30 -6 -7 -7 -19 -3 -26 4 -6 9 -34 10 -61 3 -52 21 -107 35 -107 5 0 6 -7 3
-15 -4 -8 -1 -15 6 -15 6 0 9 -3 6 -8 -2 -4 1 -17 7 -29 20 -36 118 -143 127
-138 4 3 11 -2 14 -11 3 -8 10 -12 16 -9 5 3 10 1 10 -5 0 -6 4 -9 9 -6 5 3
12 -1 15 -10 3 -8 10 -12 16 -9 5 3 10 -3 10 -15 0 -24 1 -24 -80 30 -160 108
-246 310 -215 505 22 145 89 248 220 338 33 22 62 44 63 49 6 13 12 9 12 -7z
m481 -28 c20 -12 50 -34 68 -49 l31 -27 0 -356 0 -356 -37 -32 c-37 -33 -102
-76 -115 -77 -19 0 -6 29 15 36 12 3 43 23 70 42 l47 36 0 346 0 347 -37 30
c-21 16 -53 38 -70 48 -18 11 -33 23 -33 27 0 14 24 8 61 -15z m-121 -926 l0
-149 -150 1 -150 0 0 149 0 148 150 0 150 0 0 -149z"/>
<path d="M2489 10299 c-37 -14 -55 -60 -39 -99 7 -16 16 -31 21 -31 5 -1 13
-2 18 -3 5 0 13 -4 17 -8 4 -4 14 -2 22 5 8 6 17 11 19 10 11 -9 24 1 39 28
21 41 5 83 -38 98 -17 6 -31 11 -32 10 -1 0 -13 -5 -27 -10z m56 -64 c0 -27
-3 -30 -30 -30 -24 0 -31 5 -33 24 -4 27 13 42 43 39 15 -2 20 -11 20 -33z"/>
<path d="M2450 10883 c-47 -20 -69 -41 -86 -82 -31 -75 -6 -177 53 -217 21
-14 46 -19 99 -19 62 0 75 3 107 28 70 53 82 172 25 241 -51 62 -125 81 -198
49z m111 -15 c22 -6 39 -15 39 -20 0 -4 6 -8 13 -8 15 0 52 -74 43 -88 -3 -6
0 -12 6 -15 10 -3 10 -7 1 -17 -6 -7 -9 -18 -6 -26 2 -7 -3 -26 -12 -42 -52
-88 -198 -88 -250 0 -23 40 -23 120 1 155 22 36 42 51 79 62 41 13 42 13 86
-1z"/>
<path d="M2489 10798 c-37 -12 -55 -58 -39 -97 24 -59 116 -60 140 -1 24 58
-39 119 -101 98z m59 -70 c2 -19 -2 -28 -18 -33 -24 -8 -50 10 -50 35 0 24 10
31 40 28 19 -2 26 -10 28 -30z"/>
<path d="M1892 10644 c-13 -9 -50 -18 -85 -20 -34 -2 -72 -9 -84 -15 -29 -16
-30 -57 -3 -92 25 -32 25 -33 -5 -63 -24 -24 -31 -51 -26 -102 4 -47 57 -82
123 -82 64 0 114 17 133 46 25 39 38 133 21 159 -9 13 -11 27 -5 36 14 26 4
107 -16 129 -22 24 -24 24 -53 4z m43 -75 c0 -50 -3 -64 -15 -64 -9 0 -16 11
-18 28 -3 26 -5 27 -63 27 -59 0 -69 -6 -47 -28 8 -8 9 -15 1 -23 -7 -7 -19
-1 -40 20 -17 17 -28 33 -25 36 3 3 0 5 -7 5 -7 0 -9 5 -6 10 3 6 46 10 96 10
80 0 89 2 89 18 0 22 10 34 24 29 6 -2 11 -31 11 -68z m-67 -62 c2 -12 -3 -17
-17 -17 -23 0 -24 1 -15 25 8 19 28 15 32 -8z m87 -48 c4 -6 -1 -16 -10 -23
-14 -10 -16 -21 -11 -49 6 -30 3 -40 -16 -59 -20 -20 -33 -23 -96 -23 -63 0
-75 3 -85 20 -16 26 -26 85 -15 85 4 0 8 7 8 15 0 8 9 19 19 25 25 13 116 13
141 0 13 -7 21 -6 30 5 15 18 26 19 35 4z"/>
<path d="M1766 10414 c-22 -21 -20 -61 3 -74 11 -5 40 -10 65 -10 43 0 45 1
34 19 -9 15 -8 24 5 44 9 14 13 27 10 31 -13 13 -102 6 -117 -10z"/>
<path d="M2438 9121 l-48 -44 0 -75 c0 -71 2 -77 35 -118 23 -27 50 -47 77
-57 32 -11 42 -19 41 -33 -2 -10 -4 -36 -6 -56 -4 -53 -16 -60 -86 -56 -34 1
-61 0 -61 -3 0 -4 -11 -9 -25 -11 -17 -4 -25 0 -27 11 -3 13 -11 9 -36 -16
l-32 -31 0 -634 c0 -541 2 -637 15 -655 15 -21 55 -38 55 -22 0 5 11 9 25 9
14 0 25 -4 25 -8 0 -5 27 -6 61 -4 33 3 64 1 69 -4 4 -5 10 -33 12 -63 3 -54
3 -54 -32 -66 -19 -7 -34 -17 -33 -22 1 -6 -8 -16 -21 -23 -46 -24 -64 -137
-32 -204 25 -52 125 -121 141 -96 3 4 17 5 33 1 34 -10 89 16 126 59 33 40 39
66 34 138 -5 70 -35 116 -95 143 -43 19 -43 20 -43 73 0 40 4 55 16 60 9 3 60
6 115 6 124 0 134 8 145 107 4 37 4 324 1 638 -6 526 -8 571 -25 587 -13 14
-39 19 -112 22 -129 6 -137 9 -139 54 0 21 -2 47 -5 59 -4 21 4 27 66 47 10 3
31 24 48 47 26 37 30 50 30 108 0 54 -5 73 -25 104 -37 53 -76 71 -165 72
l-75 0 -47 -44z m212 6 c32 -15 51 -33 43 -41 -3 -3 2 -8 11 -12 9 -3 13 -10
10 -15 -3 -5 0 -9 6 -9 8 0 10 -9 6 -24 -4 -15 -1 -26 7 -29 9 -4 9 -7 -1 -15
-7 -5 -10 -16 -7 -24 4 -9 -2 -26 -12 -37 -10 -12 -18 -25 -17 -29 2 -24 -67
-55 -121 -54 -88 1 -147 62 -147 151 0 122 110 190 222 138z m-60 -407 l0 -69
128 -3 127 -3 3 -647 2 -648 -130 0 -130 0 0 -75 c0 -62 -3 -75 -16 -75 -13 0
-15 12 -12 75 l3 75 -133 0 -132 0 2 648 3 647 130 3 130 3 -3 55 c-4 59 1 84
18 84 6 0 10 -28 10 -70z m16 -1553 c35 13 132 -85 118 -121 -3 -8 0 -17 6
-21 8 -5 8 -10 0 -20 -7 -8 -9 -18 -6 -23 10 -17 -24 -71 -60 -93 -58 -35
-153 -27 -201 17 -6 6 -18 32 -27 58 -18 51 -11 107 18 151 19 29 72 59 92 51
7 -3 16 0 20 5 4 7 10 7 16 1 6 -6 17 -8 24 -5z"/>
<path d="M2549 9059 c-37 -14 -55 -60 -39 -98 16 -40 59 -55 103 -36 17 8 29
14 25 15 -4 0 -1 15 7 34 8 19 11 36 6 38 -5 2 -11 10 -13 18 -2 11 -54 44
-62 39 0 0 -13 -5 -27 -10z m45 -35 c23 -9 21 -60 -3 -67 -40 -10 -68 32 -39
61 14 14 20 14 42 6z"/>
<path d="M2320 7995 l0 -625 255 0 255 0 0 625 0 625 -255 0 -255 0 0 -625z
m70 588 c0 -12 3 -14 8 -6 10 15 360 21 386 6 18 -10 19 -39 24 -577 5 -533 4
-567 -13 -586 -16 -18 -31 -19 -198 -19 -114 0 -186 4 -194 11 -10 8 -13 6
-13 -6 0 -19 -9 -20 -32 -2 -17 12 -18 53 -18 599 0 549 1 586 18 590 30 8 32
7 32 -10z"/>
<path d="M2549 7088 c-37 -12 -55 -58 -40 -97 31 -74 139 -56 144 24 0 6 -5
22 -13 37 -16 33 -55 48 -91 36z m59 -67 c5 -31 -11 -45 -42 -37 -19 5 -26 13
-26 30 0 30 9 38 40 34 18 -2 26 -10 28 -27z"/>
<path d="M1502 6717 c-19 -20 -22 -35 -22 -115 0 -78 3 -95 20 -112 21 -21 45
-18 54 6 6 15 31 10 59 -14 14 -12 22 -13 42 -4 21 10 31 9 51 -4 32 -21 108
-14 133 13 28 29 33 96 10 139 -12 25 -15 42 -9 54 6 11 4 24 -6 38 -20 29
-107 31 -136 5 -19 -17 -21 -17 -50 0 -45 26 -119 23 -146 -6z m138 -29 c27
-29 25 -61 -4 -89 l-25 -24 26 -33 c19 -26 22 -37 14 -45 -8 -8 -14 -9 -19 -1
-30 44 -67 84 -78 84 -8 0 -14 -15 -16 -42 -2 -24 -7 -43 -13 -43 -10 0 -20
178 -11 202 4 8 23 13 55 13 39 0 55 -5 71 -22z m183 7 c1 -5 -17 -11 -39 -13
-32 -2 -43 -8 -47 -23 -4 -16 0 -19 33 -19 29 0 41 -6 54 -25 19 -29 20 -83 2
-107 -18 -25 -111 -25 -120 -1 -8 19 8 40 18 24 10 -15 61 -14 73 2 25 30 5
77 -31 77 -12 0 -27 -5 -34 -12 -22 -22 -34 5 -26 61 l7 52 53 -3 c30 -2 55
-7 57 -13z"/>
<path d="M1540 6644 c0 -34 1 -35 36 -32 71 6 68 68 -2 68 -32 0 -34 -2 -34
-36z"/>
<path d="M2470 6702 c-41 -2 -79 -7 -84 -12 -6 -6 -23 -10 -38 -10 -15 0 -28
-4 -28 -10 0 -15 -42 -11 -64 5 -11 8 -39 15 -62 15 -37 0 -47 -5 -68 -33 -32
-41 -34 -88 -6 -128 l21 -28 -22 -39 c-56 -96 62 -199 181 -158 24 8 47 13 52
10 12 -7 9 -502 -3 -510 -6 -4 -5 -14 3 -27 20 -32 22 -81 3 -74 -11 5 -12 1
-5 -19 6 -14 10 -119 10 -233 0 -182 2 -210 17 -222 12 -11 65 -14 239 -14
201 0 225 2 241 18 17 17 18 56 18 645 0 678 -3 784 -23 804 -13 13 -240 29
-248 17 -4 -6 -34 -6 -49 1 -6 3 -44 4 -85 2z m372 -747 l3 -715 -227 0 -228
0 0 715 0 715 225 0 225 0 2 -715z m-555 653 l43 -42 0 48 c0 34 4 46 13 44
15 -6 22 -127 7 -142 -7 -7 -29 8 -73 52 -34 34 -69 62 -78 62 -21 0 -39 -20
-39 -45 0 -12 5 -26 12 -33 9 -9 9 -15 0 -24 -9 -9 -15 -8 -27 8 -21 28 -18
77 6 103 32 34 81 23 136 -31z m-29 -69 c37 -37 40 -44 35 -82 -7 -56 -24 -74
-60 -61 -37 12 -50 66 -37 147 3 20 10 37 14 37 5 0 26 -18 48 -41z m-83 -68
c3 -5 0 -21 -7 -36 -17 -39 17 -70 77 -70 60 0 94 31 77 70 -12 27 -9 45 9 45
5 0 9 -7 9 -15 0 -8 5 -15 10 -15 15 0 12 -47 -5 -79 -15 -30 -40 -45 -56 -35
-5 3 -9 0 -9 -5 0 -6 -16 -11 -35 -11 -19 0 -35 5 -35 11 0 5 -4 8 -9 5 -16
-10 -41 5 -56 35 -18 34 -19 63 -3 89 14 22 24 25 33 11z"/>
<path d="M2410 5955 l0 -695 205 0 205 0 0 695 0 695 -205 0 -205 0 0 -695z
m100 656 c0 -16 -59 -75 -66 -68 -15 15 -12 57 4 67 22 12 62 13 62 1z m276
-3 c4 -6 8 -24 9 -40 2 -21 -2 -28 -15 -28 -10 0 -21 9 -25 19 -3 11 -12 22
-20 25 -8 3 -15 12 -15 21 0 18 55 21 66 3z m-94 -30 c30 -11 68 -64 68 -95 0
-10 5 -24 11 -30 8 -8 8 -13 0 -17 -6 -4 -11 -17 -11 -28 0 -49 -73 -123 -108
-111 -7 3 -19 0 -26 -7 -11 -8 -16 -8 -21 0 -4 7 -15 10 -25 7 -27 -7 -76 27
-96 65 -22 42 -22 124 0 165 33 64 120 85 208 51z m-211 -257 c25 -34 121 -66
166 -55 42 10 85 34 110 60 12 13 26 24 30 24 4 0 8 -176 8 -390 0 -426 1
-418 -56 -361 -40 40 -114 56 -186 40 -29 -7 -53 -18 -53 -24 0 -7 -7 -18 -15
-25 -25 -21 -55 14 -55 63 0 31 3 38 15 33 13 -5 14 -2 4 17 -12 21 -21 569
-11 625 6 30 17 28 43 -7z m216 -719 c26 -14 63 -72 63 -99 0 -10 5 -24 11
-30 8 -8 8 -13 0 -17 -6 -4 -11 -18 -11 -31 0 -13 -7 -30 -15 -39 -8 -8 -15
-19 -15 -25 0 -19 -62 -43 -111 -44 -97 -2 -150 51 -151 147 -1 85 39 139 115
155 35 8 80 1 114 -17z m-209 -262 c39 -36 41 -50 5 -50 -39 1 -61 21 -60 53
2 34 14 34 55 -3z m307 6 c-2 -32 -20 -53 -50 -59 -20 -3 -25 0 -25 15 0 10 7
21 15 24 8 3 17 14 20 25 9 29 41 24 40 -5z"/>
<path d="M2580 6507 c-34 -17 -47 -57 -30 -96 7 -17 20 -31 29 -31 9 0 22 -5
28 -11 8 -8 13 -8 17 0 4 6 15 11 25 11 19 0 41 38 41 69 0 48 -65 82 -110 58z
m65 -62 c0 -27 -3 -30 -30 -30 -21 0 -31 5 -33 18 -6 33 6 49 35 45 24 -3 28
-8 28 -33z"/>
<path d="M2589 5538 c-37 -12 -55 -58 -39 -97 25 -61 105 -62 130 -2 25 62
-28 120 -91 99z m59 -70 c2 -19 -2 -28 -18 -33 -24 -8 -50 10 -50 35 0 24 10
31 40 28 19 -2 26 -10 28 -30z"/>
<path d="M1130 6685 c-55 -17 -87 -45 -107 -94 -20 -45 -18 -123 4 -168 17
-37 76 -83 107 -83 16 0 18 -5 12 -37 -3 -21 -6 -49 -6 -63 0 -20 -7 -29 -33
-38 -40 -15 -127 -16 -127 -2 0 6 -7 10 -15 10 -8 0 -15 -4 -15 -8 0 -4 -15
-12 -32 -17 l-33 -10 -6 -220 c-8 -288 -8 -1022 0 -1060 5 -22 14 -32 39 -39
17 -5 32 -13 32 -17 0 -5 12 -4 26 1 14 6 51 10 83 10 73 0 88 -15 87 -85 l-1
-50 -43 -10 c-24 -6 -40 -14 -37 -17 10 -10 -19 -49 -32 -43 -8 3 -13 -4 -13
-18 0 -12 -7 -33 -16 -45 -8 -12 -11 -22 -6 -22 5 0 12 -11 14 -25 4 -18 1
-25 -11 -25 -9 0 -12 -3 -6 -8 6 -4 23 -31 37 -59 24 -47 25 -53 9 -53 -32 0
-67 -51 -81 -118 -12 -61 -12 -63 11 -89 l24 -27 -33 27 c-22 18 -45 27 -68
27 -39 0 -50 16 -40 55 5 20 13 25 37 25 67 0 89 38 46 78 -35 33 -98 30 -139
-7 -32 -28 -33 -33 -37 -115 l-3 -85 -295 -3 -295 -3 -19 -24 c-17 -21 -19
-41 -19 -236 0 -265 -6 -254 130 -256 52 0 103 2 112 6 10 4 25 4 35 1 9 -4
275 -7 592 -6 574 0 576 0 594 21 15 19 17 46 17 234 0 195 -2 215 -19 236
-19 24 -22 24 -234 27 l-215 3 1 49 c1 32 -5 56 -19 75 -27 38 -54 88 -50 93
2 2 31 -2 64 -8 51 -10 68 -10 110 4 56 19 75 36 97 89 44 105 -4 215 -110
250 -5 2 -10 27 -11 55 -1 50 18 86 42 81 5 -1 50 -1 101 0 69 1 95 5 107 17
14 14 16 75 16 520 0 374 3 504 12 504 6 0 4 7 -5 18 -10 10 -17 33 -17 52 0
29 2 31 17 19 15 -13 15 -12 5 8 -7 12 -12 55 -12 96 0 96 -11 107 -103 107
-38 0 -67 4 -67 10 0 6 -12 10 -26 10 -14 0 -23 -4 -19 -10 9 -14 -29 -12 -43
2 -14 14 -16 48 -2 48 6 0 6 9 -1 26 -14 38 -4 56 39 77 126 60 125 264 -3
322 -49 22 -87 25 -135 10z m102 -25 c9 0 23 -6 30 -13 7 -7 20 -16 29 -19 24
-9 50 -106 40 -148 -12 -53 -27 -76 -66 -100 -75 -46 -186 -16 -218 60 -6 14
-9 31 -8 38 1 8 -3 19 -9 27 -8 10 -8 15 0 20 6 4 9 14 6 22 -8 20 19 70 49
89 31 20 83 34 110 28 11 -2 28 -4 37 -4z m-29 -385 c-2 -33 -5 -70 -7 -82 -3
-22 -1 -22 128 -25 l131 -3 3 -647 2 -648 -132 0 -133 0 0 -72 c0 -48 -4 -73
-12 -75 -10 -4 -13 15 -13 71 l0 75 -130 3 -130 3 -3 642 c-2 528 0 644 11
648 8 3 67 5 133 5 l119 0 0 70 c0 57 3 70 16 70 8 0 13 4 9 10 -3 5 -13 6
-22 3 -10 -4 -14 -2 -9 5 3 6 15 10 25 9 17 -1 18 -8 14 -62z m59 -1601 c95
-48 92 -220 -5 -270 -36 -19 -115 -21 -146 -4 -30 16 -61 47 -54 54 4 3 1 6
-6 6 -7 0 -9 5 -6 10 3 6 2 10 -3 10 -5 0 -8 10 -7 23 1 12 -3 25 -9 30 -8 5
-7 10 3 16 8 5 12 18 8 29 -2 12 -1 22 5 24 5 2 10 10 11 18 4 25 17 39 50 54
59 27 105 27 159 0z m-207 -313 c3 -6 -4 -34 -15 -63 -26 -68 -25 -70 8 -66
21 2 26 8 24 24 -1 12 4 27 12 33 13 11 16 8 21 -16 4 -15 10 -36 16 -45 6
-11 6 -18 0 -18 -5 0 -11 -15 -13 -32 -4 -42 -33 -46 -33 -5 1 25 -2 27 -40
27 -47 0 -71 16 -54 37 7 7 8 13 4 13 -4 0 -2 7 5 15 7 8 9 15 5 15 -4 0 -2 7
5 15 7 8 10 15 6 15 -4 0 0 14 9 30 16 31 29 37 40 21z m-124 -23 c12 -18 -8
-35 -23 -20 -17 17 -48 15 -70 -5 -24 -21 -25 -105 -2 -132 17 -19 46 -18 72
2 17 13 35 -4 27 -25 -4 -10 -22 -15 -59 -17 -47 -1 -55 2 -70 23 -35 55 -15
170 34 189 23 9 82 -1 91 -15z m647 -440 l2 -228 -712 0 -713 0 3 217 c1 120
4 224 7 230 3 10 156 12 707 10 l703 -2 3 -227z"/>
<path d="M1150 6579 c-14 -5 -31 -22 -38 -38 -11 -26 -11 -34 5 -58 20 -32 34
-44 44 -37 4 2 10 0 14 -5 11 -18 63 9 75 40 16 37 -1 82 -36 98 -29 13 -30
13 -64 0z m58 -38 c8 -4 12 -19 10 -32 -2 -19 -9 -24 -33 -24 -24 0 -31 5 -33
24 -4 23 11 41 33 41 6 0 16 -4 23 -9z"/>
<path d="M930 5525 l0 -625 255 0 255 0 0 625 0 625 -255 0 -255 0 0 -625z
m431 589 c6 -8 17 -14 23 -14 15 0 36 -48 36 -83 0 -26 -2 -28 -17 -16 -15 13
-15 12 -5 -8 9 -16 11 -159 10 -540 l-3 -518 -217 -3 -218 -2 -2 402 c-5 734
-4 760 10 775 16 16 259 17 300 2 20 -8 23 -7 14 4 -9 10 -4 13 23 14 19 1 39
-5 46 -13z"/>
<path d="M1150 4607 c-14 -7 -26 -19 -28 -27 -2 -8 -8 -16 -13 -18 -12 -5 -12
-39 0 -44 5 -1 11 -10 13 -18 5 -24 54 -41 87 -29 64 22 63 116 -1 138 -17 6
-31 11 -32 10 -1 0 -12 -6 -26 -12z m70 -67 c0 -26 -36 -45 -56 -29 -33 27 0
78 38 58 10 -5 18 -18 18 -29z"/>
<path d="M180 3895 l0 -205 690 0 690 0 0 205 0 205 -690 0 -690 0 0 -205z
m110 177 c0 -4 -18 -26 -40 -47 l-40 -39 0 31 c0 51 9 63 46 63 19 0 34 -4 34
-8z m960 -3 c0 -6 -16 -29 -35 -52 -19 -22 -33 -42 -31 -44 2 -3 0 -20 -6 -39
-12 -45 13 -136 48 -170 13 -14 24 -29 24 -34 0 -6 -147 -10 -385 -10 -371 0
-385 1 -376 18 5 10 17 25 26 32 25 21 45 78 45 127 0 47 -28 121 -55 143 -8
7 -15 19 -15 26 0 12 64 14 380 14 268 0 380 -3 380 -11z m268 -1 c7 -7 12
-26 12 -44 0 -27 -3 -31 -20 -27 -11 3 -20 9 -20 14 0 5 -9 18 -20 29 -11 11
-20 25 -20 30 0 14 54 12 68 -2z m-1051 -36 c26 -14 63 -72 63 -99 0 -10 5
-24 12 -31 9 -9 9 -12 0 -12 -7 0 -12 -10 -12 -23 0 -12 -7 -32 -15 -43 -8
-12 -12 -23 -10 -26 3 -2 -14 -15 -37 -28 -67 -37 -150 -29 -198 21 -16 17
-20 28 -28 72 -2 15 -9 27 -15 27 -7 0 -7 4 1 12 7 7 12 21 12 33 0 28 34 81
62 96 52 28 114 28 165 1z m965 2 c67 -34 92 -147 48 -219 -57 -93 -208 -91
-263 3 -24 41 -25 117 -3 160 37 72 135 97 218 56z m-1175 -266 c18 -18 33
-36 33 -40 0 -13 -55 -9 -68 4 -13 13 -17 68 -5 68 4 0 22 -14 40 -32z m1273
4 c0 -36 -16 -52 -52 -52 -35 0 -36 17 0 51 36 35 52 36 52 1z"/>
<path d="M359 3968 c-30 -10 -54 -56 -45 -85 3 -10 6 -22 7 -28 1 -5 16 -16
32 -23 41 -17 81 -1 97 39 25 60 -29 118 -91 97z m58 -54 c8 -22 -10 -49 -32
-49 -10 0 -22 7 -28 16 -15 24 -1 49 28 49 15 0 28 -7 32 -16z"/>
<path d="M1319 3969 c-15 -6 -32 -23 -39 -39 -26 -64 33 -122 99 -99 64 22 63
116 -1 138 -17 6 -31 11 -32 10 -1 0 -13 -5 -27 -10z m71 -67 c0 -42 -51 -57
-71 -20 -10 18 -8 24 11 40 26 21 60 9 60 -20z"/>
<path d="M1800 6332 c-37 -13 -45 -35 -46 -126 -1 -50 3 -100 9 -113 13 -30
42 -38 68 -19 20 14 24 13 46 -4 20 -16 29 -17 49 -8 19 9 30 9 45 0 10 -7 41
-12 68 -12 43 0 53 4 75 31 20 23 26 42 26 78 0 26 -5 52 -11 58 -7 7 -8 22
-1 47 9 32 8 38 -15 56 -33 26 -107 27 -148 2 -26 -16 -33 -17 -51 -5 -23 15
-90 24 -114 15z m88 -28 c12 -4 22 -13 22 -20 0 -8 5 -14 10 -14 6 0 10 -13
10 -29 0 -20 -9 -36 -27 -50 -17 -13 -24 -24 -18 -28 19 -15 46 -64 40 -73
-13 -21 -31 -8 -58 40 -16 28 -32 50 -37 50 -5 0 -10 -21 -12 -47 -2 -35 -7
-48 -18 -48 -12 0 -15 18 -17 100 0 56 3 105 9 113 11 13 58 16 96 6z m219
-11 c4 -11 -3 -23 -21 -38 l-27 -22 25 -17 c33 -21 36 -81 6 -114 -28 -30
-104 -31 -120 -2 -9 16 -7 22 6 27 10 4 19 2 22 -5 5 -16 55 -15 70 0 7 7 12
25 12 40 0 24 -5 30 -30 35 -43 8 -47 23 -17 49 37 32 34 38 -18 31 -43 -6
-63 3 -50 23 3 6 35 10 71 10 51 0 66 -3 71 -17z m-90 -118 c19 -14 11 -20
-40 -29 -29 -6 -39 -4 -43 9 -4 9 -2 21 5 28 6 6 11 18 11 27 0 9 5 21 12 28
9 9 15 5 25 -20 7 -17 21 -36 30 -43z"/>
<path d="M1820 6246 c0 -33 2 -36 30 -36 55 0 51 62 -4 68 -24 3 -26 0 -26
-32z"/>
<path d="M1854 5987 c-17 -6 -35 -20 -40 -31 -5 -12 -15 -20 -22 -19 -6 2 -19
-22 -28 -53 -13 -47 -14 -67 -5 -113 14 -71 61 -121 116 -121 34 0 49 -20 26
-35 -6 -3 -7 -28 -4 -57 6 -46 4 -51 -11 -45 -10 4 -23 4 -29 0 -6 -4 -51 -7
-101 -8 -129 -2 -121 15 -129 -307 -10 -399 -4 -989 10 -1014 15 -27 51 -34
164 -34 64 0 89 -4 90 -12 1 -7 2 -35 3 -61 2 -46 1 -49 -33 -63 -69 -29 -106
-87 -106 -164 0 -90 51 -154 136 -172 121 -25 209 37 217 152 7 95 -21 147
-95 181 -42 19 -43 20 -43 69 0 68 17 77 144 78 60 0 103 5 110 12 8 8 12 145
14 477 2 287 6 471 12 478 7 9 5 16 -5 25 -8 7 -15 28 -15 47 0 32 2 34 17 22
15 -13 15 -12 5 8 -7 13 -12 67 -12 131 0 140 -1 141 -134 144 -112 2 -135 14
-138 75 -1 18 -2 41 -2 50 -1 10 10 19 25 24 158 42 165 286 10 338 -40 13
-104 12 -147 -2z m158 -33 c95 -49 93 -220 -4 -270 -39 -20 -107 -20 -148 1
-34 18 -76 80 -72 106 2 10 -2 20 -8 24 -8 5 -8 11 1 21 6 7 9 20 6 29 -4 8 2
22 11 31 9 10 15 20 13 23 -6 10 45 43 80 51 39 9 82 4 121 -16z m-64 -404
l-3 -70 130 -2 130 -3 3 -647 2 -648 -132 0 -133 0 3 -75 c3 -63 1 -75 -12
-75 -13 0 -16 13 -16 75 l0 75 -130 0 -130 0 2 648 3 647 128 3 127 3 0 69 c0
57 3 70 16 70 13 0 15 -11 12 -70z m70 -1572 c42 -26 64 -70 64 -128 0 -26 -7
-60 -16 -77 -43 -83 -172 -102 -248 -35 -10 8 -15 19 -12 23 3 5 0 9 -6 9 -6
0 -8 5 -5 10 3 6 2 10 -3 10 -6 0 -8 9 -5 21 4 12 0 25 -8 30 -12 8 -12 10 0
18 8 5 11 16 6 30 -3 11 -3 21 2 21 5 0 17 15 27 34 10 19 28 38 40 42 74 25
111 24 164 -8z"/>
<path d="M1900 5889 c-14 -5 -31 -22 -38 -38 -25 -56 38 -120 99 -99 62 21 59
116 -3 137 -17 6 -31 11 -32 10 -1 0 -12 -5 -26 -10z m58 -38 c8 -4 12 -19 10
-32 -2 -19 -9 -24 -33 -24 -21 0 -31 5 -33 18 -8 40 22 60 56 38z"/>
<path d="M1680 4832 l0 -627 255 0 255 0 0 627 0 627 -255 1 -255 0 0 -628z
m360 593 c17 -9 30 -11 30 -6 0 14 62 10 77 -5 15 -15 18 -88 3 -79 -16 10
-12 -11 5 -25 8 -7 15 -28 15 -48 l0 -35 -22 19 -22 19 15 -25 c14 -21 17 -94
23 -500 6 -462 6 -476 -13 -492 -28 -24 -404 -27 -427 -4 -13 14 -15 90 -14
588 0 414 4 575 12 585 9 11 36 13 117 11 58 -2 114 -7 124 -12 13 -6 16 -5
11 8 -8 21 26 22 66 1z"/>
<path d="M1910 3918 c-14 -4 -34 -24 -44 -43 -17 -31 -17 -35 -2 -50 9 -9 14
-20 11 -25 -3 -4 9 -13 25 -19 42 -14 85 3 100 40 25 60 -29 118 -90 97z m57
-54 c8 -22 -10 -49 -32 -49 -10 0 -22 7 -28 16 -15 24 -1 49 28 49 15 0 28 -7
32 -16z"/>
<path d="M2381 5059 c-7 -16 -16 -27 -20 -24 -4 2 -6 -22 -5 -53 2 -31 3 -346
4 -699 0 -629 0 -643 20 -663 18 -18 33 -20 171 -20 l151 0 -7 -22 c-16 -49
-16 -105 -1 -142 11 -27 13 -43 6 -56 -20 -38 -12 -98 19 -132 28 -32 32 -33
105 -33 69 0 78 2 103 27 23 24 27 35 25 80 -2 57 -2 78 1 176 2 60 0 65 -27
87 -17 13 -33 22 -36 20 -21 -13 -26 16 -19 100 12 146 4 1316 -9 1342 -19 35
-65 42 -273 41 l-195 -1 -13 -28z m457 -718 l2 -711 -225 0 -225 0 0 708 c0
390 2 711 4 713 2 2 103 3 223 2 l218 -1 3 -711z m-31 -793 c11 16 25 22 53
22 52 0 80 -27 80 -76 -1 -47 -24 -84 -42 -66 -9 9 -9 15 0 24 17 17 15 63 -2
78 -23 19 -59 8 -74 -22 -16 -33 -23 -34 -47 -8 -28 31 -38 24 -32 -19 5 -42
-4 -68 -22 -57 -15 10 -14 129 1 144 9 9 18 6 41 -16 l29 -27 15 23z m75 -126
c9 -17 9 -25 1 -30 -6 -4 -13 -23 -15 -42 -3 -30 -7 -35 -31 -38 -33 -4 -60
15 -52 36 3 8 -1 25 -10 38 -18 28 -5 74 22 74 10 0 29 9 43 20 l25 19 3 -27
c1 -15 8 -37 14 -50z m-128 -38 c14 -5 14 -9 -1 -35 -17 -28 -17 -30 5 -52 31
-31 103 -31 134 0 19 20 20 25 9 49 -8 19 -9 30 -2 37 14 14 40 -19 41 -51 0
-27 -26 -81 -40 -83 -10 -2 -25 -5 -37 -9 -15 -4 -58 1 -91 11 -32 10 -62 51
-62 84 0 13 20 55 27 55 1 0 8 -3 17 -6z"/>
<path d="M2410 4340 l0 -690 205 0 205 0 0 690 0 690 -205 0 -205 0 0 -690z
m69 651 c21 -16 22 -20 10 -39 -17 -27 -21 -27 -43 -3 -11 13 -15 27 -11 40 8
25 13 26 44 2z m267 10 c12 10 18 8 29 -7 8 -10 13 -27 11 -36 -2 -10 0 -18 5
-18 5 0 9 -4 9 -10 0 -17 -17 -11 -49 17 -17 15 -31 37 -30 48 0 11 3 14 6 7
4 -10 8 -10 19 -1z m-94 -28 c35 12 108 -62 108 -110 0 -10 5 -24 11 -30 8 -8
8 -13 0 -17 -6 -4 -11 -17 -11 -28 0 -33 -37 -85 -72 -99 -42 -17 -117 -15
-156 5 -17 9 -39 31 -48 48 -22 42 -22 124 0 166 20 38 73 74 98 66 9 -2 19 0
23 6 5 8 11 8 21 0 7 -7 19 -10 26 -7z m-120 -306 c70 -33 163 -18 221 37 15
14 31 26 35 26 4 0 6 -174 4 -387 -2 -299 -5 -387 -14 -385 -7 2 -24 16 -38
31 -30 33 -105 54 -158 45 -42 -7 -74 -25 -114 -62 -34 -31 -30 -78 -32 380
-1 238 3 369 9 371 6 2 19 -6 30 -17 11 -12 36 -29 57 -39z m160 -673 c30 -15
68 -72 68 -101 0 -10 5 -24 12 -31 9 -9 9 -12 -1 -12 -7 0 -11 -9 -9 -22 2
-13 -5 -32 -14 -42 -10 -10 -15 -22 -13 -26 2 -4 -14 -17 -37 -30 -110 -62
-230 6 -230 129 0 124 111 191 224 135z m102 -251 c-13 -62 -14 -63 -50 -63
-19 0 -34 3 -34 8 1 15 50 62 65 62 8 0 15 5 15 10 0 6 2 10 5 10 3 0 3 -12
-1 -27z m-309 -14 c43 -38 44 -49 6 -49 -33 0 -56 23 -56 57 -1 30 7 29 50 -8z"/>
<path d="M2605 4901 c-3 -6 -10 -9 -15 -6 -12 8 -39 -22 -47 -53 -14 -57 49
-107 104 -80 37 17 50 57 33 97 -7 17 -20 31 -29 31 -9 0 -22 5 -28 11 -8 8
-13 8 -18 0z m43 -72 c2 -18 -3 -29 -14 -33 -27 -11 -54 3 -54 28 0 30 9 38
40 34 19 -2 26 -10 28 -29z"/>
<path d="M2589 3928 c-61 -20 -59 -116 2 -137 31 -11 85 4 88 24 1 6 4 18 7
28 16 52 -43 103 -97 85z m58 -54 c8 -22 -10 -49 -32 -49 -10 0 -22 7 -28 16
-15 24 -1 49 28 49 15 0 28 -7 32 -16z"/>
<path d="M704 3500 c-31 -12 -33 -17 -35 -106 -3 -150 -2 -147 -89 -159 l-45
-6 -19 46 c-20 49 -81 100 -107 90 -8 -3 -23 1 -34 9 -16 12 -25 11 -64 -2
-67 -22 -88 -39 -111 -88 -57 -116 3 -242 123 -259 92 -14 184 36 203 110 6
23 11 25 58 25 28 0 56 -4 62 -8 7 -4 13 -50 16 -119 2 -74 8 -117 16 -125 19
-19 1294 -17 1317 2 12 10 15 35 15 121 0 124 0 125 89 130 l54 4 15 -43 c8
-26 27 -52 48 -69 30 -23 45 -26 107 -27 86 0 124 18 157 77 43 76 23 192 -41
239 -41 30 -108 42 -157 29 -53 -15 -109 -63 -117 -101 -7 -33 -29 -55 -45
-45 -6 4 -27 9 -47 11 -59 7 -63 15 -63 129 0 91 -2 104 -21 121 -20 18 -47
19 -643 21 -341 1 -631 -2 -642 -7z m1276 -35 c8 -10 11 -51 8 -134 l-3 -120
69 -3 c93 -4 97 -23 5 -23 l-71 0 1 -132 2 -133 -651 0 -650 0 0 136 0 137
-75 -5 c-53 -4 -75 -2 -72 6 2 6 34 12 75 14 l72 3 0 128 c0 70 3 131 7 134 3
4 291 7 638 7 541 0 634 -2 645 -15z m-1536 -140 c15 -10 34 -31 42 -47 16
-31 25 -136 11 -141 -4 -1 -9 -11 -11 -22 -1 -10 -11 -24 -22 -29 -10 -6 -22
-15 -25 -19 -9 -13 -81 -27 -109 -21 -30 7 -71 25 -85 39 -38 36 -49 140 -21
194 39 75 143 96 220 46z m1968 9 c67 -34 92 -147 48 -219 -57 -93 -208 -91
-263 3 -24 41 -25 117 -3 160 37 72 135 97 218 56z"/>
<path d="M710 3195 l0 -255 625 0 625 0 0 255 0 255 -625 0 -625 0 0 -255z
m1215 211 c16 -16 21 -406 5 -406 -5 0 -10 -7 -10 -15 0 -13 -75 -15 -576 -17
-519 -3 -577 -1 -590 13 -12 13 -15 56 -15 218 -1 175 1 204 15 214 25 18
1153 12 1171 -7z"/>
<path d="M329 3268 c-37 -12 -55 -58 -39 -97 25 -61 105 -62 130 -2 25 62 -28
120 -91 99z m56 -49 c4 -5 4 -21 1 -35 -5 -17 -13 -24 -31 -24 -18 0 -26 7
-31 24 -8 32 2 46 31 46 13 0 27 -5 30 -11z"/>
<path d="M2299 3269 c-15 -6 -32 -23 -39 -39 -26 -64 33 -122 99 -99 64 22 63
116 -1 138 -17 6 -31 11 -32 10 -1 0 -13 -5 -27 -10z m60 -53 c9 -11 10 -20 1
-35 -19 -36 -70 -21 -70 20 0 29 49 39 69 15z"/>
<path d="M2599 3051 c-22 -18 -24 -26 -24 -119 1 -84 4 -104 19 -121 18 -20
20 -20 47 -4 26 16 29 16 47 0 26 -24 49 -21 67 7 15 22 15 28 1 53 -13 27
-13 32 8 69 16 29 28 39 46 39 21 0 24 -4 21 -25 -1 -14 -9 -37 -17 -52 -18
-36 -18 -73 2 -92 21 -21 32 -20 55 7 27 29 79 161 79 197 0 41 -32 60 -100
60 -34 0 -64 -6 -78 -16 -20 -14 -24 -14 -44 0 -31 22 -100 20 -129 -3z m115
-17 c9 -3 13 -10 10 -15 -3 -5 2 -12 10 -15 9 -3 16 -16 16 -29 0 -13 -7 -26
-16 -29 -8 -3 -12 -10 -9 -16 3 -5 -1 -10 -9 -10 -28 0 -26 -18 4 -50 31 -34
34 -53 9 -57 -14 -3 -69 67 -69 87 0 6 -6 10 -13 10 -9 0 -13 -15 -13 -47 1
-36 -3 -48 -14 -48 -12 0 -16 19 -18 99 -1 55 0 106 2 113 6 13 80 18 110 7z
m211 -3 c6 -10 -60 -185 -78 -209 -6 -8 -14 -9 -19 -4 -6 6 5 45 26 98 20 48
36 89 36 91 0 2 -24 3 -54 3 -51 0 -74 9 -59 24 10 10 141 7 148 -3z"/>
<path d="M2635 2975 c0 -34 2 -36 29 -33 59 6 57 68 -3 68 -23 0 -26 -4 -26
-35z"/>
<path d="M984 2762 c-222 -2 -294 -5 -302 -15 -6 -7 -12 -60 -13 -117 -3 -124
-9 -134 -86 -138 l-53 -2 -24 47 c-14 27 -36 55 -49 65 -77 54 -214 36 -260
-35 -19 -31 -30 -76 -28 -117 5 -90 46 -142 126 -161 28 -6 56 -14 64 -18 9
-4 22 0 33 11 11 11 27 18 36 16 20 -4 68 49 83 91 11 30 13 31 69 31 34 0 62
-5 68 -12 6 -7 12 -61 14 -120 2 -70 7 -111 16 -120 19 -19 1267 -20 1300 -1
21 13 22 20 22 122 0 123 3 127 90 133 43 3 45 2 63 -37 23 -47 66 -89 99 -94
56 -10 125 -4 159 12 105 52 112 237 11 304 -97 64 -248 14 -269 -89 -6 -28
-7 -29 -62 -27 -85 4 -91 13 -91 134 0 85 -3 105 -18 118 -16 14 -61 17 -362
19 -190 2 -476 2 -636 0z m985 -36 c8 -10 11 -53 9 -135 l-3 -121 65 0 c36 0
72 -5 80 -10 18 -12 15 -12 -74 -14 l-68 -1 1 -132 2 -133 -646 0 -645 0 0
136 0 137 -80 -5 c-55 -3 -79 -1 -77 6 2 6 37 12 80 14 l77 3 0 128 c0 70 3
131 7 134 3 4 289 7 633 7 531 0 629 -2 639 -14z m-1542 -134 c26 -15 63 -72
63 -100 0 -11 5 -24 10 -27 8 -5 7 -11 -1 -21 -6 -7 -9 -21 -5 -29 3 -9 -3
-24 -13 -34 -11 -11 -17 -22 -14 -24 8 -9 -44 -38 -84 -48 -28 -6 -52 -4 -89
7 -42 13 -55 23 -74 56 -41 72 -24 175 35 214 50 33 118 35 172 6z m1981 -4
c42 -26 64 -70 64 -128 0 -92 -60 -152 -152 -152 -92 0 -152 60 -152 151 0 81
40 134 115 151 42 9 84 2 125 -22z"/>
<path d="M710 2455 l0 -255 620 0 620 0 0 255 0 255 -620 0 -620 0 0 -255z
m1205 0 l0 -220 -565 -3 c-311 -1 -575 0 -587 3 -23 5 -23 6 -23 219 0 162 3
216 13 219 6 3 271 5 587 4 l575 -2 0 -220z"/>
<path d="M319 2528 c-37 -12 -55 -58 -40 -97 27 -64 123 -62 135 3 13 67 -36
114 -95 94z m59 -67 c5 -31 -11 -45 -42 -37 -19 5 -26 13 -26 30 0 30 9 38 40
34 18 -2 26 -10 28 -27z"/>
<path d="M2289 2529 c-15 -6 -32 -23 -39 -39 -26 -64 33 -122 99 -99 64 22 63
116 -1 138 -17 6 -31 11 -32 10 -1 0 -13 -5 -27 -10z m66 -59 c9 -15 -14 -50
-33 -50 -38 0 -53 37 -26 64 16 16 45 9 59 -14z"/>
<path d="M2579 2371 c-21 -17 -24 -30 -27 -100 -6 -119 22 -171 73 -137 18 12
25 12 48 -2 22 -14 30 -14 51 -3 22 12 29 12 50 -3 14 -9 44 -16 66 -16 84 0
132 101 80 167 -13 17 -18 33 -14 50 8 31 -20 63 -56 63 -15 0 -44 -11 -64
-25 l-38 -25 -30 25 c-37 31 -104 34 -139 6z m122 -22 c11 -5 17 -14 14 -20
-4 -5 -1 -9 4 -9 17 0 13 -50 -4 -56 -8 -4 -13 -10 -10 -14 3 -4 -4 -10 -15
-13 -19 -5 -19 -7 10 -38 34 -38 36 -47 15 -55 -15 -6 -60 37 -70 69 -12 34
-32 18 -31 -25 1 -32 -3 -43 -14 -43 -12 0 -16 18 -18 94 -1 52 -1 100 2 108
6 16 88 18 117 2z m187 -6 c2 -9 -7 -13 -26 -13 -16 0 -37 -9 -47 -20 -18 -20
-17 -20 18 -20 48 0 77 -31 77 -81 0 -44 -27 -69 -75 -69 -17 0 -41 7 -53 16
-42 29 -24 164 25 193 23 14 75 10 81 -6z"/>
<path d="M2618 2296 c-4 -33 -2 -36 23 -36 57 0 63 61 7 68 -23 3 -26 -1 -30
-32z"/>
<path d="M2802 2248 c-7 -7 -12 -25 -12 -40 0 -21 6 -29 24 -34 40 -10 66 4
66 35 0 32 -16 51 -45 51 -12 0 -26 -5 -33 -12z"/>
<path d="M2458 1978 c-20 -16 -40 -21 -87 -20 -34 0 -64 -4 -67 -9 -8 -14 -36
-11 -54 6 -15 14 -128 17 -912 23 -700 5 -900 4 -919 -5 -20 -11 -26 -10 -36
3 -6 8 -14 11 -17 6 -3 -6 -43 -10 -88 -11 -130 -2 -119 37 -114 -440 6 -497
6 -459 0 -945 -4 -364 -3 -400 12 -417 16 -18 54 -19 1039 -19 982 0 1023 1
1039 19 15 16 16 54 12 427 -6 503 -6 445 0 827 4 297 6 318 22 312 9 -4 47
-10 84 -12 53 -5 71 -10 89 -29 38 -40 79 -26 79 28 0 53 -55 95 -127 97 -28
1 -31 27 -4 36 22 7 49 -2 74 -24 18 -15 21 -14 43 12 27 32 32 86 11 127 -16
32 -45 35 -79 8z m62 -62 c0 -34 -3 -66 -7 -69 -10 -11 -32 13 -27 28 4 10
-10 14 -58 17 -68 4 -80 2 -59 -12 8 -4 11 -15 7 -25 -5 -14 -11 -12 -46 15
-23 18 -39 37 -37 44 2 7 38 12 98 12 84 2 94 4 94 20 1 11 4 25 9 32 15 25
26 0 26 -62z m-282 -388 c1 -277 -1 -418 -8 -418 -7 0 -10 139 -10 405 l0 405
-1005 0 -1005 0 0 -391 c0 -262 -3 -390 -10 -387 -11 3 -15 781 -5 799 4 6
390 8 1023 7 l1017 -3 3 -417z m-1898 361 c19 -1 43 2 54 6 10 5 25 4 33 -1 9
-5 368 -7 879 -4 540 3 869 1 875 -5 13 -13 12 -645 -1 -645 -6 0 -30 10 -53
22 -31 15 -60 21 -112 21 -117 1 -190 -52 -221 -160 -18 -63 -14 -113 16 -179
26 -56 76 -94 150 -110 50 -12 67 -12 114 0 31 8 66 22 78 30 12 9 26 16 30
16 12 0 10 -622 -2 -640 -8 -13 -126 -15 -962 -15 -855 0 -955 2 -971 16 -16
14 -17 41 -16 318 2 324 3 328 51 298 13 -8 49 -20 80 -27 49 -10 65 -9 113 6
94 30 141 88 153 188 17 139 -72 259 -193 259 -22 -1 -45 4 -52 9 -7 6 -14 5
-18 -2 -3 -5 -14 -10 -23 -10 -9 -1 -35 -9 -57 -20 l-40 -19 -3 317 c-2 290
-1 318 15 330 9 6 24 10 32 8 9 -3 32 -6 51 -7z m1963 -33 c21 -16 22 -42 1
-50 -29 -11 -34 -6 -34 29 0 38 6 42 33 21z m164 -72 c31 -8 56 -50 48 -81 -5
-20 -8 -23 -20 -13 -8 7 -13 16 -10 20 2 4 -7 17 -20 30 -22 20 -31 22 -95 18
-68 -5 -88 1 -75 22 7 11 136 14 172 4z m-2004 -531 c7 3 24 -4 38 -14 13 -10
29 -19 34 -19 17 0 54 -67 65 -116 11 -49 -4 -154 -22 -154 -4 0 -8 -6 -8 -13
0 -7 -9 -19 -21 -27 -11 -8 -30 -22 -40 -31 -40 -34 -155 -35 -209 -1 -72 44
-110 138 -90 226 10 46 48 116 63 116 4 0 19 7 33 16 14 9 43 19 66 21 23 2
44 5 46 8 3 3 11 0 18 -6 8 -6 20 -9 27 -6z m1627 -5 c0 -4 7 -8 15 -8 8 0 15
-4 15 -10 0 -5 8 -10 18 -10 10 0 25 -12 33 -27 8 -16 17 -30 20 -33 17 -15
29 -102 19 -145 -23 -102 -95 -160 -200 -160 -98 0 -188 67 -195 144 -1 14 -6
34 -10 44 -4 10 -2 24 5 32 6 8 9 19 5 25 -4 6 -1 17 5 25 7 8 10 15 6 15 -11
0 46 80 58 80 6 0 21 8 34 18 17 14 42 18 98 18 41 0 74 -4 74 -8z m150 -660
l0 -413 -1025 2 -1025 3 -3 395 c-1 311 1 395 11 395 9 0 12 -84 12 -385 l0
-385 1005 0 1005 0 0 400 c0 260 4 400 10 400 7 0 10 -144 10 -412z"/>
<path d="M1275 1434 c-76 -14 -98 -24 -159 -68 -94 -67 -139 -166 -139 -306 0
-104 14 -157 60 -225 125 -190 457 -208 619 -34 29 31 38 48 73 133 13 32 14
231 0 256 -4 8 -17 37 -30 63 -23 52 -71 104 -116 128 -15 7 -30 16 -33 19
-33 34 -180 53 -275 34z m172 -30 c66 -10 171 -80 215 -143 66 -95 76 -243 23
-359 -33 -72 -64 -105 -140 -147 -123 -69 -261 -67 -386 6 -110 64 -162 162
-162 305 1 81 32 172 79 227 40 47 137 100 209 114 58 11 74 11 162 -3z"/>
<path d="M1290 1386 c-114 -23 -208 -103 -246 -208 -21 -59 -21 -171 0 -235
25 -74 65 -124 132 -164 140 -84 310 -68 427 40 107 98 128 296 45 426 -31 49
-48 64 -114 103 -40 23 -162 57 -185 51 -2 -1 -29 -6 -59 -13z m150 -30 c35
-4 121 -59 159 -102 22 -26 46 -65 53 -88 17 -57 16 -163 -2 -216 -25 -78
-141 -180 -204 -180 -14 0 -28 -4 -31 -10 -8 -13 -92 -13 -100 0 -3 6 -20 10
-36 10 -39 0 -100 32 -142 74 -107 106 -116 307 -18 412 74 80 167 118 261
107 25 -3 52 -6 60 -7z"/>
<path d="M345 1176 c-55 -24 -70 -51 -69 -121 0 -56 3 -65 32 -93 41 -40 90
-49 145 -28 59 23 82 58 82 128 0 64 -18 91 -72 114 -40 17 -79 17 -118 0z
m122 -41 c11 -8 26 -30 33 -50 10 -30 9 -41 -7 -73 -41 -84 -172 -68 -189 24
-17 89 83 150 163 99z"/>
<path d="M1951 1174 c-35 -15 -68 -51 -63 -68 2 -6 -2 -20 -9 -33 -9 -18 -9
-26 1 -38 7 -8 10 -21 7 -28 -8 -21 38 -65 83 -78 48 -15 109 0 140 33 29 31
43 91 31 133 -11 42 -29 61 -75 80 -44 19 -71 18 -115 -1z m104 -28 c38 -16
55 -42 55 -85 0 -77 -66 -126 -133 -97 -46 19 -60 41 -60 91 0 49 14 72 58 91
38 17 39 17 80 0z"/>
<path d="M2630 1284 c-16 -8 -56 -14 -107 -14 -114 0 -113 2 -113 -215 0 -132
3 -176 14 -191 13 -18 28 -19 191 -19 212 0 205 -5 205 124 1 60 5 92 15 105
21 28 21 174 -1 204 -14 20 -23 22 -97 21 -49 -1 -92 -6 -107 -15z m185 -15
c2 -3 5 -45 6 -94 1 -60 -2 -90 -10 -93 -8 -3 -11 22 -11 82 l0 86 -81 0 c-64
0 -79 3 -71 13 9 11 156 16 167 6z m-23 -214 l3 -185 -180 0 -180 0 2 187 c2
104 3 188 3 188 0 0 79 -1 175 -3 l174 -3 3 -184z"/>
<path d="M2565 1161 c-42 -18 -60 -51 -60 -106 1 -44 6 -56 30 -81 24 -24 37
-29 80 -29 43 0 56 5 80 29 25 25 29 37 30 82 0 45 -4 58 -26 80 -29 28 -97
41 -134 25z m107 -48 c25 -22 30 -60 14 -92 -46 -88 -187 -24 -144 66 24 51
88 64 130 26z"/>
<path d="M25 10 c-4 -7 490 -10 1475 -10 985 0 1479 3 1475 10 -9 14 -2941 14
-2950 0z"/>
</g>
</svg>
